SplineFontDB: 3.0
FontName: Sansita-ExtraBoldItalic
FullName: Sansita-ExtraBoldItalic
FamilyName: Sansita
Weight: ExtraBold
Copyright: Copyright (c) 2011-2013, Omnibus-Type (www.omnibus-type.com omnibus.type@gmail.com) with Reserved Font Name 'Sansita'
Version: 001.004
ItalicAngle: -11
UnderlinePosition: -49.8047
UnderlineWidth: 49.8047
Ascent: 800
Descent: 200
sfntRevision: 0x00010106
LayerCount: 2
Layer: 0 1 "Back"  1
Layer: 1 1 "Fore"  0
XUID: [1021 809 -2065993493 12859362]
FSType: 8
OS2Version: 3
OS2_WeightWidthSlopeOnly: 0
OS2_UseTypoMetrics: 1
CreationTime: 1387883437
ModificationTime: 1388332819
PfmFamily: 81
TTFWeight: 800
TTFWidth: 5
LineGap: 0
VLineGap: 0
Panose: 0 0 9 0 0 0 0 0 0 0
OS2TypoAscent: 700
OS2TypoAOffset: 0
OS2TypoDescent: -180
OS2TypoDOffset: 0
OS2TypoLinegap: 320
OS2WinAscent: 1020
OS2WinAOffset: 0
OS2WinDescent: 180
OS2WinDOffset: 0
HheadAscent: 1020
HheadAOffset: 0
HheadDescent: -180
HheadDOffset: 0
OS2SubXSize: 650
OS2SubYSize: 600
OS2SubXOff: -15
OS2SubYOff: 75
OS2SupXSize: 650
OS2SupYSize: 600
OS2SupXOff: 68
OS2SupYOff: 350
OS2StrikeYSize: 50
OS2StrikeYPos: 306
OS2Vendor: 'UKWN'
OS2CodePages: 20000093.00000000
OS2UnicodeRanges: 00000007.00000000.00000000.00000000
Lookup: 1 0 0 "'aalt' Access All Alternates lookup 0"  {"'aalt' Access All Alternates lookup 0 subtable"  } ['aalt' ('DFLT' <'dflt' > 'grek' <'dflt' > 'latn' <'AZE ' 'CAT ' 'CRT ' 'ESP ' 'KAZ ' 'MOL ' 'NLD ' 'PLK ' 'ROM ' 'TAT ' 'TRK ' 'dflt' > ) ]
Lookup: 3 0 0 "'aalt' Access All Alternates lookup 1"  {"'aalt' Access All Alternates lookup 1 subtable"  } ['aalt' ('DFLT' <'dflt' > 'grek' <'dflt' > 'latn' <'AZE ' 'CAT ' 'CRT ' 'ESP ' 'KAZ ' 'MOL ' 'NLD ' 'PLK ' 'ROM ' 'TAT ' 'TRK ' 'dflt' > ) ]

StartChar: .notdef
Encoding: 65536 -1 0
Width: 513
Flags: MW
HStem: 0 50<49 389 49 459> 650 50<164 504 164 164>
VStem: -41 636
LayerCount: 2
UndoRedoHistory
Layer: 0
Undoes
EndUndoes
Redoes
EndRedoes
EndUndoRedoHistory
UndoRedoHistory
Layer: 1
Undoes
EndUndoes
Redoes
EndRedoes
EndUndoRedoHistory
Fore
SplineSet
389 50 m 1,0,-1
 267 305 l 1,1,-1
 49 50 l 1,2,-1
 389 50 l 1,0,-1
426 95 m 1,3,-1
 526 605 l 1,4,-1
 307 350 l 1,5,-1
 426 95 l 1,3,-1
26 95 m 1,6,-1
 247 350 l 1,7,-1
 126 605 l 1,8,-1
 26 95 l 1,6,-1
504 650 m 1,9,-1
 164 650 l 1,10,-1
 286 395 l 1,11,-1
 504 650 l 1,9,-1
95 700 m 1,12,-1
 595 700 l 1,13,-1
 459 0 l 1,14,-1
 -41 0 l 1,15,-1
 95 700 l 1,12,-1
EndSplineSet
Validated: 1
EndChar

StartChar: A
Encoding: 65 65 1
Width: 587
Flags: MW
HStem: 160 79<171 309 171 313 140 309> 520 140<294 294> 640 20G<255 479 479 479>
VStem: -60 624
LayerCount: 2
UndoRedoHistory
Layer: 0
Undoes
EndUndoes
Redoes
EndRedoes
EndUndoRedoHistory
UndoRedoHistory
Layer: 1
Undoes
EndUndoes
Redoes
EndRedoes
EndUndoRedoHistory
Fore
SplineSet
294 520 m 1,0,1
 261 447 261 447 171 239 c 1,2,-1
 309 239 l 1,3,-1
 294 520 l 1,0,1
511 173 m 2,4,5
 518 68 518 68 564 40 c 1,6,7
 550 12 550 12 520.5 -4 c 128,-1,8
 491 -20 491 -20 451 -20 c 0,9,10
 397 -20 397 -20 367.5 8.5 c 128,-1,11
 338 37 338 37 324 93 c 0,12,13
 318 118 318 118 313 160 c 1,14,-1
 140 160 l 1,15,16
 105 74 105 74 80 0 c 1,17,-1
 -60 0 l 1,18,-1
 255 660 l 1,19,-1
 479 660 l 1,20,-1
 511 173 l 2,4,5
EndSplineSet
Validated: 8388609
Substitution2: "Single Substitution lookup 21 subtable" ordfeminine
Substitution2: "'aalt' Access All Alternates lookup 0 subtable" ordfeminine
Position2: "'cpsp' Capital Spacing lookup 3 subtable" dx=5 dy=0 dh=10 dv=0
EndChar

StartChar: Aacute
Encoding: 193 193 2
Width: 587
Flags: MW
HStem: 160 79<171 309 171 313 140 309> 520 140<294 294> 640 20G<255 479 479 479>
VStem: -60 624
LayerCount: 2
UndoRedoHistory
Layer: 0
Undoes
EndUndoes
Redoes
EndRedoes
EndUndoRedoHistory
UndoRedoHistory
Layer: 1
Undoes
EndUndoes
Redoes
EndRedoes
EndUndoRedoHistory
Fore
SplineSet
294 520 m 1,0,1
 261 447 261 447 171 239 c 1,2,-1
 309 239 l 1,3,-1
 294 520 l 1,0,1
511 173 m 2,4,5
 518 68 518 68 564 40 c 1,6,7
 550 12 550 12 520.5 -4 c 128,-1,8
 491 -20 491 -20 451 -20 c 0,9,10
 397 -20 397 -20 367.5 8.5 c 128,-1,11
 338 37 338 37 324 93 c 0,12,13
 318 118 318 118 313 160 c 1,14,-1
 140 160 l 1,15,16
 105 74 105 74 80 0 c 1,17,-1
 -60 0 l 1,18,-1
 255 660 l 1,19,-1
 479 660 l 1,20,-1
 511 173 l 2,4,5
288 759 m 1,21,-1
 533 861 l 1,22,23
 561 840 561 840 561 807 c 0,24,25
 561 782 561 782 549.5 764 c 128,-1,26
 538 746 538 746 517.5 735.5 c 128,-1,27
 497 725 497 725 472.5 720 c 128,-1,28
 448 715 448 715 419 714 c 2,29,-1
 300 710 l 1,30,-1
 288 759 l 1,21,-1
EndSplineSet
Validated: 8388609
Position2: "'cpsp' Capital Spacing lookup 3 subtable" dx=5 dy=0 dh=10 dv=0
EndChar

StartChar: Abreve
Encoding: 258 258 3
Width: 587
Flags: MW
HStem: 160 79<171 309 171 313 140 309> 520 140<294 294> 640 20G<255 479 479 479> 701 49<366 408 366 442>
VStem: 199 148<789 802 789 812>
LayerCount: 2
UndoRedoHistory
Layer: 0
Undoes
EndUndoes
Redoes
EndRedoes
EndUndoRedoHistory
UndoRedoHistory
Layer: 1
Undoes
EndUndoes
Redoes
EndRedoes
EndUndoRedoHistory
Fore
SplineSet
294 520 m 1,0,1
 261 447 261 447 171 239 c 1,2,-1
 309 239 l 1,3,-1
 294 520 l 1,0,1
511 173 m 2,4,5
 518 68 518 68 564 40 c 1,6,7
 550 12 550 12 520.5 -4 c 128,-1,8
 491 -20 491 -20 451 -20 c 0,9,10
 397 -20 397 -20 367.5 8.5 c 128,-1,11
 338 37 338 37 324 93 c 0,12,13
 318 118 318 118 313 160 c 1,14,-1
 140 160 l 1,15,16
 105 74 105 74 80 0 c 1,17,-1
 -60 0 l 1,18,-1
 255 660 l 1,19,-1
 479 660 l 1,20,-1
 511 173 l 2,4,5
351 834 m 1,21,22
 347 806 347 806 347 796 c 0,23,24
 347 788 347 788 348 782 c 128,-1,25
 349 776 349 776 351.5 767.5 c 128,-1,26
 354 759 354 759 362.5 754.5 c 128,-1,27
 371 750 371 750 383 750 c 0,28,29
 397 750 397 750 408 756 c 128,-1,30
 419 762 419 762 425 768.5 c 128,-1,31
 431 775 431 775 436.5 789 c 128,-1,32
 442 803 442 803 444 810 c 128,-1,33
 446 817 446 817 450 834 c 1,34,-1
 594 834 l 1,35,36
 581 775 581 775 526 738 c 128,-1,37
 471 701 471 701 373 701 c 0,38,39
 290 701 290 701 244.5 731.5 c 128,-1,40
 199 762 199 762 199 807 c 0,41,42
 199 819 199 819 202 834 c 1,43,-1
 351 834 l 1,21,22
EndSplineSet
Validated: 8388609
Position2: "'cpsp' Capital Spacing lookup 3 subtable" dx=5 dy=0 dh=10 dv=0
EndChar

StartChar: Acircumflex
Encoding: 194 194 4
Width: 587
Flags: MW
HStem: 160 79<171 309 171 313 140 309> 520 140<294 294> 640 20G<255 479 479 479>
VStem: -60 624
LayerCount: 2
UndoRedoHistory
Layer: 0
Undoes
EndUndoes
Redoes
EndRedoes
EndUndoRedoHistory
UndoRedoHistory
Layer: 1
Undoes
EndUndoes
Redoes
EndRedoes
EndUndoRedoHistory
Fore
SplineSet
294 520 m 1,0,1
 261 447 261 447 171 239 c 1,2,-1
 309 239 l 1,3,-1
 294 520 l 1,0,1
511 173 m 2,4,5
 518 68 518 68 564 40 c 1,6,7
 550 12 550 12 520.5 -4 c 128,-1,8
 491 -20 491 -20 451 -20 c 0,9,10
 397 -20 397 -20 367.5 8.5 c 128,-1,11
 338 37 338 37 324 93 c 0,12,13
 318 118 318 118 313 160 c 1,14,-1
 140 160 l 1,15,16
 105 74 105 74 80 0 c 1,17,-1
 -60 0 l 1,18,-1
 255 660 l 1,19,-1
 479 660 l 1,20,-1
 511 173 l 2,4,5
492 687 m 1,21,-1
 376 739 l 1,22,-1
 228 687 l 1,23,-1
 197 733 l 1,24,-1
 364 849 l 1,25,-1
 409 849 l 1,26,-1
 542 733 l 1,27,-1
 492 687 l 1,21,-1
EndSplineSet
Validated: 8388609
Position2: "'cpsp' Capital Spacing lookup 3 subtable" dx=5 dy=0 dh=10 dv=0
EndChar

StartChar: Adieresis
Encoding: 196 196 5
Width: 587
Flags: MW
HStem: 160 79<171 309 171 313 140 309> 520 140<294 294> 640 20G<255 479 479 479> 690 152<238 293 473 527>
VStem: -60 661 162 205<741 790> 396 205<741 790>
LayerCount: 2
UndoRedoHistory
Layer: 0
Undoes
EndUndoes
Redoes
EndRedoes
EndUndoRedoHistory
UndoRedoHistory
Layer: 1
Undoes
EndUndoes
Redoes
EndRedoes
EndUndoRedoHistory
Fore
SplineSet
294 520 m 1,0,1
 261 447 261 447 171 239 c 1,2,-1
 309 239 l 1,3,-1
 294 520 l 1,0,1
511 173 m 2,4,5
 518 68 518 68 564 40 c 1,6,7
 550 12 550 12 520.5 -4 c 128,-1,8
 491 -20 491 -20 451 -20 c 0,9,10
 397 -20 397 -20 367.5 8.5 c 128,-1,11
 338 37 338 37 324 93 c 0,12,13
 318 118 318 118 313 160 c 1,14,-1
 140 160 l 1,15,16
 105 74 105 74 80 0 c 1,17,-1
 -60 0 l 1,18,-1
 255 660 l 1,19,-1
 479 660 l 1,20,-1
 511 173 l 2,4,5
502 842 m 0,21,22
 547 842 547 842 574 822 c 128,-1,23
 601 802 601 802 601 766 c 128,-1,24
 601 730 601 730 572.5 710 c 128,-1,25
 544 690 544 690 498 690 c 0,26,27
 453 690 453 690 424.5 709.5 c 128,-1,28
 396 729 396 729 396 764 c 0,29,30
 396 801 396 801 426 821.5 c 128,-1,31
 456 842 456 842 502 842 c 0,21,22
268 842 m 0,32,33
 313 842 313 842 340 822 c 128,-1,34
 367 802 367 802 367 766 c 128,-1,35
 367 730 367 730 338.5 710 c 128,-1,36
 310 690 310 690 264 690 c 0,37,38
 219 690 219 690 190.5 709.5 c 128,-1,39
 162 729 162 729 162 764 c 0,40,41
 162 801 162 801 192 821.5 c 128,-1,42
 222 842 222 842 268 842 c 0,32,33
EndSplineSet
Validated: 8388609
Position2: "'cpsp' Capital Spacing lookup 3 subtable" dx=5 dy=0 dh=10 dv=0
EndChar

StartChar: Agrave
Encoding: 192 192 6
Width: 587
Flags: MW
HStem: 160 79<171 309 171 313 140 309> 520 140<294 294> 640 20G<255 479 479 479>
VStem: -60 624
LayerCount: 2
UndoRedoHistory
Layer: 0
Undoes
EndUndoes
Redoes
EndRedoes
EndUndoRedoHistory
UndoRedoHistory
Layer: 1
Undoes
EndUndoes
Redoes
EndRedoes
EndUndoRedoHistory
Fore
SplineSet
294 520 m 1,0,1
 261 447 261 447 171 239 c 1,2,-1
 309 239 l 1,3,-1
 294 520 l 1,0,1
511 173 m 2,4,5
 518 68 518 68 564 40 c 1,6,7
 550 12 550 12 520.5 -4 c 128,-1,8
 491 -20 491 -20 451 -20 c 0,9,10
 397 -20 397 -20 367.5 8.5 c 128,-1,11
 338 37 338 37 324 93 c 0,12,13
 318 118 318 118 313 160 c 1,14,-1
 140 160 l 1,15,16
 105 74 105 74 80 0 c 1,17,-1
 -60 0 l 1,18,-1
 255 660 l 1,19,-1
 479 660 l 1,20,-1
 511 173 l 2,4,5
473 711 m 1,21,-1
 354 715 l 2,22,23
 325 716 325 716 300.5 721 c 128,-1,24
 276 726 276 726 255.5 736.5 c 128,-1,25
 235 747 235 747 223.5 765 c 128,-1,26
 212 783 212 783 212 808 c 0,27,28
 212 841 212 841 240 862 c 1,29,-1
 485 760 l 1,30,-1
 473 711 l 1,21,-1
EndSplineSet
Validated: 8388609
Position2: "'cpsp' Capital Spacing lookup 3 subtable" dx=5 dy=0 dh=10 dv=0
EndChar

StartChar: Amacron
Encoding: 256 256 7
Width: 587
Flags: MW
HStem: 160 79<171 309 171 313 140 309> 520 140<294 294> 640 20G<255 479 479 479> 740 92<290 459 225 531>
VStem: -60 624
LayerCount: 2
UndoRedoHistory
Layer: 0
Undoes
EndUndoes
Redoes
EndRedoes
EndUndoRedoHistory
UndoRedoHistory
Layer: 1
Undoes
EndUndoes
Redoes
EndRedoes
EndUndoRedoHistory
Fore
SplineSet
294 520 m 1,0,1
 261 447 261 447 171 239 c 1,2,-1
 309 239 l 1,3,-1
 294 520 l 1,0,1
511 173 m 2,4,5
 518 68 518 68 564 40 c 1,6,7
 550 12 550 12 520.5 -4 c 128,-1,8
 491 -20 491 -20 451 -20 c 0,9,10
 397 -20 397 -20 367.5 8.5 c 128,-1,11
 338 37 338 37 324 93 c 0,12,13
 318 118 318 118 313 160 c 1,14,-1
 140 160 l 1,15,16
 105 74 105 74 80 0 c 1,17,-1
 -60 0 l 1,18,-1
 255 660 l 1,19,-1
 479 660 l 1,20,-1
 511 173 l 2,4,5
531 832 m 1,21,22
 535 814 535 814 535 804 c 0,23,24
 535 776 535 776 515.5 758 c 128,-1,25
 496 740 496 740 459 740 c 2,26,-1
 225 740 l 1,27,28
 222 749 222 749 222 767 c 0,29,30
 222 796 222 796 241.5 814 c 128,-1,31
 261 832 261 832 290 832 c 2,32,-1
 531 832 l 1,21,22
EndSplineSet
Validated: 8388609
Position2: "'cpsp' Capital Spacing lookup 3 subtable" dx=5 dy=0 dh=10 dv=0
EndChar

StartChar: Aogonek
Encoding: 260 260 8
Width: 587
Flags: MW
HStem: -258 84<481 504> -36 20G 160 79<171 309 171 313 140 309> 520 140<294 294> 640 20G<255 479 479 479>
VStem: 338 112<-141 -117>
LayerCount: 2
UndoRedoHistory
Layer: 0
Undoes
EndUndoes
Redoes
EndRedoes
EndUndoRedoHistory
UndoRedoHistory
Layer: 1
Undoes
EndUndoes
Redoes
EndRedoes
EndUndoRedoHistory
Fore
SplineSet
309 239 m 1,0,-1
 294 520 l 1,1,2
 261 447 261 447 171 239 c 1,3,-1
 309 239 l 1,0,-1
511 173 m 2,4,5
 518 68 518 68 564 40 c 1,6,7
 553 17 553 17 525 -2 c 1,8,9
 492 -27 492 -27 471 -59 c 128,-1,10
 450 -91 450 -91 450 -123 c 0,11,12
 450 -174 450 -174 497 -174 c 0,13,14
 537 -174 537 -174 559 -149 c 1,15,16
 569 -161 569 -161 573 -171 c 128,-1,17
 577 -181 577 -181 577 -196 c 0,18,19
 577 -222 577 -222 548.5 -240 c 128,-1,20
 520 -258 520 -258 469 -258 c 0,21,22
 407 -258 407 -258 372.5 -229.5 c 128,-1,23
 338 -201 338 -201 338 -146 c 0,24,25
 338 -65 338 -65 413 -16 c 1,26,27
 347 2 347 2 324 93 c 0,28,29
 318 118 318 118 313 160 c 1,30,-1
 140 160 l 1,31,32
 105 74 105 74 80 0 c 1,33,-1
 -60 0 l 1,34,-1
 255 660 l 1,35,-1
 479 660 l 1,36,-1
 511 173 l 2,4,5
EndSplineSet
Validated: 8388609
Position2: "'cpsp' Capital Spacing lookup 3 subtable" dx=5 dy=0 dh=10 dv=0
EndChar

StartChar: Aring
Encoding: 197 197 9
Width: 587
Flags: MW
HStem: 160 79<171 309 171 313 140 309> 520 140<294 294> 640 20G<255 479 479 479> 690 36<369 397 369 405> 815 39<384 413>
VStem: 280 68<748 775 748 789> 433 68<766 793>
LayerCount: 2
UndoRedoHistory
Layer: 0
Undoes
EndUndoes
Redoes
EndRedoes
EndUndoRedoHistory
UndoRedoHistory
Layer: 1
Undoes
EndUndoes
Redoes
EndRedoes
EndUndoRedoHistory
Fore
SplineSet
294 520 m 1,0,1
 261 447 261 447 171 239 c 1,2,-1
 309 239 l 1,3,-1
 294 520 l 1,0,1
511 173 m 2,4,5
 518 68 518 68 564 40 c 1,6,7
 550 12 550 12 520.5 -4 c 128,-1,8
 491 -20 491 -20 451 -20 c 0,9,10
 397 -20 397 -20 367.5 8.5 c 128,-1,11
 338 37 338 37 324 93 c 0,12,13
 318 118 318 118 313 160 c 1,14,-1
 140 160 l 1,15,16
 105 74 105 74 80 0 c 1,17,-1
 -60 0 l 1,18,-1
 255 660 l 1,19,-1
 479 660 l 1,20,-1
 511 173 l 2,4,5
433 782 m 0,21,22
 433 815 433 815 401 815 c 0,23,24
 376 815 376 815 362 799.5 c 128,-1,25
 348 784 348 784 348 759 c 0,26,27
 348 742 348 742 355.5 734 c 128,-1,28
 363 726 363 726 380 726 c 0,29,30
 405 726 405 726 419 741.5 c 128,-1,31
 433 757 433 757 433 782 c 0,21,22
501 785 m 0,32,33
 501 742 501 742 462.5 716 c 128,-1,34
 424 690 424 690 372 690 c 0,35,36
 330 690 330 690 305 708.5 c 128,-1,37
 280 727 280 727 280 759 c 0,38,39
 280 801 280 801 319 827.5 c 128,-1,40
 358 854 358 854 411 854 c 0,41,42
 453 854 453 854 477 836 c 128,-1,43
 501 818 501 818 501 785 c 0,32,33
EndSplineSet
Validated: 8388609
Position2: "'cpsp' Capital Spacing lookup 3 subtable" dx=5 dy=0 dh=10 dv=0
EndChar

StartChar: Aringacute
Encoding: 506 506 10
Width: 587
Flags: MW
HStem: 160 79<171 309 171 313 140 309> 640 20G<255 276 276 276 355 384 462 479 479 479> 747 39<371 399>
VStem: 267 68<686 708 682 721> 420 68<707 726>
LayerCount: 2
UndoRedoHistory
Layer: 0
Undoes
EndUndoes
Redoes
EndRedoes
EndUndoRedoHistory
UndoRedoHistory
Layer: 1
Undoes
EndUndoes
Redoes
EndRedoes
EndUndoRedoHistory
Fore
SplineSet
309 239 m 1,0,-1
 294 520 l 1,1,2
 261 447 261 447 171 239 c 1,3,-1
 309 239 l 1,0,-1
335 692 m 0,4,5
 335 660 335 660 367 660 c 0,6,7
 392 660 392 660 406 674.5 c 128,-1,8
 420 689 420 689 420 715 c 0,9,10
 420 747 420 747 388 747 c 0,11,12
 363 747 363 747 349 732 c 128,-1,13
 335 717 335 717 335 692 c 0,4,5
511 173 m 2,14,15
 518 68 518 68 564 40 c 1,16,17
 550 12 550 12 520.5 -4 c 128,-1,18
 491 -20 491 -20 451 -20 c 0,19,20
 397 -20 397 -20 367.5 8.5 c 128,-1,21
 338 37 338 37 324 93 c 0,22,23
 318 118 318 118 313 160 c 1,24,-1
 140 160 l 1,25,26
 105 74 105 74 80 0 c 1,27,-1
 -60 0 l 1,28,-1
 255 660 l 1,29,-1
 276 660 l 1,30,31
 267 673 267 673 267 692 c 0,32,33
 267 734 267 734 306 760 c 128,-1,34
 345 786 345 786 398 786 c 0,35,36
 440 786 440 786 464 768 c 128,-1,37
 488 750 488 750 488 718 c 0,38,39
 488 685 488 685 462 660 c 1,40,-1
 479 660 l 1,41,-1
 511 173 l 2,14,15
309 793 m 1,42,-1
 297 842 l 1,43,-1
 542 944 l 1,44,45
 570 923 570 923 570 890 c 0,46,47
 570 865 570 865 558.5 847 c 128,-1,48
 547 829 547 829 526.5 818.5 c 128,-1,49
 506 808 506 808 482 803 c 128,-1,50
 458 798 458 798 428 797 c 2,51,-1
 309 793 l 1,42,-1
EndSplineSet
Validated: 1
Position2: "'cpsp' Capital Spacing lookup 3 subtable" dx=5 dy=0 dh=10 dv=0
EndChar

StartChar: Atilde
Encoding: 195 195 11
Width: 587
Flags: MW
HStem: 160 79<171 309 171 313 140 309> 520 140<294 294> 640 20G<255 479 479 479> 722 108<470 505 470 505> 740 107<258 292>
VStem: -60 632
LayerCount: 2
UndoRedoHistory
Layer: 0
Undoes
EndUndoes
Redoes
EndRedoes
EndUndoRedoHistory
UndoRedoHistory
Layer: 1
Undoes
EndUndoes
Redoes
EndRedoes
EndUndoRedoHistory
Fore
SplineSet
294 520 m 1,0,1
 261 447 261 447 171 239 c 1,2,-1
 309 239 l 1,3,-1
 294 520 l 1,0,1
511 173 m 2,4,5
 518 68 518 68 564 40 c 1,6,7
 550 12 550 12 520.5 -4 c 128,-1,8
 491 -20 491 -20 451 -20 c 0,9,10
 397 -20 397 -20 367.5 8.5 c 128,-1,11
 338 37 338 37 324 93 c 0,12,13
 318 118 318 118 313 160 c 1,14,-1
 140 160 l 1,15,16
 105 74 105 74 80 0 c 1,17,-1
 -60 0 l 1,18,-1
 255 660 l 1,19,-1
 479 660 l 1,20,-1
 511 173 l 2,4,5
553 847 m 1,21,22
 572 825 572 825 572 796 c 0,23,24
 572 760 572 760 546.5 741 c 128,-1,25
 521 722 521 722 476 722 c 0,26,27
 451 722 451 722 371 731 c 128,-1,28
 291 740 291 740 272 740 c 0,29,30
 232 740 232 740 205 723 c 1,31,32
 185 751 185 751 185 780 c 0,33,34
 185 812 185 812 210.5 829.5 c 128,-1,35
 236 847 236 847 284 847 c 0,36,37
 313 847 313 847 392 838.5 c 128,-1,38
 471 830 471 830 493 830 c 0,39,40
 536 830 536 830 553 847 c 1,21,22
EndSplineSet
Validated: 8388609
Position2: "'cpsp' Capital Spacing lookup 3 subtable" dx=5 dy=0 dh=10 dv=0
EndChar

StartChar: AE
Encoding: 198 198 12
Width: 757
Flags: MW
HStem: -20 142<572 583> 177 77<175 342 213 331> 275 112<608 655> 535 125<662 714> 562 98<385 385 561 561>
VStem: 330 183<87 215>
LayerCount: 2
UndoRedoHistory
Layer: 0
Undoes
EndUndoes
Redoes
EndRedoes
EndUndoRedoHistory
UndoRedoHistory
Layer: 1
Undoes
EndUndoes
Redoes
EndRedoes
EndUndoRedoHistory
Fore
SplineSet
342 254 m 1,0,-1
 385 562 l 1,1,2
 289 405 289 405 213 254 c 1,3,-1
 342 254 l 1,0,-1
175 177 m 1,4,5
 123 73 123 73 91 0 c 1,6,-1
 -64 0 l 1,7,-1
 323 660 l 1,8,-1
 800 660 l 1,9,10
 800 598 800 598 767 566.5 c 128,-1,11
 734 535 734 535 679 535 c 0,12,13
 617 535 617 535 561 562 c 1,14,-1
 537 387 l 1,15,-1
 726 387 l 1,16,17
 726 332 726 332 699 303.5 c 128,-1,18
 672 275 672 275 623 275 c 0,19,20
 568 275 568 275 525 298 c 1,21,22
 513 236 513 236 513 202 c 0,23,24
 513 156 513 156 534 139 c 128,-1,25
 555 122 555 122 604 122 c 0,26,27
 665 122 665 122 707 138 c 1,28,29
 716 116 716 116 716 90 c 0,30,31
 716 64 716 64 705.5 44 c 128,-1,32
 695 24 695 24 678.5 12 c 128,-1,33
 662 0 662 0 638.5 -7.5 c 128,-1,34
 615 -15 615 -15 592 -17.5 c 128,-1,35
 569 -20 569 -20 543 -20 c 0,36,37
 445 -20 445 -20 387.5 21 c 128,-1,38
 330 62 330 62 330 147 c 0,39,40
 330 155 330 155 330.5 165 c 128,-1,41
 331 175 331 175 331 177 c 1,42,-1
 175 177 l 1,4,5
EndSplineSet
Validated: 8388609
Position2: "'cpsp' Capital Spacing lookup 3 subtable" dx=5 dy=0 dh=10 dv=0
EndChar

StartChar: AEacute
Encoding: 508 508 13
Width: 757
Flags: MW
HStem: -20 142<572 583> 177 77<175 342 213 331> 275 112<608 655> 535 125<662 714> 562 98<385 385 561 561>
VStem: 330 183<87 215>
LayerCount: 2
UndoRedoHistory
Layer: 0
Undoes
EndUndoes
Redoes
EndRedoes
EndUndoRedoHistory
UndoRedoHistory
Layer: 1
Undoes
EndUndoes
Redoes
EndRedoes
EndUndoRedoHistory
Fore
SplineSet
385 562 m 1,0,1
 289 405 289 405 213 254 c 1,2,-1
 342 254 l 1,3,-1
 385 562 l 1,0,1
175 177 m 1,4,5
 123 73 123 73 91 0 c 1,6,-1
 -64 0 l 1,7,-1
 323 660 l 1,8,-1
 800 660 l 1,9,10
 800 598 800 598 767 566.5 c 128,-1,11
 734 535 734 535 679 535 c 0,12,13
 617 535 617 535 561 562 c 1,14,-1
 537 387 l 1,15,-1
 726 387 l 1,16,17
 726 332 726 332 699 303.5 c 128,-1,18
 672 275 672 275 623 275 c 0,19,20
 568 275 568 275 525 298 c 1,21,22
 513 236 513 236 513 202 c 0,23,24
 513 156 513 156 534 139 c 128,-1,25
 555 122 555 122 604 122 c 0,26,27
 665 122 665 122 707 138 c 1,28,29
 716 116 716 116 716 90 c 0,30,31
 716 64 716 64 705.5 44 c 128,-1,32
 695 24 695 24 678.5 12 c 128,-1,33
 662 0 662 0 638.5 -7.5 c 128,-1,34
 615 -15 615 -15 592 -17.5 c 128,-1,35
 569 -20 569 -20 543 -20 c 0,36,37
 445 -20 445 -20 387.5 21 c 128,-1,38
 330 62 330 62 330 147 c 0,39,40
 330 155 330 155 330.5 165 c 128,-1,41
 331 175 331 175 331 177 c 1,42,-1
 175 177 l 1,4,5
389 759 m 1,43,-1
 634 861 l 1,44,45
 662 840 662 840 662 807 c 0,46,47
 662 782 662 782 650.5 764 c 128,-1,48
 639 746 639 746 618.5 735.5 c 128,-1,49
 598 725 598 725 573.5 720 c 128,-1,50
 549 715 549 715 520 714 c 2,51,-1
 401 710 l 1,52,-1
 389 759 l 1,43,-1
EndSplineSet
Validated: 8388609
Position2: "'cpsp' Capital Spacing lookup 3 subtable" dx=5 dy=0 dh=10 dv=0
EndChar

StartChar: B
Encoding: 66 66 14
Width: 599
Flags: MW
HStem: -20 20G<-6 -6> -5 72<234 290 234 305> 317 68<263 287> 600 65<335 366>
VStem: 379 195<177 251> 418 168<493 546>
LayerCount: 2
UndoRedoHistory
Layer: 0
Undoes
EndUndoes
Redoes
EndRedoes
EndUndoRedoHistory
UndoRedoHistory
Layer: 1
Undoes
EndUndoes
Redoes
EndRedoes
EndUndoRedoHistory
Fore
SplineSet
215 68 m 1,0,1
 224 67 224 67 236 67 c 0,2,3
 275 67 275 67 303.5 79.5 c 128,-1,4
 332 92 332 92 348 113.5 c 128,-1,5
 364 135 364 135 371.5 160 c 128,-1,6
 379 185 379 185 379 213 c 0,7,8
 379 268 379 268 351 291 c 128,-1,9
 323 314 323 314 263 317 c 1,10,-1
 215 68 l 1,0,1
276 385 m 1,11,-1
 287 385 l 2,12,13
 323 385 323 385 349 396 c 128,-1,14
 375 407 375 407 389.5 426 c 128,-1,15
 404 445 404 445 411 467.5 c 128,-1,16
 418 490 418 490 418 517 c 0,17,18
 418 560 418 560 399 580 c 128,-1,19
 380 600 380 600 338 600 c 0,20,21
 325 600 325 600 318 599 c 1,22,-1
 276 385 l 1,11,-1
120 660 m 1,23,24
 245 665 245 665 316 665 c 0,25,26
 349 665 349 665 373 664.5 c 128,-1,27
 397 664 397 664 427 660.5 c 128,-1,28
 457 657 457 657 478.5 651.5 c 128,-1,29
 500 646 500 646 521.5 636.5 c 128,-1,30
 543 627 543 627 556 613.5 c 128,-1,31
 569 600 569 600 577.5 579.5 c 128,-1,32
 586 559 586 559 586 533 c 0,33,34
 586 476 586 476 549.5 434.5 c 128,-1,35
 513 393 513 393 454 373 c 1,36,37
 478 368 478 368 497.5 359 c 128,-1,38
 517 350 517 350 535.5 333 c 128,-1,39
 554 316 554 316 564 288 c 128,-1,40
 574 260 574 260 574 222 c 0,41,42
 574 -5 574 -5 191 -5 c 0,43,44
 108 -5 108 -5 -6 0 c 1,45,-1
 120 660 l 1,23,24
EndSplineSet
Validated: 8388609
Position2: "'cpsp' Capital Spacing lookup 3 subtable" dx=5 dy=0 dh=10 dv=0
EndChar

StartChar: C
Encoding: 67 67 15
Width: 603
Flags: MW
HStem: -20 152<320 368> 609 71<344 420>
VStem: 21 215<226 328 226 372> 451 174<521 536>
LayerCount: 2
UndoRedoHistory
Layer: 0
Undoes
EndUndoes
Redoes
EndRedoes
EndUndoRedoHistory
UndoRedoHistory
Layer: 1
Undoes
EndUndoes
Redoes
EndRedoes
EndUndoRedoHistory
Fore
SplineSet
424 680 m 0,0,1
 463 680 463 680 496.5 674 c 128,-1,2
 530 668 530 668 560 655.5 c 128,-1,3
 590 643 590 643 607.5 618 c 128,-1,4
 625 593 625 593 625 559 c 0,5,6
 625 504 625 504 584.5 469 c 128,-1,7
 544 434 544 434 489 434 c 0,8,9
 463 434 463 434 443 441 c 1,10,11
 451 477 451 477 451 518 c 0,12,13
 451 609 451 609 395 609 c 0,14,15
 366 609 366 609 339.5 584.5 c 128,-1,16
 313 560 313 560 294.5 522 c 128,-1,17
 276 484 276 484 262.5 438.5 c 128,-1,18
 249 393 249 393 242.5 349.5 c 128,-1,19
 236 306 236 306 236 272 c 0,20,21
 236 202 236 202 267.5 167 c 128,-1,22
 299 132 299 132 365 132 c 0,23,24
 416 132 416 132 458.5 151.5 c 128,-1,25
 501 171 501 171 530 207 c 1,26,27
 556 187 556 187 556 142 c 0,28,29
 556 75 556 75 481 27.5 c 128,-1,30
 406 -20 406 -20 286 -20 c 0,31,32
 153 -20 153 -20 87 47.5 c 128,-1,33
 21 115 21 115 21 254 c 0,34,35
 21 343 21 343 48 420.5 c 128,-1,36
 75 498 75 498 125 555.5 c 128,-1,37
 175 613 175 613 252.5 646.5 c 128,-1,38
 330 680 330 680 424 680 c 0,0,1
EndSplineSet
Validated: 1
Position2: "'cpsp' Capital Spacing lookup 3 subtable" dx=5 dy=0 dh=10 dv=0
EndChar

StartChar: Cacute
Encoding: 262 262 16
Width: 603
Flags: MW
HStem: -20 152<320 368> 609 71<344 420>
VStem: 21 215<226 328 226 372> 451 174<521 536>
LayerCount: 2
UndoRedoHistory
Layer: 0
Undoes
EndUndoes
Redoes
EndRedoes
EndUndoRedoHistory
UndoRedoHistory
Layer: 1
Undoes
EndUndoes
Redoes
EndRedoes
EndUndoRedoHistory
Fore
SplineSet
424 680 m 0,0,1
 463 680 463 680 496.5 674 c 128,-1,2
 530 668 530 668 560 655.5 c 128,-1,3
 590 643 590 643 607.5 618 c 128,-1,4
 625 593 625 593 625 559 c 0,5,6
 625 504 625 504 584.5 469 c 128,-1,7
 544 434 544 434 489 434 c 0,8,9
 463 434 463 434 443 441 c 1,10,11
 451 477 451 477 451 518 c 0,12,13
 451 609 451 609 395 609 c 0,14,15
 366 609 366 609 339.5 584.5 c 128,-1,16
 313 560 313 560 294.5 522 c 128,-1,17
 276 484 276 484 262.5 438.5 c 128,-1,18
 249 393 249 393 242.5 349.5 c 128,-1,19
 236 306 236 306 236 272 c 0,20,21
 236 202 236 202 267.5 167 c 128,-1,22
 299 132 299 132 365 132 c 0,23,24
 416 132 416 132 458.5 151.5 c 128,-1,25
 501 171 501 171 530 207 c 1,26,27
 556 187 556 187 556 142 c 0,28,29
 556 75 556 75 481 27.5 c 128,-1,30
 406 -20 406 -20 286 -20 c 0,31,32
 153 -20 153 -20 87 47.5 c 128,-1,33
 21 115 21 115 21 254 c 0,34,35
 21 343 21 343 48 420.5 c 128,-1,36
 75 498 75 498 125 555.5 c 128,-1,37
 175 613 175 613 252.5 646.5 c 128,-1,38
 330 680 330 680 424 680 c 0,0,1
334 759 m 1,39,-1
 579 861 l 1,40,41
 607 840 607 840 607 807 c 0,42,43
 607 782 607 782 595 764 c 128,-1,44
 583 746 583 746 562.5 735.5 c 128,-1,45
 542 725 542 725 518 720 c 128,-1,46
 494 715 494 715 465 714 c 2,47,-1
 346 710 l 1,48,-1
 334 759 l 1,39,-1
EndSplineSet
Validated: 1
Substitution2: "'locl' Localized Forms in Latin lookup 13 subtable" Cacute.loclPLK
Substitution2: "'aalt' Access All Alternates lookup 0 subtable" Cacute.loclPLK
Position2: "'cpsp' Capital Spacing lookup 3 subtable" dx=5 dy=0 dh=10 dv=0
EndChar

StartChar: Ccaron
Encoding: 268 268 17
Width: 603
Flags: MW
HStem: -20 152<320 368> 609 71<344 420>
VStem: 21 215<226 328 226 372> 451 174<521 536>
LayerCount: 2
UndoRedoHistory
Layer: 0
Undoes
EndUndoes
Redoes
EndRedoes
EndUndoRedoHistory
UndoRedoHistory
Layer: 1
Undoes
EndUndoes
Redoes
EndRedoes
EndUndoRedoHistory
Fore
SplineSet
424 680 m 0,0,1
 463 680 463 680 496.5 674 c 128,-1,2
 530 668 530 668 560 655.5 c 128,-1,3
 590 643 590 643 607.5 618 c 128,-1,4
 625 593 625 593 625 559 c 0,5,6
 625 504 625 504 584.5 469 c 128,-1,7
 544 434 544 434 489 434 c 0,8,9
 463 434 463 434 443 441 c 1,10,11
 451 477 451 477 451 518 c 0,12,13
 451 609 451 609 395 609 c 0,14,15
 366 609 366 609 339.5 584.5 c 128,-1,16
 313 560 313 560 294.5 522 c 128,-1,17
 276 484 276 484 262.5 438.5 c 128,-1,18
 249 393 249 393 242.5 349.5 c 128,-1,19
 236 306 236 306 236 272 c 0,20,21
 236 202 236 202 267.5 167 c 128,-1,22
 299 132 299 132 365 132 c 0,23,24
 416 132 416 132 458.5 151.5 c 128,-1,25
 501 171 501 171 530 207 c 1,26,27
 556 187 556 187 556 142 c 0,28,29
 556 75 556 75 481 27.5 c 128,-1,30
 406 -20 406 -20 286 -20 c 0,31,32
 153 -20 153 -20 87 47.5 c 128,-1,33
 21 115 21 115 21 254 c 0,34,35
 21 343 21 343 48 420.5 c 128,-1,36
 75 498 75 498 125 555.5 c 128,-1,37
 175 613 175 613 252.5 646.5 c 128,-1,38
 330 680 330 680 424 680 c 0,0,1
320 854 m 1,39,-1
 437 802 l 1,40,-1
 585 854 l 1,41,-1
 616 808 l 1,42,-1
 459 692 l 1,43,-1
 393 692 l 1,44,-1
 270 808 l 1,45,-1
 320 854 l 1,39,-1
EndSplineSet
Validated: 1
Position2: "'cpsp' Capital Spacing lookup 3 subtable" dx=5 dy=0 dh=10 dv=0
EndChar

StartChar: Ccedilla
Encoding: 199 199 18
Width: 603
Flags: MW
HStem: -258 68<261 295 261 331> -110 53<265 372> -19 151<259 399 321 321> 609 71<344 420>
VStem: 21 215<226 328 226 372> 331 121<-163 -131> 451 174<521 536>
LayerCount: 2
UndoRedoHistory
Layer: 0
Undoes
EndUndoes
Redoes
EndRedoes
EndUndoRedoHistory
UndoRedoHistory
Layer: 1
Undoes
EndUndoes
Redoes
EndRedoes
EndUndoRedoHistory
Fore
SplineSet
259 -19 m 1,0,1
 140 -12 140 -12 80.5 55.5 c 128,-1,2
 21 123 21 123 21 254 c 0,3,4
 21 343 21 343 48 420.5 c 128,-1,5
 75 498 75 498 125 555.5 c 128,-1,6
 175 613 175 613 252.5 646.5 c 128,-1,7
 330 680 330 680 424 680 c 0,8,9
 463 680 463 680 496.5 674 c 128,-1,10
 530 668 530 668 560 655.5 c 128,-1,11
 590 643 590 643 607.5 618 c 128,-1,12
 625 593 625 593 625 559 c 0,13,14
 625 504 625 504 584.5 469 c 128,-1,15
 544 434 544 434 489 434 c 0,16,17
 463 434 463 434 443 441 c 1,18,19
 451 477 451 477 451 518 c 0,20,21
 451 609 451 609 395 609 c 0,22,23
 366 609 366 609 339.5 584.5 c 128,-1,24
 313 560 313 560 294.5 522 c 128,-1,25
 276 484 276 484 262.5 438.5 c 128,-1,26
 249 393 249 393 242.5 349.5 c 128,-1,27
 236 306 236 306 236 272 c 0,28,29
 236 202 236 202 267.5 167 c 128,-1,30
 299 132 299 132 365 132 c 0,31,32
 416 132 416 132 458.5 151.5 c 128,-1,33
 501 171 501 171 530 207 c 1,34,35
 556 187 556 187 556 142 c 0,36,37
 556 80 556 80 491 34 c 128,-1,38
 426 -12 426 -12 321 -19 c 1,39,-1
 309 -58 l 1,40,41
 320 -57 320 -57 342 -57 c 0,42,43
 391 -57 391 -57 421.5 -77 c 128,-1,44
 452 -97 452 -97 452 -138 c 0,45,46
 452 -190 452 -190 403.5 -224 c 128,-1,47
 355 -258 355 -258 285 -258 c 0,48,49
 241 -258 241 -258 215.5 -244 c 128,-1,50
 190 -230 190 -230 190 -205 c 0,51,52
 190 -175 190 -175 208 -158 c 1,53,54
 229 -190 229 -190 280 -190 c 0,55,56
 331 -190 331 -190 331 -147 c 0,57,58
 331 -110 331 -110 273 -110 c 0,59,60
 259 -110 259 -110 231 -112 c 1,61,-1
 259 -19 l 1,0,1
EndSplineSet
Validated: 8388609
Position2: "'cpsp' Capital Spacing lookup 3 subtable" dx=5 dy=0 dh=10 dv=0
EndChar

StartChar: Ccircumflex
Encoding: 264 264 19
Width: 603
Flags: MW
HStem: -20 152<320 368> 609 71<344 420>
VStem: 21 215<226 328 226 372> 451 174<521 536>
LayerCount: 2
UndoRedoHistory
Layer: 0
Undoes
EndUndoes
Redoes
EndRedoes
EndUndoRedoHistory
UndoRedoHistory
Layer: 1
Undoes
EndUndoes
Redoes
EndRedoes
EndUndoRedoHistory
Fore
SplineSet
424 680 m 0,0,1
 463 680 463 680 496.5 674 c 128,-1,2
 530 668 530 668 560 655.5 c 128,-1,3
 590 643 590 643 607.5 618 c 128,-1,4
 625 593 625 593 625 559 c 0,5,6
 625 504 625 504 584.5 469 c 128,-1,7
 544 434 544 434 489 434 c 0,8,9
 463 434 463 434 443 441 c 1,10,11
 451 477 451 477 451 518 c 0,12,13
 451 609 451 609 395 609 c 0,14,15
 366 609 366 609 339.5 584.5 c 128,-1,16
 313 560 313 560 294.5 522 c 128,-1,17
 276 484 276 484 262.5 438.5 c 128,-1,18
 249 393 249 393 242.5 349.5 c 128,-1,19
 236 306 236 306 236 272 c 0,20,21
 236 202 236 202 267.5 167 c 128,-1,22
 299 132 299 132 365 132 c 0,23,24
 416 132 416 132 458.5 151.5 c 128,-1,25
 501 171 501 171 530 207 c 1,26,27
 556 187 556 187 556 142 c 0,28,29
 556 75 556 75 481 27.5 c 128,-1,30
 406 -20 406 -20 286 -20 c 0,31,32
 153 -20 153 -20 87 47.5 c 128,-1,33
 21 115 21 115 21 254 c 0,34,35
 21 343 21 343 48 420.5 c 128,-1,36
 75 498 75 498 125 555.5 c 128,-1,37
 175 613 175 613 252.5 646.5 c 128,-1,38
 330 680 330 680 424 680 c 0,0,1
538 687 m 1,39,-1
 422 739 l 1,40,-1
 274 687 l 1,41,-1
 243 733 l 1,42,-1
 410 849 l 1,43,-1
 455 849 l 1,44,-1
 588 733 l 1,45,-1
 538 687 l 1,39,-1
EndSplineSet
Validated: 1
Position2: "'cpsp' Capital Spacing lookup 3 subtable" dx=5 dy=0 dh=10 dv=0
EndChar

StartChar: Cdotaccent
Encoding: 266 266 20
Width: 603
Flags: MW
HStem: -20 152<320 368> 609 71<344 420> 690 152<397 453>
VStem: 21 215<226 328 226 372> 321 205<741 790> 451 174<521 536>
LayerCount: 2
UndoRedoHistory
Layer: 0
Undoes
EndUndoes
Redoes
EndRedoes
EndUndoRedoHistory
UndoRedoHistory
Layer: 1
Undoes
EndUndoes
Redoes
EndRedoes
EndUndoRedoHistory
Fore
SplineSet
424 680 m 0,0,1
 463 680 463 680 496.5 674 c 128,-1,2
 530 668 530 668 560 655.5 c 128,-1,3
 590 643 590 643 607.5 618 c 128,-1,4
 625 593 625 593 625 559 c 0,5,6
 625 504 625 504 584.5 469 c 128,-1,7
 544 434 544 434 489 434 c 0,8,9
 463 434 463 434 443 441 c 1,10,11
 451 477 451 477 451 518 c 0,12,13
 451 609 451 609 395 609 c 0,14,15
 366 609 366 609 339.5 584.5 c 128,-1,16
 313 560 313 560 294.5 522 c 128,-1,17
 276 484 276 484 262.5 438.5 c 128,-1,18
 249 393 249 393 242.5 349.5 c 128,-1,19
 236 306 236 306 236 272 c 0,20,21
 236 202 236 202 267.5 167 c 128,-1,22
 299 132 299 132 365 132 c 0,23,24
 416 132 416 132 458.5 151.5 c 128,-1,25
 501 171 501 171 530 207 c 1,26,27
 556 187 556 187 556 142 c 0,28,29
 556 75 556 75 481 27.5 c 128,-1,30
 406 -20 406 -20 286 -20 c 0,31,32
 153 -20 153 -20 87 47.5 c 128,-1,33
 21 115 21 115 21 254 c 0,34,35
 21 343 21 343 48 420.5 c 128,-1,36
 75 498 75 498 125 555.5 c 128,-1,37
 175 613 175 613 252.5 646.5 c 128,-1,38
 330 680 330 680 424 680 c 0,0,1
427 842 m 0,39,40
 472 842 472 842 499 822 c 128,-1,41
 526 802 526 802 526 766 c 128,-1,42
 526 730 526 730 497.5 710 c 128,-1,43
 469 690 469 690 423 690 c 0,44,45
 378 690 378 690 349.5 709.5 c 128,-1,46
 321 729 321 729 321 764 c 0,47,48
 321 801 321 801 351 821.5 c 128,-1,49
 381 842 381 842 427 842 c 0,39,40
EndSplineSet
Validated: 8388609
Position2: "'cpsp' Capital Spacing lookup 3 subtable" dx=5 dy=0 dh=10 dv=0
EndChar

StartChar: D
Encoding: 68 68 21
Width: 674
Flags: MW
HStem: -20 20G<-7 -7> -5 72<247 307 247 333> 594 71<354 395>
VStem: 457 195<477 508 264 530>
LayerCount: 2
UndoRedoHistory
Layer: 0
Undoes
EndUndoes
Redoes
EndRedoes
EndUndoRedoHistory
UndoRedoHistory
Layer: 1
Undoes
EndUndoes
Redoes
EndRedoes
EndUndoRedoHistory
Fore
SplineSet
217 70 m 1,0,1
 237 67 237 67 252 67 c 0,2,3
 329 67 329 67 372.5 134.5 c 128,-1,4
 416 202 416 202 439 332 c 0,5,6
 457 432 457 432 457 495 c 0,7,8
 457 548 457 548 434.5 571 c 128,-1,9
 412 594 412 594 360 594 c 0,10,11
 341 594 341 594 318 591 c 1,12,-1
 217 70 l 1,0,1
120 660 m 1,13,14
 203 665 203 665 301 665 c 0,15,16
 365 665 365 665 412 660.5 c 128,-1,17
 459 656 459 656 500.5 644.5 c 128,-1,18
 542 633 542 633 569 614 c 128,-1,19
 596 595 596 595 615 565.5 c 128,-1,20
 634 536 634 536 643 495 c 128,-1,21
 652 454 652 454 652 400 c 0,22,23
 652 198 652 198 532 96.5 c 128,-1,24
 412 -5 412 -5 182 -5 c 0,25,26
 78 -5 78 -5 -7 0 c 1,27,-1
 120 660 l 1,13,14
EndSplineSet
Validated: 8388609
Position2: "'cpsp' Capital Spacing lookup 3 subtable" dx=5 dy=0 dh=10 dv=0
EndChar

StartChar: DZ
Encoding: 497 497 22
Width: 1212
Flags: MW
HStem: -20 20G<-7 -7> -12 172<1000 1048 1000 1064> -5 72<247 307 247 333> 501 174<851 879> 594 71<354 395> 640 20G<120 120>
VStem: 457 195<477 508 264 530>
LayerCount: 2
UndoRedoHistory
Layer: 0
Undoes
EndUndoes
Redoes
EndRedoes
EndUndoRedoHistory
UndoRedoHistory
Layer: 1
Undoes
EndUndoes
Redoes
EndRedoes
EndUndoRedoHistory
Fore
SplineSet
217 70 m 1,0,1
 237 67 237 67 252 67 c 0,2,3
 329 67 329 67 372.5 134.5 c 128,-1,4
 416 202 416 202 439 332 c 0,5,6
 457 432 457 432 457 495 c 0,7,8
 457 548 457 548 434.5 571 c 128,-1,9
 412 594 412 594 360 594 c 0,10,11
 341 594 341 594 318 591 c 1,12,-1
 217 70 l 1,0,1
120 660 m 1,13,14
 203 665 203 665 301 665 c 0,15,16
 365 665 365 665 412 660.5 c 128,-1,17
 459 656 459 656 500.5 644.5 c 128,-1,18
 542 633 542 633 569 614 c 128,-1,19
 596 595 596 595 615 565.5 c 128,-1,20
 634 536 634 536 643 495 c 128,-1,21
 652 454 652 454 652 400 c 0,22,23
 652 198 652 198 532 96.5 c 128,-1,24
 412 -5 412 -5 182 -5 c 0,25,26
 78 -5 78 -5 -7 0 c 1,27,-1
 120 660 l 1,13,14
1044 480 m 1,28,29
 905 501 905 501 868 501 c 0,30,31
 811 501 811 501 763 478 c 1,32,33
 736 520 736 520 736 567 c 0,34,35
 736 622 736 622 772.5 648.5 c 128,-1,36
 809 675 809 675 875 675 c 0,37,38
 912 675 912 675 991.5 662.5 c 128,-1,39
 1071 650 1071 650 1110 650 c 0,40,41
 1154 650 1154 650 1196 660 c 1,42,43
 1236 626 1236 626 1236 566 c 0,44,45
 1236 528 1236 528 1220 500 c 128,-1,46
 1204 472 1204 472 1169 444 c 2,47,-1
 846 181 l 1,48,49
 925 160 925 160 1026 160 c 0,50,51
 1065 160 1065 160 1092 166 c 128,-1,52
 1119 172 1119 172 1138 191 c 1,53,54
 1164 158 1164 158 1164 111 c 0,55,56
 1164 51 1164 51 1127.5 19.5 c 128,-1,57
 1091 -12 1091 -12 1002 -12 c 0,58,59
 951 -12 951 -12 868 1.5 c 128,-1,60
 785 15 785 15 759 15 c 0,61,62
 724 15 724 15 707 0 c 1,63,64
 691 14 691 14 679.5 43.5 c 128,-1,65
 668 73 668 73 668 103 c 0,66,67
 668 165 668 165 729 217 c 2,68,-1
 1044 480 l 1,28,29
EndSplineSet
Validated: 8388609
Position2: "'cpsp' Capital Spacing lookup 3 subtable" dx=5 dy=0 dh=10 dv=0
EndChar

StartChar: DZcaron
Encoding: 452 452 23
Width: 1212
Flags: MW
HStem: -20 20G<-7 -7> -12 172<1000 1048 1000 1064> -5 72<247 307 247 333> 501 174<851 879> 594 71<354 395> 640 20G<120 120>
VStem: 457 195<477 508 264 530>
LayerCount: 2
UndoRedoHistory
Layer: 0
Undoes
EndUndoes
Redoes
EndRedoes
EndUndoRedoHistory
UndoRedoHistory
Layer: 1
Undoes
EndUndoes
Redoes
EndRedoes
EndUndoRedoHistory
Fore
SplineSet
217 70 m 1,0,1
 237 67 237 67 252 67 c 0,2,3
 329 67 329 67 372.5 134.5 c 128,-1,4
 416 202 416 202 439 332 c 0,5,6
 457 432 457 432 457 495 c 0,7,8
 457 548 457 548 434.5 571 c 128,-1,9
 412 594 412 594 360 594 c 0,10,11
 341 594 341 594 318 591 c 1,12,-1
 217 70 l 1,0,1
120 660 m 1,13,14
 203 665 203 665 301 665 c 0,15,16
 365 665 365 665 412 660.5 c 128,-1,17
 459 656 459 656 500.5 644.5 c 128,-1,18
 542 633 542 633 569 614 c 128,-1,19
 596 595 596 595 615 565.5 c 128,-1,20
 634 536 634 536 643 495 c 128,-1,21
 652 454 652 454 652 400 c 0,22,23
 652 198 652 198 532 96.5 c 128,-1,24
 412 -5 412 -5 182 -5 c 0,25,26
 78 -5 78 -5 -7 0 c 1,27,-1
 120 660 l 1,13,14
1044 480 m 1,28,29
 905 501 905 501 868 501 c 0,30,31
 811 501 811 501 763 478 c 1,32,33
 736 520 736 520 736 567 c 0,34,35
 736 622 736 622 772.5 648.5 c 128,-1,36
 809 675 809 675 875 675 c 0,37,38
 912 675 912 675 991.5 662.5 c 128,-1,39
 1071 650 1071 650 1110 650 c 0,40,41
 1154 650 1154 650 1196 660 c 1,42,43
 1236 626 1236 626 1236 566 c 0,44,45
 1236 528 1236 528 1220 500 c 128,-1,46
 1204 472 1204 472 1169 444 c 2,47,-1
 846 181 l 1,48,49
 925 160 925 160 1026 160 c 0,50,51
 1065 160 1065 160 1092 166 c 128,-1,52
 1119 172 1119 172 1138 191 c 1,53,54
 1164 158 1164 158 1164 111 c 0,55,56
 1164 51 1164 51 1127.5 19.5 c 128,-1,57
 1091 -12 1091 -12 1002 -12 c 0,58,59
 951 -12 951 -12 868 1.5 c 128,-1,60
 785 15 785 15 759 15 c 0,61,62
 724 15 724 15 707 0 c 1,63,64
 691 14 691 14 679.5 43.5 c 128,-1,65
 668 73 668 73 668 103 c 0,66,67
 668 165 668 165 729 217 c 2,68,-1
 1044 480 l 1,28,29
896 854 m 1,69,-1
 1013 802 l 1,70,-1
 1161 854 l 1,71,-1
 1192 808 l 1,72,-1
 1035 692 l 1,73,-1
 969 692 l 1,74,-1
 846 808 l 1,75,-1
 896 854 l 1,69,-1
EndSplineSet
Validated: 8388609
Position2: "'cpsp' Capital Spacing lookup 3 subtable" dx=5 dy=0 dh=10 dv=0
EndChar

StartChar: Eth
Encoding: 208 208 24
Width: 674
Flags: MW
HStem: -20 20G<-7 -7> -5 72<247 307 247 333> 291 92<45 49 -20 67 278 294> 594 71<354 395>
VStem: 457 195<477 508 264 530>
LayerCount: 2
UndoRedoHistory
Layer: 0
Undoes
EndUndoes
Redoes
EndRedoes
EndUndoRedoHistory
UndoRedoHistory
Layer: 1
Undoes
EndUndoes
Redoes
EndRedoes
EndUndoRedoHistory
Fore
SplineSet
217 70 m 1,0,1
 237 67 237 67 252 67 c 0,2,3
 329 67 329 67 372.5 134.5 c 128,-1,4
 416 202 416 202 439 332 c 0,5,6
 457 432 457 432 457 495 c 0,7,8
 457 548 457 548 434.5 571 c 128,-1,9
 412 594 412 594 360 594 c 0,10,11
 341 594 341 594 318 591 c 1,12,-1
 278 383 l 1,13,-1
 366 383 l 1,14,15
 370 367 370 367 370 355 c 0,16,17
 370 327 370 327 350.5 309 c 128,-1,18
 331 291 331 291 294 291 c 2,19,-1
 260 291 l 1,20,-1
 217 70 l 1,0,1
120 660 m 1,21,22
 203 665 203 665 301 665 c 0,23,24
 365 665 365 665 412 660.5 c 128,-1,25
 459 656 459 656 500.5 644.5 c 128,-1,26
 542 633 542 633 569 614 c 128,-1,27
 596 595 596 595 615 565.5 c 128,-1,28
 634 536 634 536 643 495 c 128,-1,29
 652 454 652 454 652 400 c 0,30,31
 652 198 652 198 532 96.5 c 128,-1,32
 412 -5 412 -5 182 -5 c 0,33,34
 78 -5 78 -5 -7 0 c 1,35,-1
 49 291 l 1,36,-1
 -20 291 l 1,37,38
 -23 300 -23 300 -23 318 c 0,39,40
 -23 347 -23 347 -3.5 365 c 128,-1,41
 16 383 16 383 45 383 c 2,42,-1
 67 383 l 1,43,-1
 120 660 l 1,21,22
EndSplineSet
Validated: 8388609
Position2: "'cpsp' Capital Spacing lookup 3 subtable" dx=5 dy=0 dh=10 dv=0
EndChar

StartChar: Dcaron
Encoding: 270 270 25
Width: 674
Flags: MW
HStem: -20 20G<-7 -7> -5 72<247 307 247 333> 594 71<354 395>
VStem: 457 195<477 508 264 530>
LayerCount: 2
UndoRedoHistory
Layer: 0
Undoes
EndUndoes
Redoes
EndRedoes
EndUndoRedoHistory
UndoRedoHistory
Layer: 1
Undoes
EndUndoes
Redoes
EndRedoes
EndUndoRedoHistory
Fore
SplineSet
217 70 m 1,0,1
 237 67 237 67 252 67 c 0,2,3
 329 67 329 67 372.5 134.5 c 128,-1,4
 416 202 416 202 439 332 c 0,5,6
 457 432 457 432 457 495 c 0,7,8
 457 548 457 548 434.5 571 c 128,-1,9
 412 594 412 594 360 594 c 0,10,11
 341 594 341 594 318 591 c 1,12,-1
 217 70 l 1,0,1
120 660 m 1,13,14
 203 665 203 665 301 665 c 0,15,16
 365 665 365 665 412 660.5 c 128,-1,17
 459 656 459 656 500.5 644.5 c 128,-1,18
 542 633 542 633 569 614 c 128,-1,19
 596 595 596 595 615 565.5 c 128,-1,20
 634 536 634 536 643 495 c 128,-1,21
 652 454 652 454 652 400 c 0,22,23
 652 198 652 198 532 96.5 c 128,-1,24
 412 -5 412 -5 182 -5 c 0,25,26
 78 -5 78 -5 -7 0 c 1,27,-1
 120 660 l 1,13,14
281 854 m 1,28,-1
 398 802 l 1,29,-1
 546 854 l 1,30,-1
 577 808 l 1,31,-1
 420 692 l 1,32,-1
 354 692 l 1,33,-1
 231 808 l 1,34,-1
 281 854 l 1,28,-1
EndSplineSet
Validated: 8388609
Position2: "'cpsp' Capital Spacing lookup 3 subtable" dx=5 dy=0 dh=10 dv=0
EndChar

StartChar: Dcroat
Encoding: 272 272 26
Width: 674
Flags: MW
HStem: -20 20G<-7 -7> -5 72<247 307 247 333> 291 92<45 49 -20 67 278 294> 594 71<354 395>
VStem: 457 195<477 508 264 530>
LayerCount: 2
UndoRedoHistory
Layer: 0
Undoes
EndUndoes
Redoes
EndRedoes
EndUndoRedoHistory
UndoRedoHistory
Layer: 1
Undoes
EndUndoes
Redoes
EndRedoes
EndUndoRedoHistory
Fore
SplineSet
217 70 m 1,0,1
 237 67 237 67 252 67 c 0,2,3
 329 67 329 67 372.5 134.5 c 128,-1,4
 416 202 416 202 439 332 c 0,5,6
 457 432 457 432 457 495 c 0,7,8
 457 548 457 548 434.5 571 c 128,-1,9
 412 594 412 594 360 594 c 0,10,11
 341 594 341 594 318 591 c 1,12,-1
 278 383 l 1,13,-1
 366 383 l 1,14,15
 370 367 370 367 370 355 c 0,16,17
 370 327 370 327 350.5 309 c 128,-1,18
 331 291 331 291 294 291 c 2,19,-1
 260 291 l 1,20,-1
 217 70 l 1,0,1
120 660 m 1,21,22
 203 665 203 665 301 665 c 0,23,24
 365 665 365 665 412 660.5 c 128,-1,25
 459 656 459 656 500.5 644.5 c 128,-1,26
 542 633 542 633 569 614 c 128,-1,27
 596 595 596 595 615 565.5 c 128,-1,28
 634 536 634 536 643 495 c 128,-1,29
 652 454 652 454 652 400 c 0,30,31
 652 198 652 198 532 96.5 c 128,-1,32
 412 -5 412 -5 182 -5 c 0,33,34
 78 -5 78 -5 -7 0 c 1,35,-1
 49 291 l 1,36,-1
 -20 291 l 1,37,38
 -23 300 -23 300 -23 318 c 0,39,40
 -23 347 -23 347 -3.5 365 c 128,-1,41
 16 383 16 383 45 383 c 2,42,-1
 67 383 l 1,43,-1
 120 660 l 1,21,22
EndSplineSet
Validated: 8388609
Position2: "'cpsp' Capital Spacing lookup 3 subtable" dx=5 dy=0 dh=10 dv=0
EndChar

StartChar: Ddotbelow
Encoding: 7692 7692 27
Width: 674
Flags: MW
HStem: -194 152<215 271> -20 20G<-7 -7> -5 72<247 307 247 333> 594 71<354 395>
VStem: 139 206<-143 -95> 457 195<477 508 264 530>
LayerCount: 2
UndoRedoHistory
Layer: 0
Undoes
EndUndoes
Redoes
EndRedoes
EndUndoRedoHistory
UndoRedoHistory
Layer: 1
Undoes
EndUndoes
Redoes
EndRedoes
EndUndoRedoHistory
Fore
SplineSet
245 -42 m 0,0,1
 290 -42 290 -42 317.5 -62 c 128,-1,2
 345 -82 345 -82 345 -118 c 128,-1,3
 345 -154 345 -154 316 -174 c 128,-1,4
 287 -194 287 -194 241 -194 c 0,5,6
 196 -194 196 -194 167.5 -174.5 c 128,-1,7
 139 -155 139 -155 139 -120 c 0,8,9
 139 -83 139 -83 169 -62.5 c 128,-1,10
 199 -42 199 -42 245 -42 c 0,0,1
217 70 m 1,11,12
 237 67 237 67 252 67 c 0,13,14
 329 67 329 67 372.5 134.5 c 128,-1,15
 416 202 416 202 439 332 c 0,16,17
 457 432 457 432 457 495 c 0,18,19
 457 548 457 548 434.5 571 c 128,-1,20
 412 594 412 594 360 594 c 0,21,22
 341 594 341 594 318 591 c 1,23,-1
 217 70 l 1,11,12
120 660 m 1,24,25
 203 665 203 665 301 665 c 0,26,27
 365 665 365 665 412 660.5 c 128,-1,28
 459 656 459 656 500.5 644.5 c 128,-1,29
 542 633 542 633 569 614 c 128,-1,30
 596 595 596 595 615 565.5 c 128,-1,31
 634 536 634 536 643 495 c 128,-1,32
 652 454 652 454 652 400 c 0,33,34
 652 198 652 198 532 96.5 c 128,-1,35
 412 -5 412 -5 182 -5 c 0,36,37
 78 -5 78 -5 -7 0 c 1,38,-1
 120 660 l 1,24,25
EndSplineSet
Validated: 8388609
Position2: "'cpsp' Capital Spacing lookup 3 subtable" dx=5 dy=0 dh=10 dv=0
EndChar

StartChar: Dz
Encoding: 498 498 28
Width: 1126
Flags: MW
HStem: -20 20 -20 165<953 988 953 1008> -5 72<247 307 247 333> 375 155<817 858> 496 20G 594 71<354 395>
VStem: 457 195<477 508 264 530>
LayerCount: 2
UndoRedoHistory
Layer: 0
Undoes
EndUndoes
Redoes
EndRedoes
EndUndoRedoHistory
UndoRedoHistory
Layer: 1
Undoes
EndUndoes
Redoes
EndRedoes
EndUndoRedoHistory
Fore
SplineSet
972 355 m 1,0,1
 902 375 902 375 841 375 c 0,2,3
 772 375 772 375 749 331 c 1,4,5
 733 350 733 350 724 377 c 128,-1,6
 715 404 715 404 715 431 c 0,7,8
 715 483 715 483 749 506.5 c 128,-1,9
 783 530 783 530 840 530 c 0,10,11
 875 530 875 530 955.5 517.5 c 128,-1,12
 1036 505 1036 505 1066 505 c 0,13,14
 1102 505 1102 505 1122 516 c 1,15,16
 1148 491 1148 491 1148 456 c 0,17,18
 1148 400 1148 400 1085 354 c 1,19,-1
 838 168 l 1,20,21
 916 145 916 145 970 145 c 0,22,23
 1040 145 1040 145 1076 185 c 1,24,25
 1104 153 1104 153 1104 102 c 0,26,27
 1104 42 1104 42 1067 11 c 128,-1,28
 1030 -20 1030 -20 968 -20 c 0,29,30
 933 -20 933 -20 864 -5.5 c 128,-1,31
 795 9 795 9 762 9 c 0,32,33
 731 9 731 9 699 -1 c 1,34,35
 665 21 665 21 665 68 c 0,36,37
 665 129 665 129 725 176 c 1,38,-1
 972 355 l 1,0,1
217 70 m 1,39,40
 237 67 237 67 252 67 c 0,41,42
 329 67 329 67 372.5 134.5 c 128,-1,43
 416 202 416 202 439 332 c 0,44,45
 457 432 457 432 457 495 c 0,46,47
 457 548 457 548 434.5 571 c 128,-1,48
 412 594 412 594 360 594 c 0,49,50
 341 594 341 594 318 591 c 1,51,-1
 217 70 l 1,39,40
120 660 m 1,52,53
 203 665 203 665 301 665 c 0,54,55
 365 665 365 665 412 660.5 c 128,-1,56
 459 656 459 656 500.5 644.5 c 128,-1,57
 542 633 542 633 569 614 c 128,-1,58
 596 595 596 595 615 565.5 c 128,-1,59
 634 536 634 536 643 495 c 128,-1,60
 652 454 652 454 652 400 c 0,61,62
 652 198 652 198 532 96.5 c 128,-1,63
 412 -5 412 -5 182 -5 c 0,64,65
 78 -5 78 -5 -7 0 c 1,66,-1
 120 660 l 1,52,53
EndSplineSet
Validated: 8388609
Position2: "'cpsp' Capital Spacing lookup 3 subtable" dx=5 dy=0 dh=10 dv=0
EndChar

StartChar: Dzcaron
Encoding: 453 453 29
Width: 1126
Flags: MW
HStem: -20 20 -20 165<953 988 953 1008> -5 72<247 307 247 333> 375 155<817 858> 496 20G 594 71<354 395> 684 20G<861 861 1126 1126>
VStem: 457 195<477 508 264 530>
LayerCount: 2
UndoRedoHistory
Layer: 0
Undoes
EndUndoes
Redoes
EndRedoes
EndUndoRedoHistory
UndoRedoHistory
Layer: 1
Undoes
EndUndoes
Redoes
EndRedoes
EndUndoRedoHistory
Fore
SplineSet
972 355 m 1,0,1
 902 375 902 375 841 375 c 0,2,3
 772 375 772 375 749 331 c 1,4,5
 733 350 733 350 724 377 c 128,-1,6
 715 404 715 404 715 431 c 0,7,8
 715 483 715 483 749 506.5 c 128,-1,9
 783 530 783 530 840 530 c 0,10,11
 875 530 875 530 955.5 517.5 c 128,-1,12
 1036 505 1036 505 1066 505 c 0,13,14
 1102 505 1102 505 1122 516 c 1,15,16
 1148 491 1148 491 1148 456 c 0,17,18
 1148 400 1148 400 1085 354 c 1,19,-1
 838 168 l 1,20,21
 916 145 916 145 970 145 c 0,22,23
 1040 145 1040 145 1076 185 c 1,24,25
 1104 153 1104 153 1104 102 c 0,26,27
 1104 42 1104 42 1067 11 c 128,-1,28
 1030 -20 1030 -20 968 -20 c 0,29,30
 933 -20 933 -20 864 -5.5 c 128,-1,31
 795 9 795 9 762 9 c 0,32,33
 731 9 731 9 699 -1 c 1,34,35
 665 21 665 21 665 68 c 0,36,37
 665 129 665 129 725 176 c 1,38,-1
 972 355 l 1,0,1
217 70 m 1,39,40
 237 67 237 67 252 67 c 0,41,42
 329 67 329 67 372.5 134.5 c 128,-1,43
 416 202 416 202 439 332 c 0,44,45
 457 432 457 432 457 495 c 0,46,47
 457 548 457 548 434.5 571 c 128,-1,48
 412 594 412 594 360 594 c 0,49,50
 341 594 341 594 318 591 c 1,51,-1
 217 70 l 1,39,40
120 660 m 1,52,53
 203 665 203 665 301 665 c 0,54,55
 365 665 365 665 412 660.5 c 128,-1,56
 459 656 459 656 500.5 644.5 c 128,-1,57
 542 633 542 633 569 614 c 128,-1,58
 596 595 596 595 615 565.5 c 128,-1,59
 634 536 634 536 643 495 c 128,-1,60
 652 454 652 454 652 400 c 0,61,62
 652 198 652 198 532 96.5 c 128,-1,63
 412 -5 412 -5 182 -5 c 0,64,65
 78 -5 78 -5 -7 0 c 1,66,-1
 120 660 l 1,52,53
861 704 m 1,67,-1
 978 652 l 1,68,-1
 1126 704 l 1,69,-1
 1157 658 l 1,70,-1
 1000 542 l 1,71,-1
 934 542 l 1,72,-1
 811 658 l 1,73,-1
 861 704 l 1,67,-1
EndSplineSet
Validated: 8388609
Position2: "'cpsp' Capital Spacing lookup 3 subtable" dx=5 dy=0 dh=10 dv=0
EndChar

StartChar: E
Encoding: 69 69 30
Width: 495
Flags: MW
HStem: 0 120<234 312> 275 112<336 395> 535 125<405 472> 562 98<316 316>
VStem: -3 553
LayerCount: 2
UndoRedoHistory
Layer: 0
Undoes
EndUndoes
Redoes
EndRedoes
EndUndoRedoHistory
UndoRedoHistory
Layer: 1
Undoes
EndUndoes
Redoes
EndRedoes
EndUndoRedoHistory
Fore
SplineSet
550 660 m 1,0,1
 550 535 550 535 432 535 c 0,2,3
 374 535 374 535 316 562 c 1,4,-1
 285 387 l 1,5,-1
 463 387 l 1,6,7
 463 334 463 334 437 304.5 c 128,-1,8
 411 275 411 275 360 275 c 0,9,10
 339 275 339 275 316.5 280 c 128,-1,11
 294 285 294 285 282 290 c 128,-1,12
 270 295 270 295 267 298 c 1,13,-1
 234 120 l 1,14,-1
 323 120 l 2,15,16
 390 120 390 120 422 130 c 1,17,18
 436 111 436 111 436 75 c 0,19,20
 436 0 436 0 312 0 c 2,21,-1
 -3 0 l 1,22,-1
 120 660 l 1,23,-1
 550 660 l 1,0,1
EndSplineSet
Validated: 8388609
Position2: "'cpsp' Capital Spacing lookup 3 subtable" dx=5 dy=0 dh=10 dv=0
EndChar

StartChar: Eacute
Encoding: 201 201 31
Width: 495
Flags: MW
HStem: 0 120<234 312> 275 112<336 395> 535 125<405 472> 562 98<316 316>
VStem: -3 553
LayerCount: 2
UndoRedoHistory
Layer: 0
Undoes
EndUndoes
Redoes
EndRedoes
EndUndoRedoHistory
UndoRedoHistory
Layer: 1
Undoes
EndUndoes
Redoes
EndRedoes
EndUndoRedoHistory
Fore
SplineSet
550 660 m 1,0,1
 550 535 550 535 432 535 c 0,2,3
 374 535 374 535 316 562 c 1,4,-1
 285 387 l 1,5,-1
 463 387 l 1,6,7
 463 334 463 334 437 304.5 c 128,-1,8
 411 275 411 275 360 275 c 0,9,10
 339 275 339 275 316.5 280 c 128,-1,11
 294 285 294 285 282 290 c 128,-1,12
 270 295 270 295 267 298 c 1,13,-1
 234 120 l 1,14,-1
 323 120 l 2,15,16
 390 120 390 120 422 130 c 1,17,18
 436 111 436 111 436 75 c 0,19,20
 436 0 436 0 312 0 c 2,21,-1
 -3 0 l 1,22,-1
 120 660 l 1,23,-1
 550 660 l 1,0,1
265 759 m 1,24,-1
 510 861 l 1,25,26
 538 840 538 840 538 807 c 0,27,28
 538 782 538 782 526.5 764 c 128,-1,29
 515 746 515 746 494.5 735.5 c 128,-1,30
 474 725 474 725 449.5 720 c 128,-1,31
 425 715 425 715 396 714 c 2,32,-1
 277 710 l 1,33,-1
 265 759 l 1,24,-1
EndSplineSet
Validated: 8388609
Position2: "'cpsp' Capital Spacing lookup 3 subtable" dx=5 dy=0 dh=10 dv=0
EndChar

StartChar: Ebreve
Encoding: 276 276 32
Width: 495
Flags: MW
HStem: 0 120<234 312> 275 112<336 395> 535 125<405 472> 562 98<316 316> 701 49<342 384 342 419>
VStem: 176 148<789 802 789 812>
LayerCount: 2
UndoRedoHistory
Layer: 0
Undoes
EndUndoes
Redoes
EndRedoes
EndUndoRedoHistory
UndoRedoHistory
Layer: 1
Undoes
EndUndoes
Redoes
EndRedoes
EndUndoRedoHistory
Fore
SplineSet
550 660 m 1,0,1
 550 535 550 535 432 535 c 0,2,3
 374 535 374 535 316 562 c 1,4,-1
 285 387 l 1,5,-1
 463 387 l 1,6,7
 463 334 463 334 437 304.5 c 128,-1,8
 411 275 411 275 360 275 c 0,9,10
 339 275 339 275 316.5 280 c 128,-1,11
 294 285 294 285 282 290 c 128,-1,12
 270 295 270 295 267 298 c 1,13,-1
 234 120 l 1,14,-1
 323 120 l 2,15,16
 390 120 390 120 422 130 c 1,17,18
 436 111 436 111 436 75 c 0,19,20
 436 0 436 0 312 0 c 2,21,-1
 -3 0 l 1,22,-1
 120 660 l 1,23,-1
 550 660 l 1,0,1
328 834 m 1,24,25
 324 806 324 806 324 796 c 0,26,27
 324 788 324 788 325 782 c 128,-1,28
 326 776 326 776 329 767.5 c 128,-1,29
 332 759 332 759 340 754.5 c 128,-1,30
 348 750 348 750 360 750 c 0,31,32
 374 750 374 750 385 756 c 128,-1,33
 396 762 396 762 402 768 c 128,-1,34
 408 774 408 774 413.5 789 c 128,-1,35
 419 804 419 804 421 810.5 c 128,-1,36
 423 817 423 817 427 834 c 1,37,-1
 571 834 l 1,38,39
 558 774 558 774 503 737.5 c 128,-1,40
 448 701 448 701 350 701 c 0,41,42
 267 701 267 701 221.5 731.5 c 128,-1,43
 176 762 176 762 176 807 c 0,44,45
 176 817 176 817 179 834 c 1,46,-1
 328 834 l 1,24,25
EndSplineSet
Validated: 8388609
Position2: "'cpsp' Capital Spacing lookup 3 subtable" dx=5 dy=0 dh=10 dv=0
EndChar

StartChar: Ecaron
Encoding: 282 282 33
Width: 495
Flags: MW
HStem: 0 120<234 312> 275 112<336 395> 535 125<405 472> 562 98<316 316>
VStem: -3 553
LayerCount: 2
UndoRedoHistory
Layer: 0
Undoes
EndUndoes
Redoes
EndRedoes
EndUndoRedoHistory
UndoRedoHistory
Layer: 1
Undoes
EndUndoes
Redoes
EndRedoes
EndUndoRedoHistory
Fore
SplineSet
550 660 m 1,0,1
 550 535 550 535 432 535 c 0,2,3
 374 535 374 535 316 562 c 1,4,-1
 285 387 l 1,5,-1
 463 387 l 1,6,7
 463 334 463 334 437 304.5 c 128,-1,8
 411 275 411 275 360 275 c 0,9,10
 339 275 339 275 316.5 280 c 128,-1,11
 294 285 294 285 282 290 c 128,-1,12
 270 295 270 295 267 298 c 1,13,-1
 234 120 l 1,14,-1
 323 120 l 2,15,16
 390 120 390 120 422 130 c 1,17,18
 436 111 436 111 436 75 c 0,19,20
 436 0 436 0 312 0 c 2,21,-1
 -3 0 l 1,22,-1
 120 660 l 1,23,-1
 550 660 l 1,0,1
251 854 m 1,24,-1
 368 802 l 1,25,-1
 516 854 l 1,26,-1
 547 808 l 1,27,-1
 390 692 l 1,28,-1
 324 692 l 1,29,-1
 201 808 l 1,30,-1
 251 854 l 1,24,-1
EndSplineSet
Validated: 8388609
Position2: "'cpsp' Capital Spacing lookup 3 subtable" dx=5 dy=0 dh=10 dv=0
EndChar

StartChar: Ecircumflex
Encoding: 202 202 34
Width: 495
Flags: MW
HStem: 0 120<234 312> 275 112<336 395> 535 125<405 472> 562 98<316 316>
VStem: -3 553
LayerCount: 2
UndoRedoHistory
Layer: 0
Undoes
EndUndoes
Redoes
EndRedoes
EndUndoRedoHistory
UndoRedoHistory
Layer: 1
Undoes
EndUndoes
Redoes
EndRedoes
EndUndoRedoHistory
Fore
SplineSet
550 660 m 1,0,1
 550 535 550 535 432 535 c 0,2,3
 374 535 374 535 316 562 c 1,4,-1
 285 387 l 1,5,-1
 463 387 l 1,6,7
 463 334 463 334 437 304.5 c 128,-1,8
 411 275 411 275 360 275 c 0,9,10
 339 275 339 275 316.5 280 c 128,-1,11
 294 285 294 285 282 290 c 128,-1,12
 270 295 270 295 267 298 c 1,13,-1
 234 120 l 1,14,-1
 323 120 l 2,15,16
 390 120 390 120 422 130 c 1,17,18
 436 111 436 111 436 75 c 0,19,20
 436 0 436 0 312 0 c 2,21,-1
 -3 0 l 1,22,-1
 120 660 l 1,23,-1
 550 660 l 1,0,1
469 687 m 1,24,-1
 353 739 l 1,25,-1
 205 687 l 1,26,-1
 174 733 l 1,27,-1
 341 849 l 1,28,-1
 386 849 l 1,29,-1
 519 733 l 1,30,-1
 469 687 l 1,24,-1
EndSplineSet
Validated: 8388609
Position2: "'cpsp' Capital Spacing lookup 3 subtable" dx=5 dy=0 dh=10 dv=0
EndChar

StartChar: Edieresis
Encoding: 203 203 35
Width: 495
Flags: MW
HStem: 0 120<234 312> 275 112<336 395> 535 125<405 472> 562 98<316 316> 690 152<215 271 450 504>
VStem: -3 581 139 205<741 790> 373 205<741 790>
LayerCount: 2
UndoRedoHistory
Layer: 0
Undoes
EndUndoes
Redoes
EndRedoes
EndUndoRedoHistory
UndoRedoHistory
Layer: 1
Undoes
EndUndoes
Redoes
EndRedoes
EndUndoRedoHistory
Fore
SplineSet
550 660 m 1,0,1
 550 535 550 535 432 535 c 0,2,3
 374 535 374 535 316 562 c 1,4,-1
 285 387 l 1,5,-1
 463 387 l 1,6,7
 463 334 463 334 437 304.5 c 128,-1,8
 411 275 411 275 360 275 c 0,9,10
 339 275 339 275 316.5 280 c 128,-1,11
 294 285 294 285 282 290 c 128,-1,12
 270 295 270 295 267 298 c 1,13,-1
 234 120 l 1,14,-1
 323 120 l 2,15,16
 390 120 390 120 422 130 c 1,17,18
 436 111 436 111 436 75 c 0,19,20
 436 0 436 0 312 0 c 2,21,-1
 -3 0 l 1,22,-1
 120 660 l 1,23,-1
 550 660 l 1,0,1
479 842 m 0,24,25
 524 842 524 842 551 822 c 128,-1,26
 578 802 578 802 578 766 c 128,-1,27
 578 730 578 730 549.5 710 c 128,-1,28
 521 690 521 690 475 690 c 0,29,30
 430 690 430 690 401.5 709.5 c 128,-1,31
 373 729 373 729 373 764 c 0,32,33
 373 801 373 801 403 821.5 c 128,-1,34
 433 842 433 842 479 842 c 0,24,25
245 842 m 0,35,36
 290 842 290 842 317 822 c 128,-1,37
 344 802 344 802 344 766 c 128,-1,38
 344 730 344 730 315.5 710 c 128,-1,39
 287 690 287 690 241 690 c 0,40,41
 196 690 196 690 167.5 709.5 c 128,-1,42
 139 729 139 729 139 764 c 0,43,44
 139 801 139 801 169 821.5 c 128,-1,45
 199 842 199 842 245 842 c 0,35,36
EndSplineSet
Validated: 8388609
Position2: "'cpsp' Capital Spacing lookup 3 subtable" dx=5 dy=0 dh=10 dv=0
EndChar

StartChar: Edotaccent
Encoding: 278 278 36
Width: 495
Flags: MW
HStem: 0 120<234 312> 275 112<336 395> 535 125<405 472> 562 98<316 316> 690 152<328 382>
VStem: -3 553 251 205<741 790>
LayerCount: 2
UndoRedoHistory
Layer: 0
Undoes
EndUndoes
Redoes
EndRedoes
EndUndoRedoHistory
UndoRedoHistory
Layer: 1
Undoes
EndUndoes
Redoes
EndRedoes
EndUndoRedoHistory
Fore
SplineSet
550 660 m 1,0,1
 550 535 550 535 432 535 c 0,2,3
 374 535 374 535 316 562 c 1,4,-1
 285 387 l 1,5,-1
 463 387 l 1,6,7
 463 334 463 334 437 304.5 c 128,-1,8
 411 275 411 275 360 275 c 0,9,10
 339 275 339 275 316.5 280 c 128,-1,11
 294 285 294 285 282 290 c 128,-1,12
 270 295 270 295 267 298 c 1,13,-1
 234 120 l 1,14,-1
 323 120 l 2,15,16
 390 120 390 120 422 130 c 1,17,18
 436 111 436 111 436 75 c 0,19,20
 436 0 436 0 312 0 c 2,21,-1
 -3 0 l 1,22,-1
 120 660 l 1,23,-1
 550 660 l 1,0,1
357 842 m 0,24,25
 402 842 402 842 429 822 c 128,-1,26
 456 802 456 802 456 766 c 128,-1,27
 456 730 456 730 427.5 710 c 128,-1,28
 399 690 399 690 353 690 c 0,29,30
 308 690 308 690 279.5 709.5 c 128,-1,31
 251 729 251 729 251 764 c 0,32,33
 251 801 251 801 281 821.5 c 128,-1,34
 311 842 311 842 357 842 c 0,24,25
EndSplineSet
Validated: 8388609
Position2: "'cpsp' Capital Spacing lookup 3 subtable" dx=5 dy=0 dh=10 dv=0
EndChar

StartChar: Edotbelow
Encoding: 7864 7864 37
Width: 495
Flags: MW
HStem: -194 152<173 229> 0 120<234 312> 275 112<336 395> 535 125<405 472> 562 98<316 316>
VStem: -3 553 97 206<-143 -95>
LayerCount: 2
UndoRedoHistory
Layer: 0
Undoes
EndUndoes
Redoes
EndRedoes
EndUndoRedoHistory
UndoRedoHistory
Layer: 1
Undoes
EndUndoes
Redoes
EndRedoes
EndUndoRedoHistory
Fore
SplineSet
203 -42 m 0,0,1
 248 -42 248 -42 275.5 -62 c 128,-1,2
 303 -82 303 -82 303 -118 c 128,-1,3
 303 -154 303 -154 274 -174 c 128,-1,4
 245 -194 245 -194 199 -194 c 0,5,6
 154 -194 154 -194 125.5 -174.5 c 128,-1,7
 97 -155 97 -155 97 -120 c 0,8,9
 97 -83 97 -83 127 -62.5 c 128,-1,10
 157 -42 157 -42 203 -42 c 0,0,1
550 660 m 1,11,12
 550 535 550 535 432 535 c 0,13,14
 374 535 374 535 316 562 c 1,15,-1
 285 387 l 1,16,-1
 463 387 l 1,17,18
 463 334 463 334 437 304.5 c 128,-1,19
 411 275 411 275 360 275 c 0,20,21
 339 275 339 275 316.5 280 c 128,-1,22
 294 285 294 285 282 290 c 128,-1,23
 270 295 270 295 267 298 c 1,24,-1
 234 120 l 1,25,-1
 323 120 l 2,26,27
 390 120 390 120 422 130 c 1,28,29
 436 111 436 111 436 75 c 0,30,31
 436 0 436 0 312 0 c 2,32,-1
 -3 0 l 1,33,-1
 120 660 l 1,34,-1
 550 660 l 1,11,12
EndSplineSet
Validated: 8388609
Position2: "'cpsp' Capital Spacing lookup 3 subtable" dx=5 dy=0 dh=10 dv=0
EndChar

StartChar: Egrave
Encoding: 200 200 38
Width: 495
Flags: MW
HStem: 0 120<234 312> 275 112<336 395> 535 125<405 472> 562 98<316 316>
VStem: -3 553
LayerCount: 2
UndoRedoHistory
Layer: 0
Undoes
EndUndoes
Redoes
EndRedoes
EndUndoRedoHistory
UndoRedoHistory
Layer: 1
Undoes
EndUndoes
Redoes
EndRedoes
EndUndoRedoHistory
Fore
SplineSet
550 660 m 1,0,1
 550 535 550 535 432 535 c 0,2,3
 374 535 374 535 316 562 c 1,4,-1
 285 387 l 1,5,-1
 463 387 l 1,6,7
 463 334 463 334 437 304.5 c 128,-1,8
 411 275 411 275 360 275 c 0,9,10
 339 275 339 275 316.5 280 c 128,-1,11
 294 285 294 285 282 290 c 128,-1,12
 270 295 270 295 267 298 c 1,13,-1
 234 120 l 1,14,-1
 323 120 l 2,15,16
 390 120 390 120 422 130 c 1,17,18
 436 111 436 111 436 75 c 0,19,20
 436 0 436 0 312 0 c 2,21,-1
 -3 0 l 1,22,-1
 120 660 l 1,23,-1
 550 660 l 1,0,1
450 711 m 1,24,-1
 331 715 l 2,25,26
 302 716 302 716 277.5 721 c 128,-1,27
 253 726 253 726 232.5 736.5 c 128,-1,28
 212 747 212 747 200.5 765 c 128,-1,29
 189 783 189 783 189 808 c 0,30,31
 189 841 189 841 217 862 c 1,32,-1
 462 760 l 1,33,-1
 450 711 l 1,24,-1
EndSplineSet
Validated: 8388609
Position2: "'cpsp' Capital Spacing lookup 3 subtable" dx=5 dy=0 dh=10 dv=0
EndChar

StartChar: Emacron
Encoding: 274 274 39
Width: 495
Flags: MW
HStem: 0 120<234 312> 275 112<336 395> 535 125<405 472> 562 98<316 316> 740 92<267 436 202 508>
VStem: -3 553
LayerCount: 2
UndoRedoHistory
Layer: 0
Undoes
EndUndoes
Redoes
EndRedoes
EndUndoRedoHistory
UndoRedoHistory
Layer: 1
Undoes
EndUndoes
Redoes
EndRedoes
EndUndoRedoHistory
Fore
SplineSet
550 660 m 1,0,1
 550 535 550 535 432 535 c 0,2,3
 374 535 374 535 316 562 c 1,4,-1
 285 387 l 1,5,-1
 463 387 l 1,6,7
 463 334 463 334 437 304.5 c 128,-1,8
 411 275 411 275 360 275 c 0,9,10
 339 275 339 275 316.5 280 c 128,-1,11
 294 285 294 285 282 290 c 128,-1,12
 270 295 270 295 267 298 c 1,13,-1
 234 120 l 1,14,-1
 323 120 l 2,15,16
 390 120 390 120 422 130 c 1,17,18
 436 111 436 111 436 75 c 0,19,20
 436 0 436 0 312 0 c 2,21,-1
 -3 0 l 1,22,-1
 120 660 l 1,23,-1
 550 660 l 1,0,1
508 832 m 1,24,25
 512 814 512 814 512 804 c 0,26,27
 512 776 512 776 492.5 758 c 128,-1,28
 473 740 473 740 436 740 c 2,29,-1
 202 740 l 1,30,31
 199 749 199 749 199 767 c 0,32,33
 199 796 199 796 218.5 814 c 128,-1,34
 238 832 238 832 267 832 c 2,35,-1
 508 832 l 1,24,25
EndSplineSet
Validated: 8388609
Position2: "'cpsp' Capital Spacing lookup 3 subtable" dx=5 dy=0 dh=10 dv=0
EndChar

StartChar: Eogonek
Encoding: 280 280 40
Width: 495
Flags: MW
HStem: -258 84<327 350> 0 120<234 285> 275 112<336 395> 535 125<405 472> 562 98<316 316>
VStem: 183 112<-141 -111>
LayerCount: 2
UndoRedoHistory
Layer: 0
Undoes
EndUndoes
Redoes
EndRedoes
EndUndoRedoHistory
UndoRedoHistory
Layer: 1
Undoes
EndUndoes
Redoes
EndRedoes
EndUndoRedoHistory
Fore
SplineSet
550 660 m 1,0,1
 550 535 550 535 432 535 c 0,2,3
 374 535 374 535 316 562 c 1,4,-1
 285 387 l 1,5,-1
 463 387 l 1,6,7
 463 334 463 334 437 304.5 c 128,-1,8
 411 275 411 275 360 275 c 0,9,10
 339 275 339 275 316.5 280 c 128,-1,11
 294 285 294 285 282 290 c 128,-1,12
 270 295 270 295 267 298 c 1,13,-1
 234 120 l 1,14,-1
 323 120 l 2,15,16
 390 120 390 120 422 130 c 1,17,18
 436 111 436 111 436 75 c 0,19,20
 436 27 436 27 386 10 c 1,21,22
 346 -17 346 -17 320.5 -52.5 c 128,-1,23
 295 -88 295 -88 295 -123 c 0,24,25
 295 -174 295 -174 342 -174 c 0,26,27
 382 -174 382 -174 404 -149 c 1,28,29
 414 -161 414 -161 418 -171 c 128,-1,30
 422 -181 422 -181 422 -196 c 0,31,32
 422 -222 422 -222 393.5 -240 c 128,-1,33
 365 -258 365 -258 314 -258 c 0,34,35
 252 -258 252 -258 217.5 -229.5 c 128,-1,36
 183 -201 183 -201 183 -146 c 0,37,38
 183 -97 183 -97 211 -60 c 128,-1,39
 239 -23 239 -23 285 0 c 1,40,-1
 -3 0 l 1,41,-1
 120 660 l 1,42,-1
 550 660 l 1,0,1
EndSplineSet
Validated: 8388609
Position2: "'cpsp' Capital Spacing lookup 3 subtable" dx=5 dy=0 dh=10 dv=0
EndChar

StartChar: Etilde
Encoding: 7868 7868 41
Width: 495
Flags: MW
HStem: 0 120<234 312> 275 112<336 395> 535 125<405 472> 562 98<316 316> 722 108<447 482 447 482> 740 107<235 269>
VStem: -3 553
LayerCount: 2
UndoRedoHistory
Layer: 0
Undoes
EndUndoes
Redoes
EndRedoes
EndUndoRedoHistory
UndoRedoHistory
Layer: 1
Undoes
EndUndoes
Redoes
EndRedoes
EndUndoRedoHistory
Fore
SplineSet
550 660 m 1,0,1
 550 535 550 535 432 535 c 0,2,3
 374 535 374 535 316 562 c 1,4,-1
 285 387 l 1,5,-1
 463 387 l 1,6,7
 463 334 463 334 437 304.5 c 128,-1,8
 411 275 411 275 360 275 c 0,9,10
 339 275 339 275 316.5 280 c 128,-1,11
 294 285 294 285 282 290 c 128,-1,12
 270 295 270 295 267 298 c 1,13,-1
 234 120 l 1,14,-1
 323 120 l 2,15,16
 390 120 390 120 422 130 c 1,17,18
 436 111 436 111 436 75 c 0,19,20
 436 0 436 0 312 0 c 2,21,-1
 -3 0 l 1,22,-1
 120 660 l 1,23,-1
 550 660 l 1,0,1
530 847 m 1,24,25
 549 824 549 824 549 796 c 0,26,27
 549 760 549 760 523.5 741 c 128,-1,28
 498 722 498 722 453 722 c 0,29,30
 428 722 428 722 348 731 c 128,-1,31
 268 740 268 740 249 740 c 0,32,33
 209 740 209 740 182 723 c 1,34,35
 162 751 162 751 162 780 c 0,36,37
 162 812 162 812 187.5 829.5 c 128,-1,38
 213 847 213 847 261 847 c 0,39,40
 290 847 290 847 369 838.5 c 128,-1,41
 448 830 448 830 470 830 c 0,42,43
 513 830 513 830 530 847 c 1,24,25
EndSplineSet
Validated: 8388609
Position2: "'cpsp' Capital Spacing lookup 3 subtable" dx=5 dy=0 dh=10 dv=0
EndChar

StartChar: F
Encoding: 70 70 42
Width: 509
Flags: MW
HStem: 275 120<348 410> 530 130<425 491> 557 103<316 316>
VStem: -3 566
LayerCount: 2
UndoRedoHistory
Layer: 0
Undoes
EndUndoes
Redoes
EndRedoes
EndUndoRedoHistory
UndoRedoHistory
Layer: 1
Undoes
EndUndoes
Redoes
EndRedoes
EndUndoRedoHistory
Fore
SplineSet
563 660 m 1,0,1
 563 595 563 595 536.5 562.5 c 128,-1,2
 510 530 510 530 448 530 c 0,3,4
 415 530 415 530 377 538 c 128,-1,5
 339 546 339 546 316 557 c 1,6,-1
 286 395 l 1,7,-1
 479 395 l 1,8,9
 479 340 479 340 453 307.5 c 128,-1,10
 427 275 427 275 370 275 c 0,11,12
 320 275 320 275 267 299 c 1,13,-1
 214 0 l 1,14,-1
 -3 0 l 1,15,-1
 120 660 l 1,16,-1
 563 660 l 1,0,1
EndSplineSet
Validated: 8388609
Position2: "'cpsp' Capital Spacing lookup 3 subtable" dx=5 dy=0 dh=10 dv=0
EndChar

StartChar: G
Encoding: 71 71 43
Width: 639
Flags: MW
HStem: -20 119<163 345> 609 71<351 426>
VStem: 21 214<229 334 229 373> 400 161 455 175<521 536>
LayerCount: 2
UndoRedoHistory
Layer: 0
Undoes
EndUndoes
Redoes
EndRedoes
EndUndoRedoHistory
UndoRedoHistory
Layer: 1
Undoes
EndUndoes
Redoes
EndRedoes
EndUndoRedoHistory
Fore
SplineSet
633 340 m 1,0,1
 561 183 561 183 561 -1 c 1,2,3
 534 -20 534 -20 499 -20 c 0,4,5
 459 -20 459 -20 431.5 -2 c 128,-1,6
 404 16 404 16 400 36 c 1,7,8
 370 7 370 7 326.5 -6.5 c 128,-1,9
 283 -20 283 -20 237 -20 c 0,10,11
 129 -20 129 -20 75 52 c 128,-1,12
 21 124 21 124 21 251 c 0,13,14
 21 324 21 324 38 389 c 128,-1,15
 55 454 55 454 89.5 507.5 c 128,-1,16
 124 561 124 561 172 599.5 c 128,-1,17
 220 638 220 638 285.5 659 c 128,-1,18
 351 680 351 680 427 680 c 0,19,20
 458 680 458 680 485 677 c 128,-1,21
 512 674 512 674 539.5 665.5 c 128,-1,22
 567 657 567 657 586.5 643.5 c 128,-1,23
 606 630 606 630 618 608.5 c 128,-1,24
 630 587 630 587 630 559 c 0,25,26
 630 504 630 504 590 469 c 128,-1,27
 550 434 550 434 494 434 c 0,28,29
 468 434 468 434 448 441 c 1,30,31
 455 478 455 478 455 519 c 0,32,33
 455 609 455 609 400 609 c 0,34,35
 353 609 353 609 314 551.5 c 128,-1,36
 275 494 275 494 255 415.5 c 128,-1,37
 235 337 235 337 235 264 c 0,38,39
 235 234 235 234 239 208 c 128,-1,40
 243 182 243 182 253 155.5 c 128,-1,41
 263 129 263 129 284 114 c 128,-1,42
 305 99 305 99 334 99 c 0,43,44
 353 99 353 99 371.5 104.5 c 128,-1,45
 390 110 390 110 399 121 c 1,46,-1
 431 322 l 1,47,-1
 633 340 l 1,0,1
EndSplineSet
Validated: 8388609
Position2: "'cpsp' Capital Spacing lookup 3 subtable" dx=5 dy=0 dh=10 dv=0
EndChar

StartChar: Gbreve
Encoding: 286 286 44
Width: 639
Flags: MW
HStem: -20 119<163 345> 609 71<351 426> 701 49<428 470 428 504>
VStem: 21 214<229 334 229 373> 261 148<789 802 789 812> 400 161 455 175<521 536>
LayerCount: 2
UndoRedoHistory
Layer: 0
Undoes
EndUndoes
Redoes
EndRedoes
EndUndoRedoHistory
UndoRedoHistory
Layer: 1
Undoes
EndUndoes
Redoes
EndRedoes
EndUndoRedoHistory
Fore
SplineSet
633 340 m 1,0,1
 561 183 561 183 561 -1 c 1,2,3
 534 -20 534 -20 499 -20 c 0,4,5
 459 -20 459 -20 431.5 -2 c 128,-1,6
 404 16 404 16 400 36 c 1,7,8
 370 7 370 7 326.5 -6.5 c 128,-1,9
 283 -20 283 -20 237 -20 c 0,10,11
 129 -20 129 -20 75 52 c 128,-1,12
 21 124 21 124 21 251 c 0,13,14
 21 324 21 324 38 389 c 128,-1,15
 55 454 55 454 89.5 507.5 c 128,-1,16
 124 561 124 561 172 599.5 c 128,-1,17
 220 638 220 638 285.5 659 c 128,-1,18
 351 680 351 680 427 680 c 0,19,20
 458 680 458 680 485 677 c 128,-1,21
 512 674 512 674 539.5 665.5 c 128,-1,22
 567 657 567 657 586.5 643.5 c 128,-1,23
 606 630 606 630 618 608.5 c 128,-1,24
 630 587 630 587 630 559 c 0,25,26
 630 504 630 504 590 469 c 128,-1,27
 550 434 550 434 494 434 c 0,28,29
 468 434 468 434 448 441 c 1,30,31
 455 478 455 478 455 519 c 0,32,33
 455 609 455 609 400 609 c 0,34,35
 353 609 353 609 314 551.5 c 128,-1,36
 275 494 275 494 255 415.5 c 128,-1,37
 235 337 235 337 235 264 c 0,38,39
 235 234 235 234 239 208 c 128,-1,40
 243 182 243 182 253 155.5 c 128,-1,41
 263 129 263 129 284 114 c 128,-1,42
 305 99 305 99 334 99 c 0,43,44
 353 99 353 99 371.5 104.5 c 128,-1,45
 390 110 390 110 399 121 c 1,46,-1
 431 322 l 1,47,-1
 633 340 l 1,0,1
413 834 m 1,48,49
 409 806 409 806 409 796 c 0,50,51
 409 788 409 788 410 782 c 128,-1,52
 411 776 411 776 414 767.5 c 128,-1,53
 417 759 417 759 425 754.5 c 128,-1,54
 433 750 433 750 445 750 c 0,55,56
 459 750 459 750 470 756 c 128,-1,57
 481 762 481 762 487 768.5 c 128,-1,58
 493 775 493 775 498.5 789 c 128,-1,59
 504 803 504 803 506 810 c 128,-1,60
 508 817 508 817 512 834 c 1,61,-1
 656 834 l 1,62,63
 643 774 643 774 588 737.5 c 128,-1,64
 533 701 533 701 435 701 c 0,65,66
 352 701 352 701 306.5 731.5 c 128,-1,67
 261 762 261 762 261 807 c 0,68,69
 261 819 261 819 264 834 c 1,70,-1
 413 834 l 1,48,49
EndSplineSet
Validated: 8388609
Position2: "'cpsp' Capital Spacing lookup 3 subtable" dx=5 dy=0 dh=10 dv=0
EndChar

StartChar: Gcircumflex
Encoding: 284 284 45
Width: 639
Flags: MW
HStem: -20 119<163 345> 609 71<351 426>
VStem: 21 214<229 334 229 373> 400 161 455 175<521 536>
LayerCount: 2
UndoRedoHistory
Layer: 0
Undoes
EndUndoes
Redoes
EndRedoes
EndUndoRedoHistory
UndoRedoHistory
Layer: 1
Undoes
EndUndoes
Redoes
EndRedoes
EndUndoRedoHistory
Fore
SplineSet
633 340 m 1,0,1
 561 183 561 183 561 -1 c 1,2,3
 534 -20 534 -20 499 -20 c 0,4,5
 459 -20 459 -20 431.5 -2 c 128,-1,6
 404 16 404 16 400 36 c 1,7,8
 370 7 370 7 326.5 -6.5 c 128,-1,9
 283 -20 283 -20 237 -20 c 0,10,11
 129 -20 129 -20 75 52 c 128,-1,12
 21 124 21 124 21 251 c 0,13,14
 21 324 21 324 38 389 c 128,-1,15
 55 454 55 454 89.5 507.5 c 128,-1,16
 124 561 124 561 172 599.5 c 128,-1,17
 220 638 220 638 285.5 659 c 128,-1,18
 351 680 351 680 427 680 c 0,19,20
 458 680 458 680 485 677 c 128,-1,21
 512 674 512 674 539.5 665.5 c 128,-1,22
 567 657 567 657 586.5 643.5 c 128,-1,23
 606 630 606 630 618 608.5 c 128,-1,24
 630 587 630 587 630 559 c 0,25,26
 630 504 630 504 590 469 c 128,-1,27
 550 434 550 434 494 434 c 0,28,29
 468 434 468 434 448 441 c 1,30,31
 455 478 455 478 455 519 c 0,32,33
 455 609 455 609 400 609 c 0,34,35
 353 609 353 609 314 551.5 c 128,-1,36
 275 494 275 494 255 415.5 c 128,-1,37
 235 337 235 337 235 264 c 0,38,39
 235 234 235 234 239 208 c 128,-1,40
 243 182 243 182 253 155.5 c 128,-1,41
 263 129 263 129 284 114 c 128,-1,42
 305 99 305 99 334 99 c 0,43,44
 353 99 353 99 371.5 104.5 c 128,-1,45
 390 110 390 110 399 121 c 1,46,-1
 431 322 l 1,47,-1
 633 340 l 1,0,1
554 687 m 1,48,-1
 438 739 l 1,49,-1
 290 687 l 1,50,-1
 259 733 l 1,51,-1
 426 849 l 1,52,-1
 471 849 l 1,53,-1
 604 733 l 1,54,-1
 554 687 l 1,48,-1
EndSplineSet
Validated: 8388609
Position2: "'cpsp' Capital Spacing lookup 3 subtable" dx=5 dy=0 dh=10 dv=0
EndChar

StartChar: Gcommaaccent
Encoding: 290 290 46
Width: 639
Flags: MW
HStem: -20 119<163 345> 609 71<351 426>
VStem: 21 214<229 334 229 373> 221 134<-146 -108> 400 161 455 175<521 536>
LayerCount: 2
UndoRedoHistory
Layer: 0
Undoes
EndUndoes
Redoes
EndRedoes
EndUndoRedoHistory
UndoRedoHistory
Layer: 1
Undoes
EndUndoes
Redoes
EndRedoes
EndUndoRedoHistory
Fore
SplineSet
355 -119 m 0,0,1
 355 -151 355 -151 339.5 -178.5 c 128,-1,2
 324 -206 324 -206 299.5 -222.5 c 128,-1,3
 275 -239 275 -239 248 -248.5 c 128,-1,4
 221 -258 221 -258 196 -258 c 128,-1,5
 171 -258 171 -258 157 -254 c 1,6,7
 191 -216 191 -216 206 -187.5 c 128,-1,8
 221 -159 221 -159 221 -117 c 0,9,10
 221 -89 221 -89 211 -66 c 1,11,12
 218 -61 218 -61 238.5 -56 c 128,-1,13
 259 -51 259 -51 273 -51 c 0,14,15
 311 -51 311 -51 333 -70 c 128,-1,16
 355 -89 355 -89 355 -119 c 0,0,1
633 340 m 1,17,18
 561 183 561 183 561 -1 c 1,19,20
 534 -20 534 -20 499 -20 c 0,21,22
 459 -20 459 -20 431.5 -2 c 128,-1,23
 404 16 404 16 400 36 c 1,24,25
 370 7 370 7 326.5 -6.5 c 128,-1,26
 283 -20 283 -20 237 -20 c 0,27,28
 129 -20 129 -20 75 52 c 128,-1,29
 21 124 21 124 21 251 c 0,30,31
 21 324 21 324 38 389 c 128,-1,32
 55 454 55 454 89.5 507.5 c 128,-1,33
 124 561 124 561 172 599.5 c 128,-1,34
 220 638 220 638 285.5 659 c 128,-1,35
 351 680 351 680 427 680 c 0,36,37
 458 680 458 680 485 677 c 128,-1,38
 512 674 512 674 539.5 665.5 c 128,-1,39
 567 657 567 657 586.5 643.5 c 128,-1,40
 606 630 606 630 618 608.5 c 128,-1,41
 630 587 630 587 630 559 c 0,42,43
 630 504 630 504 590 469 c 128,-1,44
 550 434 550 434 494 434 c 0,45,46
 468 434 468 434 448 441 c 1,47,48
 455 478 455 478 455 519 c 0,49,50
 455 609 455 609 400 609 c 0,51,52
 353 609 353 609 314 551.5 c 128,-1,53
 275 494 275 494 255 415.5 c 128,-1,54
 235 337 235 337 235 264 c 0,55,56
 235 234 235 234 239 208 c 128,-1,57
 243 182 243 182 253 155.5 c 128,-1,58
 263 129 263 129 284 114 c 128,-1,59
 305 99 305 99 334 99 c 0,60,61
 353 99 353 99 371.5 104.5 c 128,-1,62
 390 110 390 110 399 121 c 1,63,-1
 431 322 l 1,64,-1
 633 340 l 1,17,18
EndSplineSet
Validated: 8388609
Position2: "'cpsp' Capital Spacing lookup 3 subtable" dx=5 dy=0 dh=10 dv=0
EndChar

StartChar: Gdotaccent
Encoding: 288 288 47
Width: 639
Flags: MW
HStem: -20 119<163 345> 609 71<351 426> 690 152<414 468>
VStem: 21 214<229 334 229 373> 337 205<741 790> 400 161 455 175<521 536>
LayerCount: 2
UndoRedoHistory
Layer: 0
Undoes
EndUndoes
Redoes
EndRedoes
EndUndoRedoHistory
UndoRedoHistory
Layer: 1
Undoes
EndUndoes
Redoes
EndRedoes
EndUndoRedoHistory
Fore
SplineSet
633 340 m 1,0,1
 561 183 561 183 561 -1 c 1,2,3
 534 -20 534 -20 499 -20 c 0,4,5
 459 -20 459 -20 431.5 -2 c 128,-1,6
 404 16 404 16 400 36 c 1,7,8
 370 7 370 7 326.5 -6.5 c 128,-1,9
 283 -20 283 -20 237 -20 c 0,10,11
 129 -20 129 -20 75 52 c 128,-1,12
 21 124 21 124 21 251 c 0,13,14
 21 324 21 324 38 389 c 128,-1,15
 55 454 55 454 89.5 507.5 c 128,-1,16
 124 561 124 561 172 599.5 c 128,-1,17
 220 638 220 638 285.5 659 c 128,-1,18
 351 680 351 680 427 680 c 0,19,20
 458 680 458 680 485 677 c 128,-1,21
 512 674 512 674 539.5 665.5 c 128,-1,22
 567 657 567 657 586.5 643.5 c 128,-1,23
 606 630 606 630 618 608.5 c 128,-1,24
 630 587 630 587 630 559 c 0,25,26
 630 504 630 504 590 469 c 128,-1,27
 550 434 550 434 494 434 c 0,28,29
 468 434 468 434 448 441 c 1,30,31
 455 478 455 478 455 519 c 0,32,33
 455 609 455 609 400 609 c 0,34,35
 353 609 353 609 314 551.5 c 128,-1,36
 275 494 275 494 255 415.5 c 128,-1,37
 235 337 235 337 235 264 c 0,38,39
 235 234 235 234 239 208 c 128,-1,40
 243 182 243 182 253 155.5 c 128,-1,41
 263 129 263 129 284 114 c 128,-1,42
 305 99 305 99 334 99 c 0,43,44
 353 99 353 99 371.5 104.5 c 128,-1,45
 390 110 390 110 399 121 c 1,46,-1
 431 322 l 1,47,-1
 633 340 l 1,0,1
443 842 m 0,48,49
 488 842 488 842 515 822 c 128,-1,50
 542 802 542 802 542 766 c 128,-1,51
 542 730 542 730 513.5 710 c 128,-1,52
 485 690 485 690 439 690 c 0,53,54
 394 690 394 690 365.5 709.5 c 128,-1,55
 337 729 337 729 337 764 c 0,56,57
 337 801 337 801 367 821.5 c 128,-1,58
 397 842 397 842 443 842 c 0,48,49
EndSplineSet
Validated: 8388609
Position2: "'cpsp' Capital Spacing lookup 3 subtable" dx=5 dy=0 dh=10 dv=0
EndChar

StartChar: H
Encoding: 72 72 48
Width: 678
Flags: MW
HStem: 285 80<272 406 256 421> 640 20G<120 330 330 330 476 686 686 686>
VStem: -7 693<0 660>
LayerCount: 2
UndoRedoHistory
Layer: 0
Undoes
EndUndoes
Redoes
EndRedoes
EndUndoRedoHistory
UndoRedoHistory
Layer: 1
Undoes
EndUndoes
Redoes
EndRedoes
EndUndoRedoHistory
Fore
SplineSet
591 159 m 2,0,1
 582 109 582 109 582 77 c 0,2,3
 582 37 582 37 595 14 c 1,4,5
 546 -20 546 -20 481 -20 c 0,6,7
 429 -20 429 -20 403 7 c 128,-1,8
 377 34 377 34 377 79 c 0,9,10
 377 99 377 99 387 169 c 1,11,-1
 406 285 l 1,12,-1
 256 285 l 1,13,-1
 201 0 l 1,14,-1
 -7 0 l 1,15,-1
 120 660 l 1,16,-1
 330 660 l 1,17,-1
 272 365 l 1,18,-1
 421 365 l 1,19,-1
 476 660 l 1,20,-1
 686 660 l 1,21,-1
 591 159 l 2,0,1
EndSplineSet
Validated: 1
Position2: "'cpsp' Capital Spacing lookup 3 subtable" dx=5 dy=0 dh=10 dv=0
EndChar

StartChar: Hbar
Encoding: 294 294 49
Width: 678
Flags: MW
HStem: 285 80<272 406 256 421> 483 91<29 104 29 104 313 443 670 678> 483 177<29 330 29 330 295 295 295 330 120 443 653 678>
VStem: -7 735<0 551>
LayerCount: 2
UndoRedoHistory
Layer: 0
Undoes
EndUndoes
Redoes
EndRedoes
EndUndoRedoHistory
UndoRedoHistory
Layer: 1
Undoes
EndUndoes
Redoes
EndRedoes
EndUndoRedoHistory
Fore
SplineSet
443 483 m 1,0,-1
 295 483 l 1,1,-1
 272 365 l 1,2,-1
 421 365 l 1,3,-1
 443 483 l 1,0,-1
591 159 m 2,4,5
 582 109 582 109 582 77 c 0,6,7
 582 37 582 37 595 14 c 1,8,9
 546 -20 546 -20 481 -20 c 0,10,11
 429 -20 429 -20 403 7 c 128,-1,12
 377 34 377 34 377 79 c 0,13,14
 377 99 377 99 387 169 c 1,15,-1
 406 285 l 1,16,-1
 256 285 l 1,17,-1
 201 0 l 1,18,-1
 -7 0 l 1,19,-1
 86 483 l 1,20,-1
 29 483 l 1,21,22
 26 492 26 492 26 510 c 0,23,24
 26 538 26 538 45.5 556 c 128,-1,25
 65 574 65 574 94 574 c 2,26,-1
 104 574 l 1,27,-1
 120 660 l 1,28,-1
 330 660 l 1,29,-1
 313 574 l 1,30,-1
 460 574 l 1,31,-1
 476 660 l 1,32,-1
 686 660 l 1,33,-1
 670 574 l 1,34,-1
 724 574 l 1,35,36
 728 558 728 558 728 546 c 0,37,38
 728 518 728 518 708.5 500.5 c 128,-1,39
 689 483 689 483 653 483 c 1,40,-1
 591 159 l 2,4,5
EndSplineSet
Validated: 8388609
Position2: "'cpsp' Capital Spacing lookup 3 subtable" dx=5 dy=0 dh=10 dv=0
EndChar

StartChar: Hcircumflex
Encoding: 292 292 50
Width: 678
Flags: MW
HStem: 285 80<272 406 256 421> 640 20G<120 330 330 330 476 686 686 686>
VStem: -7 693<0 660>
LayerCount: 2
UndoRedoHistory
Layer: 0
Undoes
EndUndoes
Redoes
EndRedoes
EndUndoRedoHistory
UndoRedoHistory
Layer: 1
Undoes
EndUndoes
Redoes
EndRedoes
EndUndoRedoHistory
Fore
SplineSet
591 159 m 2,0,1
 582 109 582 109 582 77 c 0,2,3
 582 37 582 37 595 14 c 1,4,5
 546 -20 546 -20 481 -20 c 0,6,7
 429 -20 429 -20 403 7 c 128,-1,8
 377 34 377 34 377 79 c 0,9,10
 377 99 377 99 387 169 c 1,11,-1
 406 285 l 1,12,-1
 256 285 l 1,13,-1
 201 0 l 1,14,-1
 -7 0 l 1,15,-1
 120 660 l 1,16,-1
 330 660 l 1,17,-1
 272 365 l 1,18,-1
 421 365 l 1,19,-1
 476 660 l 1,20,-1
 686 660 l 1,21,-1
 591 159 l 2,0,1
532 687 m 1,22,-1
 416 739 l 1,23,-1
 268 687 l 1,24,-1
 237 733 l 1,25,-1
 404 849 l 1,26,-1
 449 849 l 1,27,-1
 582 733 l 1,28,-1
 532 687 l 1,22,-1
EndSplineSet
Validated: 1
Position2: "'cpsp' Capital Spacing lookup 3 subtable" dx=5 dy=0 dh=10 dv=0
EndChar

StartChar: Hdotbelow
Encoding: 7716 7716 51
Width: 678
Flags: MW
HStem: -194 152<245 299> 285 80<272 406 256 421> 640 20G<120 330 330 330 476 686 686 686>
VStem: -7 693<0 660> 168 206<-143 -95>
LayerCount: 2
UndoRedoHistory
Layer: 0
Undoes
EndUndoes
Redoes
EndRedoes
EndUndoRedoHistory
UndoRedoHistory
Layer: 1
Undoes
EndUndoes
Redoes
EndRedoes
EndUndoRedoHistory
Fore
SplineSet
274 -42 m 0,0,1
 319 -42 319 -42 346.5 -62 c 128,-1,2
 374 -82 374 -82 374 -118 c 128,-1,3
 374 -154 374 -154 345 -174 c 128,-1,4
 316 -194 316 -194 270 -194 c 0,5,6
 225 -194 225 -194 196.5 -174.5 c 128,-1,7
 168 -155 168 -155 168 -120 c 0,8,9
 168 -83 168 -83 198 -62.5 c 128,-1,10
 228 -42 228 -42 274 -42 c 0,0,1
591 159 m 2,11,12
 582 109 582 109 582 77 c 0,13,14
 582 37 582 37 595 14 c 1,15,16
 546 -20 546 -20 481 -20 c 0,17,18
 429 -20 429 -20 403 7 c 128,-1,19
 377 34 377 34 377 79 c 0,20,21
 377 99 377 99 387 169 c 1,22,-1
 406 285 l 1,23,-1
 256 285 l 1,24,-1
 201 0 l 1,25,-1
 -7 0 l 1,26,-1
 120 660 l 1,27,-1
 330 660 l 1,28,-1
 272 365 l 1,29,-1
 421 365 l 1,30,-1
 476 660 l 1,31,-1
 686 660 l 1,32,-1
 591 159 l 2,11,12
EndSplineSet
Validated: 8388609
Position2: "'cpsp' Capital Spacing lookup 3 subtable" dx=5 dy=0 dh=10 dv=0
EndChar

StartChar: I
Encoding: 73 73 52
Width: 334
Flags: MW
HStem: 640 20G<120 339 339 339>
VStem: -7 346
LayerCount: 2
UndoRedoHistory
Layer: 0
Undoes
EndUndoes
Redoes
EndRedoes
EndUndoRedoHistory
UndoRedoHistory
Layer: 1
Undoes
EndUndoes
Redoes
EndRedoes
EndUndoRedoHistory
Fore
SplineSet
210 0 m 1,0,-1
 -7 0 l 1,1,-1
 120 660 l 1,2,-1
 339 660 l 1,3,-1
 210 0 l 1,0,-1
EndSplineSet
Validated: 1
Position2: "'cpsp' Capital Spacing lookup 3 subtable" dx=5 dy=0 dh=10 dv=0
EndChar

StartChar: IJ
Encoding: 306 306 53
Width: 670
Flags: MW
HStem: 640 20G<120 339 339 339 457 673 673 673>
VStem: -7 680<0 660>
LayerCount: 2
UndoRedoHistory
Layer: 0
Undoes
EndUndoes
Redoes
EndRedoes
EndUndoRedoHistory
UndoRedoHistory
Layer: 1
Undoes
EndUndoes
Redoes
EndRedoes
EndUndoRedoHistory
Fore
SplineSet
576 154 m 2,0,1
 552 28 552 28 519 -47.5 c 128,-1,2
 486 -123 486 -123 440 -156.5 c 128,-1,3
 394 -190 394 -190 328 -190 c 0,4,5
 237 -190 237 -190 215 -138 c 1,6,7
 246 -125 246 -125 263.5 -111 c 128,-1,8
 281 -97 281 -97 298.5 -65 c 128,-1,9
 316 -33 316 -33 329.5 17.5 c 128,-1,10
 343 68 343 68 360 154 c 2,11,-1
 457 660 l 1,12,-1
 673 660 l 1,13,-1
 576 154 l 2,0,1
-7 0 m 1,14,-1
 120 660 l 1,15,-1
 339 660 l 1,16,-1
 210 0 l 1,17,-1
 -7 0 l 1,14,-1
EndSplineSet
Validated: 1
Position2: "'cpsp' Capital Spacing lookup 3 subtable" dx=5 dy=0 dh=10 dv=0
EndChar

StartChar: Iacute
Encoding: 205 205 54
Width: 334
Flags: MW
HStem: 640 20G<120 339 339 339>
VStem: -7 438
LayerCount: 2
UndoRedoHistory
Layer: 0
Undoes
EndUndoes
Redoes
EndRedoes
EndUndoRedoHistory
UndoRedoHistory
Layer: 1
Undoes
EndUndoes
Redoes
EndRedoes
EndUndoRedoHistory
Fore
SplineSet
-7 0 m 1,0,-1
 120 660 l 1,1,-1
 339 660 l 1,2,-1
 210 0 l 1,3,-1
 -7 0 l 1,0,-1
158 759 m 1,4,-1
 403 861 l 1,5,6
 431 840 431 840 431 807 c 0,7,8
 431 782 431 782 419.5 764 c 128,-1,9
 408 746 408 746 387.5 735.5 c 128,-1,10
 367 725 367 725 342.5 720 c 128,-1,11
 318 715 318 715 289 714 c 2,12,-1
 170 710 l 1,13,-1
 158 759 l 1,4,-1
EndSplineSet
Validated: 1
Position2: "'cpsp' Capital Spacing lookup 3 subtable" dx=5 dy=0 dh=10 dv=0
EndChar

StartChar: Ibreve
Encoding: 300 300 55
Width: 334
Flags: MW
HStem: 640 20G<120 339 339 339> 701 49<235 277 235 312>
VStem: 69 148<789 802 789 812>
LayerCount: 2
UndoRedoHistory
Layer: 0
Undoes
EndUndoes
Redoes
EndRedoes
EndUndoRedoHistory
UndoRedoHistory
Layer: 1
Undoes
EndUndoes
Redoes
EndRedoes
EndUndoRedoHistory
Fore
SplineSet
-7 0 m 1,0,-1
 120 660 l 1,1,-1
 339 660 l 1,2,-1
 210 0 l 1,3,-1
 -7 0 l 1,0,-1
221 834 m 1,4,5
 217 802 217 802 217 796 c 0,6,7
 217 750 217 750 253 750 c 0,8,9
 267 750 267 750 278 756 c 128,-1,10
 289 762 289 762 295 768 c 128,-1,11
 301 774 301 774 306.5 789 c 128,-1,12
 312 804 312 804 314 810.5 c 128,-1,13
 316 817 316 817 320 834 c 1,14,-1
 464 834 l 1,15,16
 451 774 451 774 396 737.5 c 128,-1,17
 341 701 341 701 243 701 c 0,18,19
 160 701 160 701 114.5 731.5 c 128,-1,20
 69 762 69 762 69 807 c 0,21,22
 69 819 69 819 72 834 c 1,23,-1
 221 834 l 1,4,5
EndSplineSet
Validated: 1
Position2: "'cpsp' Capital Spacing lookup 3 subtable" dx=5 dy=0 dh=10 dv=0
EndChar

StartChar: Icircumflex
Encoding: 206 206 56
Width: 334
Flags: MW
HStem: 640 20G<120 339 339 339>
VStem: -7 419
LayerCount: 2
UndoRedoHistory
Layer: 0
Undoes
EndUndoes
Redoes
EndRedoes
EndUndoRedoHistory
UndoRedoHistory
Layer: 1
Undoes
EndUndoes
Redoes
EndRedoes
EndUndoRedoHistory
Fore
SplineSet
-7 0 m 1,0,-1
 120 660 l 1,1,-1
 339 660 l 1,2,-1
 210 0 l 1,3,-1
 -7 0 l 1,0,-1
362 687 m 1,4,-1
 246 739 l 1,5,-1
 98 687 l 1,6,-1
 67 733 l 1,7,-1
 234 849 l 1,8,-1
 279 849 l 1,9,-1
 412 733 l 1,10,-1
 362 687 l 1,4,-1
EndSplineSet
Validated: 1
Position2: "'cpsp' Capital Spacing lookup 3 subtable" dx=5 dy=0 dh=10 dv=0
EndChar

StartChar: Idieresis
Encoding: 207 207 57
Width: 334
Flags: MW
HStem: 640 20G<120 339 339 339> 690 152<108 164 342 397>
VStem: 32 205<741 790> 266 205<741 790>
LayerCount: 2
UndoRedoHistory
Layer: 0
Undoes
EndUndoes
Redoes
EndRedoes
EndUndoRedoHistory
UndoRedoHistory
Layer: 1
Undoes
EndUndoes
Redoes
EndRedoes
EndUndoRedoHistory
Fore
SplineSet
-7 0 m 1,0,-1
 120 660 l 1,1,-1
 339 660 l 1,2,-1
 210 0 l 1,3,-1
 -7 0 l 1,0,-1
372 842 m 0,4,5
 417 842 417 842 444 822 c 128,-1,6
 471 802 471 802 471 766 c 128,-1,7
 471 730 471 730 442.5 710 c 128,-1,8
 414 690 414 690 368 690 c 0,9,10
 323 690 323 690 294.5 709.5 c 128,-1,11
 266 729 266 729 266 764 c 0,12,13
 266 801 266 801 296 821.5 c 128,-1,14
 326 842 326 842 372 842 c 0,4,5
138 842 m 0,15,16
 183 842 183 842 210 822 c 128,-1,17
 237 802 237 802 237 766 c 128,-1,18
 237 730 237 730 208.5 710 c 128,-1,19
 180 690 180 690 134 690 c 0,20,21
 89 690 89 690 60.5 709.5 c 128,-1,22
 32 729 32 729 32 764 c 0,23,24
 32 801 32 801 62 821.5 c 128,-1,25
 92 842 92 842 138 842 c 0,15,16
EndSplineSet
Validated: 1
Position2: "'cpsp' Capital Spacing lookup 3 subtable" dx=5 dy=0 dh=10 dv=0
EndChar

StartChar: Idotaccent
Encoding: 304 304 58
Width: 334
Flags: MW
HStem: 640 20G<120 339 339 339> 690 152<221 275>
VStem: 144 205<741 790>
LayerCount: 2
UndoRedoHistory
Layer: 0
Undoes
EndUndoes
Redoes
EndRedoes
EndUndoRedoHistory
UndoRedoHistory
Layer: 1
Undoes
EndUndoes
Redoes
EndRedoes
EndUndoRedoHistory
Fore
SplineSet
-7 0 m 1,0,-1
 120 660 l 1,1,-1
 339 660 l 1,2,-1
 210 0 l 1,3,-1
 -7 0 l 1,0,-1
250 842 m 0,4,5
 295 842 295 842 322 822 c 128,-1,6
 349 802 349 802 349 766 c 128,-1,7
 349 730 349 730 320.5 710 c 128,-1,8
 292 690 292 690 246 690 c 0,9,10
 201 690 201 690 172.5 709.5 c 128,-1,11
 144 729 144 729 144 764 c 0,12,13
 144 801 144 801 174 821.5 c 128,-1,14
 204 842 204 842 250 842 c 0,4,5
EndSplineSet
Validated: 1
Position2: "'cpsp' Capital Spacing lookup 3 subtable" dx=5 dy=0 dh=10 dv=0
EndChar

StartChar: Idotbelow
Encoding: 7882 7882 59
Width: 334
Flags: MW
HStem: -194 152<51 106> 640 20G<120 339 339 339>
VStem: -25 206<-143 -95> -25 364
LayerCount: 2
UndoRedoHistory
Layer: 0
Undoes
EndUndoes
Redoes
EndRedoes
EndUndoRedoHistory
UndoRedoHistory
Layer: 1
Undoes
EndUndoes
Redoes
EndRedoes
EndUndoRedoHistory
Fore
SplineSet
81 -42 m 0,0,1
 126 -42 126 -42 153.5 -62 c 128,-1,2
 181 -82 181 -82 181 -118 c 128,-1,3
 181 -154 181 -154 152 -174 c 128,-1,4
 123 -194 123 -194 77 -194 c 0,5,6
 32 -194 32 -194 3.5 -174.5 c 128,-1,7
 -25 -155 -25 -155 -25 -120 c 0,8,9
 -25 -83 -25 -83 5 -62.5 c 128,-1,10
 35 -42 35 -42 81 -42 c 0,0,1
-7 0 m 1,11,-1
 120 660 l 1,12,-1
 339 660 l 1,13,-1
 210 0 l 1,14,-1
 -7 0 l 1,11,-1
EndSplineSet
Validated: 8388609
Position2: "'cpsp' Capital Spacing lookup 3 subtable" dx=5 dy=0 dh=10 dv=0
EndChar

StartChar: Igrave
Encoding: 204 204 60
Width: 334
Flags: MW
HStem: 640 20G<120 339 339 339>
VStem: -7 362
LayerCount: 2
UndoRedoHistory
Layer: 0
Undoes
EndUndoes
Redoes
EndRedoes
EndUndoRedoHistory
UndoRedoHistory
Layer: 1
Undoes
EndUndoes
Redoes
EndRedoes
EndUndoRedoHistory
Fore
SplineSet
-7 0 m 1,0,-1
 120 660 l 1,1,-1
 339 660 l 1,2,-1
 210 0 l 1,3,-1
 -7 0 l 1,0,-1
343 711 m 1,4,-1
 224 715 l 2,5,6
 195 716 195 716 170.5 721 c 128,-1,7
 146 726 146 726 125.5 736.5 c 128,-1,8
 105 747 105 747 93.5 765 c 128,-1,9
 82 783 82 783 82 808 c 0,10,11
 82 841 82 841 110 862 c 1,12,-1
 355 760 l 1,13,-1
 343 711 l 1,4,-1
EndSplineSet
Validated: 1
Position2: "'cpsp' Capital Spacing lookup 3 subtable" dx=5 dy=0 dh=10 dv=0
EndChar

StartChar: Imacron
Encoding: 298 298 61
Width: 334
Flags: MW
HStem: 640 20G<120 339 339 339> 740 92<160 329 95 401>
VStem: -7 412
LayerCount: 2
UndoRedoHistory
Layer: 0
Undoes
EndUndoes
Redoes
EndRedoes
EndUndoRedoHistory
UndoRedoHistory
Layer: 1
Undoes
EndUndoes
Redoes
EndRedoes
EndUndoRedoHistory
Fore
SplineSet
-7 0 m 1,0,-1
 120 660 l 1,1,-1
 339 660 l 1,2,-1
 210 0 l 1,3,-1
 -7 0 l 1,0,-1
401 832 m 1,4,5
 405 816 405 816 405 804 c 0,6,7
 405 776 405 776 385.5 758 c 128,-1,8
 366 740 366 740 329 740 c 2,9,-1
 95 740 l 1,10,11
 92 750 92 750 92 767 c 0,12,13
 92 796 92 796 111.5 814 c 128,-1,14
 131 832 131 832 160 832 c 2,15,-1
 401 832 l 1,4,5
EndSplineSet
Validated: 1
Position2: "'cpsp' Capital Spacing lookup 3 subtable" dx=5 dy=0 dh=10 dv=0
EndChar

StartChar: Iogonek
Encoding: 302 302 62
Width: 334
Flags: MW
HStem: -258 84<152 175> 640 20G<120 339 339 339>
VStem: 9 112<-141 -111>
LayerCount: 2
UndoRedoHistory
Layer: 0
Undoes
EndUndoes
Redoes
EndRedoes
EndUndoRedoHistory
UndoRedoHistory
Layer: 1
Undoes
EndUndoes
Redoes
EndRedoes
EndUndoRedoHistory
Fore
SplineSet
198 0 m 1,0,1
 163 -27 163 -27 142 -59 c 128,-1,2
 121 -91 121 -91 121 -123 c 0,3,4
 121 -174 121 -174 168 -174 c 0,5,6
 208 -174 208 -174 230 -149 c 1,7,8
 240 -161 240 -161 244 -171 c 128,-1,9
 248 -181 248 -181 248 -196 c 0,10,11
 248 -222 248 -222 219.5 -240 c 128,-1,12
 191 -258 191 -258 140 -258 c 0,13,14
 78 -258 78 -258 43.5 -229.5 c 128,-1,15
 9 -201 9 -201 9 -146 c 0,16,17
 9 -97 9 -97 36.5 -60 c 128,-1,18
 64 -23 64 -23 111 0 c 1,19,-1
 -7 0 l 1,20,-1
 120 660 l 1,21,-1
 339 660 l 1,22,-1
 212 10 l 1,23,-1
 210 0 l 1,24,-1
 198 0 l 1,0,1
EndSplineSet
Validated: 1
Position2: "'cpsp' Capital Spacing lookup 3 subtable" dx=5 dy=0 dh=10 dv=0
EndChar

StartChar: Itilde
Encoding: 296 296 63
Width: 334
Flags: MW
HStem: 640 20G<120 339 339 339> 722 108<340 375 340 375> 740 107<128 162>
VStem: -7 449
LayerCount: 2
UndoRedoHistory
Layer: 0
Undoes
EndUndoes
Redoes
EndRedoes
EndUndoRedoHistory
UndoRedoHistory
Layer: 1
Undoes
EndUndoes
Redoes
EndRedoes
EndUndoRedoHistory
Fore
SplineSet
-7 0 m 1,0,-1
 120 660 l 1,1,-1
 339 660 l 1,2,-1
 210 0 l 1,3,-1
 -7 0 l 1,0,-1
423 847 m 1,4,5
 442 824 442 824 442 796 c 0,6,7
 442 760 442 760 416.5 741 c 128,-1,8
 391 722 391 722 346 722 c 0,9,10
 321 722 321 722 241 731 c 128,-1,11
 161 740 161 740 142 740 c 0,12,13
 102 740 102 740 75 723 c 1,14,15
 55 751 55 751 55 780 c 0,16,17
 55 812 55 812 80.5 829.5 c 128,-1,18
 106 847 106 847 154 847 c 0,19,20
 183 847 183 847 262 838.5 c 128,-1,21
 341 830 341 830 363 830 c 0,22,23
 406 830 406 830 423 847 c 1,4,5
EndSplineSet
Validated: 8388609
Position2: "'cpsp' Capital Spacing lookup 3 subtable" dx=5 dy=0 dh=10 dv=0
EndChar

StartChar: J
Encoding: 74 74 64
Width: 334
Flags: MW
HStem: 640 20G<122 338 338 338>
VStem: -120 458
LayerCount: 2
UndoRedoHistory
Layer: 0
Undoes
EndUndoes
Redoes
EndRedoes
EndUndoRedoHistory
UndoRedoHistory
Layer: 1
Undoes
EndUndoes
Redoes
EndRedoes
EndUndoRedoHistory
Fore
SplineSet
241 154 m 2,0,1
 217 28 217 28 184 -47.5 c 128,-1,2
 151 -123 151 -123 105 -156.5 c 128,-1,3
 59 -190 59 -190 -7 -190 c 0,4,5
 -98 -190 -98 -190 -120 -138 c 1,6,7
 -89 -125 -89 -125 -71.5 -111 c 128,-1,8
 -54 -97 -54 -97 -36.5 -65 c 128,-1,9
 -19 -33 -19 -33 -5.5 17.5 c 128,-1,10
 8 68 8 68 25 154 c 2,11,-1
 122 660 l 1,12,-1
 338 660 l 1,13,-1
 241 154 l 2,0,1
EndSplineSet
Validated: 1
Position2: "'cpsp' Capital Spacing lookup 3 subtable" dx=5 dy=0 dh=10 dv=0
EndChar

StartChar: Jcircumflex
Encoding: 308 308 65
Width: 334
Flags: MW
HStem: 640 20G<122 338 338 338>
VStem: -120 529
LayerCount: 2
UndoRedoHistory
Layer: 0
Undoes
EndUndoes
Redoes
EndRedoes
EndUndoRedoHistory
UndoRedoHistory
Layer: 1
Undoes
EndUndoes
Redoes
EndRedoes
EndUndoRedoHistory
Fore
SplineSet
241 154 m 2,0,1
 217 28 217 28 184 -47.5 c 128,-1,2
 151 -123 151 -123 105 -156.5 c 128,-1,3
 59 -190 59 -190 -7 -190 c 0,4,5
 -98 -190 -98 -190 -120 -138 c 1,6,7
 -89 -125 -89 -125 -71.5 -111 c 128,-1,8
 -54 -97 -54 -97 -36.5 -65 c 128,-1,9
 -19 -33 -19 -33 -5.5 17.5 c 128,-1,10
 8 68 8 68 25 154 c 2,11,-1
 122 660 l 1,12,-1
 338 660 l 1,13,-1
 241 154 l 2,0,1
359 687 m 1,14,-1
 243 739 l 1,15,-1
 95 687 l 1,16,-1
 64 733 l 1,17,-1
 231 849 l 1,18,-1
 276 849 l 1,19,-1
 409 733 l 1,20,-1
 359 687 l 1,14,-1
EndSplineSet
Validated: 1
Position2: "'cpsp' Capital Spacing lookup 3 subtable" dx=5 dy=0 dh=10 dv=0
EndChar

StartChar: K
Encoding: 75 75 66
Width: 640
Flags: MW
HStem: 640 20G<120 333 333 333 534 752 752 752>
VStem: -5 757<0 660>
LayerCount: 2
UndoRedoHistory
Layer: 0
Undoes
EndUndoes
Redoes
EndRedoes
EndUndoRedoHistory
UndoRedoHistory
Layer: 1
Undoes
EndUndoes
Redoes
EndRedoes
EndUndoRedoHistory
Fore
SplineSet
752 660 m 1,0,1
 713 619 713 619 676.5 577.5 c 128,-1,2
 640 536 640 536 613.5 506 c 128,-1,3
 587 476 587 476 561 444.5 c 0,4,5
 535 414 535 414 521 396 c 2,6,-1
 491 358 l 2,7,8
 475 338 475 338 473 336 c 1,9,10
 540 107 540 107 630 59 c 1,11,12
 605 -20 605 -20 511 -20 c 0,13,14
 482 -20 482 -20 457 -11 c 128,-1,15
 432 -2 432 -2 413.5 13 c 128,-1,16
 395 28 395 28 378.5 54 c 128,-1,17
 362 80 362 80 350.5 105.5 c 128,-1,18
 339 131 339 131 327.5 170.5 c 128,-1,19
 316 210 316 210 308.5 244 c 128,-1,20
 301 278 301 278 291 328 c 1,21,-1
 534 660 l 1,22,-1
 752 660 l 1,0,1
207 0 m 1,23,-1
 -5 0 l 1,24,25
 97 554 97 554 120 660 c 1,26,-1
 333 660 l 1,27,-1
 207 0 l 1,23,-1
EndSplineSet
Validated: 524289
Position2: "'cpsp' Capital Spacing lookup 3 subtable" dx=5 dy=0 dh=10 dv=0
EndChar

StartChar: Kcommaaccent
Encoding: 310 310 67
Width: 640
Flags: MW
HStem: 640 20G<120 333 333 333 534 752 752 752>
VStem: 223 134<-146 -108>
LayerCount: 2
UndoRedoHistory
Layer: 0
Undoes
EndUndoes
Redoes
EndRedoes
EndUndoRedoHistory
UndoRedoHistory
Layer: 1
Undoes
EndUndoes
Redoes
EndRedoes
EndUndoRedoHistory
Fore
SplineSet
357 -119 m 0,0,1
 357 -151 357 -151 341.5 -178.5 c 128,-1,2
 326 -206 326 -206 301.5 -222.5 c 128,-1,3
 277 -239 277 -239 250 -248.5 c 128,-1,4
 223 -258 223 -258 198 -258 c 128,-1,5
 173 -258 173 -258 159 -254 c 1,6,7
 193 -216 193 -216 208 -187.5 c 128,-1,8
 223 -159 223 -159 223 -117 c 0,9,10
 223 -89 223 -89 213 -66 c 1,11,12
 220 -61 220 -61 240.5 -56 c 128,-1,13
 261 -51 261 -51 275 -51 c 0,14,15
 313 -51 313 -51 335 -70 c 128,-1,16
 357 -89 357 -89 357 -119 c 0,0,1
752 660 m 1,17,18
 713 619 713 619 676.5 577.5 c 128,-1,19
 640 536 640 536 613.5 506 c 128,-1,20
 587 476 587 476 561 444.5 c 0,21,22
 535 414 535 414 521 396 c 2,23,-1
 491 358 l 2,24,25
 475 338 475 338 473 336 c 1,26,27
 540 107 540 107 630 59 c 1,28,29
 605 -20 605 -20 511 -20 c 0,30,31
 482 -20 482 -20 457 -11 c 128,-1,32
 432 -2 432 -2 413.5 13 c 128,-1,33
 395 28 395 28 378.5 54 c 128,-1,34
 362 80 362 80 350.5 105.5 c 128,-1,35
 339 131 339 131 327.5 170.5 c 128,-1,36
 316 210 316 210 308.5 244 c 128,-1,37
 301 278 301 278 291 328 c 1,38,-1
 534 660 l 1,39,-1
 752 660 l 1,17,18
-5 0 m 1,40,41
 97 554 97 554 120 660 c 1,42,-1
 333 660 l 1,43,-1
 207 0 l 1,44,-1
 -5 0 l 1,40,41
EndSplineSet
Validated: 524289
Position2: "'cpsp' Capital Spacing lookup 3 subtable" dx=5 dy=0 dh=10 dv=0
EndChar

StartChar: L
Encoding: 76 76 68
Width: 441
Flags: MW
HStem: 0 120<240 318> 640 20G<120 338 338 338>
VStem: -1 443<0 83>
LayerCount: 2
UndoRedoHistory
Layer: 0
Undoes
EndUndoes
Redoes
EndRedoes
EndUndoRedoHistory
UndoRedoHistory
Layer: 1
Undoes
EndUndoes
Redoes
EndRedoes
EndUndoRedoHistory
Fore
SplineSet
120 660 m 1,0,-1
 338 660 l 1,1,-1
 240 120 l 1,2,-1
 329 120 l 2,3,4
 396 120 396 120 428 130 c 1,5,6
 442 111 442 111 442 75 c 0,7,8
 442 53 442 53 432 37 c 128,-1,9
 422 21 422 21 403 13.5 c 128,-1,10
 384 6 384 6 364 3 c 128,-1,11
 344 0 344 0 318 0 c 2,12,-1
 -1 0 l 1,13,-1
 120 660 l 1,0,-1
EndSplineSet
Validated: 1
Position2: "'cpsp' Capital Spacing lookup 3 subtable" dx=5 dy=0 dh=10 dv=0
EndChar

StartChar: LJ
Encoding: 455 455 69
Width: 777
Flags: MW
HStem: 0 120<240 318> 640 20G<120 338 338 338 564 780 780 780>
VStem: -1 781<0 660>
LayerCount: 2
UndoRedoHistory
Layer: 0
Undoes
EndUndoes
Redoes
EndRedoes
EndUndoRedoHistory
UndoRedoHistory
Layer: 1
Undoes
EndUndoes
Redoes
EndRedoes
EndUndoRedoHistory
Fore
SplineSet
683 154 m 2,0,1
 659 28 659 28 626 -47.5 c 128,-1,2
 593 -123 593 -123 547 -156.5 c 128,-1,3
 501 -190 501 -190 435 -190 c 0,4,5
 344 -190 344 -190 322 -138 c 1,6,7
 353 -125 353 -125 370.5 -111 c 128,-1,8
 388 -97 388 -97 405.5 -65 c 128,-1,9
 423 -33 423 -33 436.5 17.5 c 128,-1,10
 450 68 450 68 467 154 c 2,11,-1
 564 660 l 1,12,-1
 780 660 l 1,13,-1
 683 154 l 2,0,1
338 660 m 1,14,-1
 240 120 l 1,15,-1
 329 120 l 2,16,17
 396 120 396 120 428 130 c 1,18,19
 442 111 442 111 442 75 c 0,20,21
 442 53 442 53 432 37 c 128,-1,22
 422 21 422 21 403 13.5 c 128,-1,23
 384 6 384 6 364 3 c 128,-1,24
 344 0 344 0 318 0 c 2,25,-1
 -1 0 l 1,26,-1
 120 660 l 1,27,-1
 338 660 l 1,14,-1
EndSplineSet
Validated: 1
Position2: "'cpsp' Capital Spacing lookup 3 subtable" dx=5 dy=0 dh=10 dv=0
EndChar

StartChar: Lacute
Encoding: 313 313 70
Width: 441
Flags: MW
HStem: 0 120<240 318> 640 20G<120 338 338 338>
VStem: -1 443<0 83>
LayerCount: 2
UndoRedoHistory
Layer: 0
Undoes
EndUndoes
Redoes
EndRedoes
EndUndoRedoHistory
UndoRedoHistory
Layer: 1
Undoes
EndUndoes
Redoes
EndRedoes
EndUndoRedoHistory
Fore
SplineSet
338 660 m 1,0,-1
 240 120 l 1,1,-1
 329 120 l 2,2,3
 396 120 396 120 428 130 c 1,4,5
 442 111 442 111 442 75 c 0,6,7
 442 53 442 53 432 37 c 128,-1,8
 422 21 422 21 403 13.5 c 128,-1,9
 384 6 384 6 364 3 c 128,-1,10
 344 0 344 0 318 0 c 2,11,-1
 -1 0 l 1,12,-1
 120 660 l 1,13,-1
 338 660 l 1,0,-1
149 759 m 1,14,-1
 394 861 l 1,15,16
 422 840 422 840 422 807 c 0,17,18
 422 782 422 782 410 764 c 128,-1,19
 398 746 398 746 377.5 735.5 c 128,-1,20
 357 725 357 725 333 720 c 128,-1,21
 309 715 309 715 280 714 c 2,22,-1
 161 710 l 1,23,-1
 149 759 l 1,14,-1
EndSplineSet
Validated: 1
Position2: "'cpsp' Capital Spacing lookup 3 subtable" dx=5 dy=0 dh=10 dv=0
EndChar

StartChar: Lcaron
Encoding: 317 317 71
Width: 441
Flags: MW
HStem: 0 120<240 318> 510 20G 524 136<120 437> 698 20G<452 482>
VStem: 410 122<631 660>
LayerCount: 2
UndoRedoHistory
Layer: 0
Undoes
EndUndoes
Redoes
EndRedoes
EndUndoRedoHistory
UndoRedoHistory
Layer: 1
Undoes
EndUndoes
Redoes
EndRedoes
EndUndoRedoHistory
Fore
SplineSet
338 660 m 1,0,-1
 240 120 l 1,1,-1
 329 120 l 2,2,3
 396 120 396 120 428 130 c 1,4,5
 442 111 442 111 442 75 c 0,6,7
 442 53 442 53 432 37 c 128,-1,8
 422 21 422 21 403 13.5 c 128,-1,9
 384 6 384 6 364 3 c 128,-1,10
 344 0 344 0 318 0 c 2,11,-1
 -1 0 l 1,12,-1
 120 660 l 1,13,-1
 338 660 l 1,0,-1
401 704 m 1,14,15
 429 718 429 718 462 718 c 0,16,17
 493 718 493 718 512.5 697 c 128,-1,18
 532 676 532 676 532 640 c 0,19,20
 532 599 532 599 493 561.5 c 128,-1,21
 454 524 454 524 397 524 c 0,22,23
 379 524 379 524 362 530 c 1,24,25
 410 585 410 585 410 648 c 0,26,27
 410 674 410 674 401 704 c 1,14,15
EndSplineSet
Validated: 8388609
Position2: "'cpsp' Capital Spacing lookup 3 subtable" dx=5 dy=0 dh=10 dv=0
EndChar

StartChar: Lcommaaccent
Encoding: 315 315 72
Width: 441
Flags: MW
HStem: 0 120<240 318> 640 20G<120 338 338 338>
VStem: 122 134<-146 -108>
LayerCount: 2
UndoRedoHistory
Layer: 0
Undoes
EndUndoes
Redoes
EndRedoes
EndUndoRedoHistory
UndoRedoHistory
Layer: 1
Undoes
EndUndoes
Redoes
EndRedoes
EndUndoRedoHistory
Fore
SplineSet
256 -119 m 0,0,1
 256 -151 256 -151 240.5 -178.5 c 128,-1,2
 225 -206 225 -206 200.5 -222.5 c 128,-1,3
 176 -239 176 -239 149 -248.5 c 128,-1,4
 122 -258 122 -258 97 -258 c 0,5,6
 72 -258 72 -258 58 -254 c 1,7,8
 92 -216 92 -216 107 -187.5 c 128,-1,9
 122 -159 122 -159 122 -117 c 0,10,11
 122 -89 122 -89 112 -66 c 1,12,13
 119 -61 119 -61 139.5 -56 c 128,-1,14
 160 -51 160 -51 174 -51 c 0,15,16
 212 -51 212 -51 234 -70 c 128,-1,17
 256 -89 256 -89 256 -119 c 0,0,1
338 660 m 1,18,-1
 240 120 l 1,19,-1
 329 120 l 2,20,21
 396 120 396 120 428 130 c 1,22,23
 442 111 442 111 442 75 c 0,24,25
 442 53 442 53 432 37 c 128,-1,26
 422 21 422 21 403 13.5 c 128,-1,27
 384 6 384 6 364 3 c 128,-1,28
 344 0 344 0 318 0 c 2,29,-1
 -1 0 l 1,30,-1
 120 660 l 1,31,-1
 338 660 l 1,18,-1
EndSplineSet
Validated: 1
Position2: "'cpsp' Capital Spacing lookup 3 subtable" dx=5 dy=0 dh=10 dv=0
EndChar

StartChar: Ldot
Encoding: 319 319 73
Width: 441
Flags: MW
HStem: 0 120<240 318> 640 20G<120 338 338 338>
VStem: -1 446<0 360>
LayerCount: 2
UndoRedoHistory
Layer: 0
Undoes
EndUndoes
Redoes
EndRedoes
EndUndoRedoHistory
UndoRedoHistory
Layer: 1
Undoes
EndUndoes
Redoes
EndRedoes
EndUndoRedoHistory
Fore
SplineSet
392 395 m 0,0,1
 417 395 417 395 431 382 c 128,-1,2
 445 369 445 369 445 344 c 0,3,4
 445 338 445 338 443 326 c 0,5,6
 436 294 436 294 414 275 c 128,-1,7
 392 256 392 256 361 256 c 0,8,9
 335 256 335 256 320.5 269.5 c 128,-1,10
 306 283 306 283 306 306 c 0,11,12
 306 311 306 311 308 323 c 0,13,14
 314 356 314 356 337.5 375.5 c 128,-1,15
 361 395 361 395 392 395 c 0,0,1
338 660 m 1,16,-1
 240 120 l 1,17,-1
 329 120 l 2,18,19
 396 120 396 120 428 130 c 1,20,21
 442 111 442 111 442 75 c 0,22,23
 442 53 442 53 432 37 c 128,-1,24
 422 21 422 21 403 13.5 c 128,-1,25
 384 6 384 6 364 3 c 128,-1,26
 344 0 344 0 318 0 c 2,27,-1
 -1 0 l 1,28,-1
 120 660 l 1,29,-1
 338 660 l 1,16,-1
EndSplineSet
Validated: 1
Ligature2: "Ligature Substitution lookup 20 subtable" L periodcentered
Position2: "'cpsp' Capital Spacing lookup 3 subtable" dx=5 dy=0 dh=10 dv=0
EndChar

StartChar: Lj
Encoding: 456 456 74
Width: 744
Flags: MW
HStem: -200 74 0 120<240 318> 510 20G 590 160<635 693> 640 20G<120 338 338 338>
VStem: -1 772<0 695> 555 216<644 694>
LayerCount: 2
UndoRedoHistory
Layer: 0
Undoes
EndUndoes
Redoes
EndRedoes
EndUndoRedoHistory
UndoRedoHistory
Layer: 1
Undoes
EndUndoes
Redoes
EndRedoes
EndUndoRedoHistory
Fore
SplineSet
658 91 m 2,0,1
 628 -60 628 -60 579 -130 c 128,-1,2
 530 -200 530 -200 443 -200 c 0,3,4
 398 -200 398 -200 366 -182 c 128,-1,5
 334 -164 334 -164 324 -126 c 1,6,7
 381 -124 381 -124 410.5 -72 c 128,-1,8
 440 -20 440 -20 466 112 c 2,9,-1
 543 510 l 1,10,-1
 743 530 l 1,11,-1
 658 91 l 2,0,1
338 660 m 1,12,-1
 240 120 l 1,13,-1
 329 120 l 2,14,15
 396 120 396 120 428 130 c 1,16,17
 442 111 442 111 442 75 c 0,18,19
 442 53 442 53 432 37 c 128,-1,20
 422 21 422 21 403 13.5 c 128,-1,21
 384 6 384 6 364 3 c 128,-1,22
 344 0 344 0 318 0 c 2,23,-1
 -1 0 l 1,24,-1
 120 660 l 1,25,-1
 338 660 l 1,12,-1
666 750 m 0,26,27
 713 750 713 750 742 729 c 128,-1,28
 771 708 771 708 771 670 c 0,29,30
 771 631 771 631 740.5 610.5 c 128,-1,31
 710 590 710 590 662 590 c 0,32,33
 614 590 614 590 584.5 610.5 c 128,-1,34
 555 631 555 631 555 668 c 0,35,36
 555 707 555 707 586.5 728.5 c 128,-1,37
 618 750 618 750 666 750 c 0,26,27
EndSplineSet
Validated: 8388609
Position2: "'cpsp' Capital Spacing lookup 3 subtable" dx=5 dy=0 dh=10 dv=0
EndChar

StartChar: Lslash
Encoding: 321 321 75
Width: 498
Flags: MW
HStem: 0 120<297 375> 640 20G<177 395 395 395>
VStem: -7 506<43 256>
LayerCount: 2
UndoRedoHistory
Layer: 0
Undoes
EndUndoes
Redoes
EndRedoes
EndUndoRedoHistory
UndoRedoHistory
Layer: 1
Undoes
EndUndoes
Redoes
EndRedoes
EndUndoRedoHistory
Fore
SplineSet
386 120 m 2,0,1
 453 120 453 120 485 130 c 1,2,3
 499 111 499 111 499 75 c 0,4,5
 499 53 499 53 489 37 c 128,-1,6
 479 21 479 21 460 13.5 c 128,-1,7
 441 6 441 6 421 3 c 128,-1,8
 401 0 401 0 375 0 c 2,9,-1
 56 0 l 1,10,-1
 98 229 l 1,11,-1
 14 199 l 1,12,13
 -7 219 -7 219 -7 245 c 0,14,15
 -7 288 -7 288 38 304 c 2,16,-1
 117 333 l 1,17,-1
 177 660 l 1,18,-1
 395 660 l 1,19,-1
 351 419 l 1,20,-1
 438 451 l 1,21,22
 457 434 457 434 457 402 c 0,23,24
 457 378 457 378 440.5 362 c 128,-1,25
 424 346 424 346 387 333 c 2,26,-1
 332 313 l 1,27,-1
 297 120 l 1,28,-1
 386 120 l 2,0,1
EndSplineSet
Validated: 1
Position2: "'cpsp' Capital Spacing lookup 3 subtable" dx=5 dy=0 dh=10 dv=0
EndChar

StartChar: M
Encoding: 77 77 76
Width: 810
Flags: MW
HStem: 640 20G<140 348 348 348 588 788 788 788>
VStem: 561 193<57 129>
LayerCount: 2
UndoRedoHistory
Layer: 0
Undoes
EndUndoes
Redoes
EndRedoes
EndUndoRedoHistory
UndoRedoHistory
Layer: 1
Undoes
EndUndoes
Redoes
EndRedoes
EndUndoRedoHistory
Fore
SplineSet
788 660 m 1,0,-1
 756 175 l 2,1,2
 754 151 754 151 754 124 c 0,3,4
 754 56 754 56 786 33 c 1,5,6
 772 10 772 10 740 -5 c 128,-1,7
 708 -20 708 -20 666 -20 c 0,8,9
 561 -20 561 -20 561 93 c 0,10,11
 561 113 561 113 563 139 c 2,12,-1
 590 450 l 1,13,-1
 390 0 l 1,14,-1
 273 0 l 1,15,-1
 191 450 l 1,16,-1
 94 0 l 1,17,-1
 -21 0 l 1,18,-1
 140 660 l 1,19,-1
 348 660 l 1,20,-1
 418 289 l 1,21,-1
 588 660 l 1,22,-1
 788 660 l 1,0,-1
EndSplineSet
Validated: 1
Position2: "'cpsp' Capital Spacing lookup 3 subtable" dx=5 dy=0 dh=10 dv=0
EndChar

StartChar: N
Encoding: 78 78 77
Width: 686
Flags: MW
HStem: 640 20G<120 335 335 335 566 684 684 684>
VStem: 0 684<0 660>
LayerCount: 2
UndoRedoHistory
Layer: 0
Undoes
EndUndoes
Redoes
EndRedoes
EndUndoRedoHistory
UndoRedoHistory
Layer: 1
Undoes
EndUndoes
Redoes
EndRedoes
EndUndoRedoHistory
Fore
SplineSet
0 0 m 1,0,-1
 120 660 l 1,1,-1
 335 660 l 1,2,-1
 490 205 l 1,3,-1
 566 660 l 1,4,-1
 684 660 l 1,5,-1
 562 0 l 1,6,-1
 334 0 l 1,7,-1
 190 438 l 1,8,-1
 117 0 l 1,9,-1
 0 0 l 1,0,-1
EndSplineSet
Validated: 1
Position2: "'cpsp' Capital Spacing lookup 3 subtable" dx=5 dy=0 dh=10 dv=0
EndChar

StartChar: NJ
Encoding: 458 458 78
Width: 1021
Flags: MW
HStem: 640 20G<120 335 335 335 566 684 684 684 809 1025 1025 1025>
VStem: 0 1025<0 660>
LayerCount: 2
UndoRedoHistory
Layer: 0
Undoes
EndUndoes
Redoes
EndRedoes
EndUndoRedoHistory
UndoRedoHistory
Layer: 1
Undoes
EndUndoes
Redoes
EndRedoes
EndUndoRedoHistory
Fore
SplineSet
928 154 m 2,0,1
 904 28 904 28 871 -47.5 c 128,-1,2
 838 -123 838 -123 792 -156.5 c 128,-1,3
 746 -190 746 -190 680 -190 c 0,4,5
 589 -190 589 -190 567 -138 c 1,6,7
 598 -125 598 -125 615.5 -111 c 128,-1,8
 633 -97 633 -97 650.5 -65 c 128,-1,9
 668 -33 668 -33 681.5 17.5 c 128,-1,10
 695 68 695 68 712 154 c 2,11,-1
 809 660 l 1,12,-1
 1025 660 l 1,13,-1
 928 154 l 2,0,1
120 660 m 1,14,-1
 335 660 l 1,15,-1
 490 205 l 1,16,-1
 566 660 l 1,17,-1
 684 660 l 1,18,-1
 562 0 l 1,19,-1
 334 0 l 1,20,-1
 190 438 l 1,21,-1
 117 0 l 1,22,-1
 0 0 l 1,23,-1
 120 660 l 1,14,-1
EndSplineSet
Validated: 1
Position2: "'cpsp' Capital Spacing lookup 3 subtable" dx=5 dy=0 dh=10 dv=0
EndChar

StartChar: Nacute
Encoding: 323 323 79
Width: 686
Flags: MW
HStem: 640 20G<120 335 335 335 566 684 684 684>
VStem: 0 684<0 660>
LayerCount: 2
UndoRedoHistory
Layer: 0
Undoes
EndUndoes
Redoes
EndRedoes
EndUndoRedoHistory
UndoRedoHistory
Layer: 1
Undoes
EndUndoes
Redoes
EndRedoes
EndUndoRedoHistory
Fore
SplineSet
120 660 m 1,0,-1
 335 660 l 1,1,-1
 490 205 l 1,2,-1
 566 660 l 1,3,-1
 684 660 l 1,4,-1
 562 0 l 1,5,-1
 334 0 l 1,6,-1
 190 438 l 1,7,-1
 117 0 l 1,8,-1
 0 0 l 1,9,-1
 120 660 l 1,0,-1
336 759 m 1,10,-1
 581 861 l 1,11,12
 609 840 609 840 609 807 c 0,13,14
 609 782 609 782 597 764 c 128,-1,15
 585 746 585 746 564.5 735.5 c 128,-1,16
 544 725 544 725 520 720 c 128,-1,17
 496 715 496 715 467 714 c 2,18,-1
 348 710 l 1,19,-1
 336 759 l 1,10,-1
EndSplineSet
Validated: 1
Substitution2: "'locl' Localized Forms in Latin lookup 13 subtable" Nacute.loclPLK
Substitution2: "'aalt' Access All Alternates lookup 0 subtable" Nacute.loclPLK
Position2: "'cpsp' Capital Spacing lookup 3 subtable" dx=5 dy=0 dh=10 dv=0
EndChar

StartChar: Ncaron
Encoding: 327 327 80
Width: 686
Flags: MW
HStem: 640 20G<120 335 335 335 566 684 684 684>
VStem: 0 684<0 660>
LayerCount: 2
UndoRedoHistory
Layer: 0
Undoes
EndUndoes
Redoes
EndRedoes
EndUndoRedoHistory
UndoRedoHistory
Layer: 1
Undoes
EndUndoes
Redoes
EndRedoes
EndUndoRedoHistory
Fore
SplineSet
120 660 m 1,0,-1
 335 660 l 1,1,-1
 490 205 l 1,2,-1
 566 660 l 1,3,-1
 684 660 l 1,4,-1
 562 0 l 1,5,-1
 334 0 l 1,6,-1
 190 438 l 1,7,-1
 117 0 l 1,8,-1
 0 0 l 1,9,-1
 120 660 l 1,0,-1
322 854 m 1,10,-1
 439 802 l 1,11,-1
 587 854 l 1,12,-1
 618 808 l 1,13,-1
 461 692 l 1,14,-1
 395 692 l 1,15,-1
 272 808 l 1,16,-1
 322 854 l 1,10,-1
EndSplineSet
Validated: 1
Position2: "'cpsp' Capital Spacing lookup 3 subtable" dx=5 dy=0 dh=10 dv=0
EndChar

StartChar: Ncommaaccent
Encoding: 325 325 81
Width: 686
Flags: MW
HStem: 640 20G<120 335 335 335 566 684 684 684>
VStem: 239 134<-146 -108>
LayerCount: 2
UndoRedoHistory
Layer: 0
Undoes
EndUndoes
Redoes
EndRedoes
EndUndoRedoHistory
UndoRedoHistory
Layer: 1
Undoes
EndUndoes
Redoes
EndRedoes
EndUndoRedoHistory
Fore
SplineSet
373 -119 m 0,0,1
 373 -151 373 -151 357.5 -178.5 c 128,-1,2
 342 -206 342 -206 317.5 -222.5 c 128,-1,3
 293 -239 293 -239 266 -248.5 c 128,-1,4
 239 -258 239 -258 214 -258 c 0,5,6
 189 -258 189 -258 175 -254 c 1,7,8
 209 -216 209 -216 224 -187.5 c 128,-1,9
 239 -159 239 -159 239 -117 c 0,10,11
 239 -88 239 -88 229 -66 c 1,12,13
 236 -61 236 -61 256.5 -56 c 128,-1,14
 277 -51 277 -51 291 -51 c 0,15,16
 329 -51 329 -51 351 -70 c 128,-1,17
 373 -89 373 -89 373 -119 c 0,0,1
120 660 m 1,18,-1
 335 660 l 1,19,-1
 490 205 l 1,20,-1
 566 660 l 1,21,-1
 684 660 l 1,22,-1
 562 0 l 1,23,-1
 334 0 l 1,24,-1
 190 438 l 1,25,-1
 117 0 l 1,26,-1
 0 0 l 1,27,-1
 120 660 l 1,18,-1
EndSplineSet
Validated: 1
Position2: "'cpsp' Capital Spacing lookup 3 subtable" dx=5 dy=0 dh=10 dv=0
EndChar

StartChar: Ndotaccent
Encoding: 7748 7748 82
Width: 686
Flags: MW
HStem: 640 20G<120 335 335 335 566 684 684 684> 690 152<398 454>
VStem: 0 684<0 660> 322 205<741 790>
LayerCount: 2
UndoRedoHistory
Layer: 0
Undoes
EndUndoes
Redoes
EndRedoes
EndUndoRedoHistory
UndoRedoHistory
Layer: 1
Undoes
EndUndoes
Redoes
EndRedoes
EndUndoRedoHistory
Fore
SplineSet
120 660 m 1,0,-1
 335 660 l 1,1,-1
 490 205 l 1,2,-1
 566 660 l 1,3,-1
 684 660 l 1,4,-1
 562 0 l 1,5,-1
 334 0 l 1,6,-1
 190 438 l 1,7,-1
 117 0 l 1,8,-1
 0 0 l 1,9,-1
 120 660 l 1,0,-1
428 842 m 0,10,11
 473 842 473 842 500 822 c 128,-1,12
 527 802 527 802 527 766 c 128,-1,13
 527 730 527 730 498.5 710 c 128,-1,14
 470 690 470 690 424 690 c 0,15,16
 379 690 379 690 350.5 709.5 c 128,-1,17
 322 729 322 729 322 764 c 0,18,19
 322 801 322 801 352 821.5 c 128,-1,20
 382 842 382 842 428 842 c 0,10,11
EndSplineSet
Validated: 8388609
Position2: "'cpsp' Capital Spacing lookup 3 subtable" dx=5 dy=0 dh=10 dv=0
EndChar

StartChar: Eng
Encoding: 330 330 83
Width: 686
Flags: MW
HStem: 640 20G<120 335 335 335 566 684 684 684>
VStem: 0 684<0 660>
LayerCount: 2
UndoRedoHistory
Layer: 0
Undoes
EndUndoes
Redoes
EndRedoes
EndUndoRedoHistory
UndoRedoHistory
Layer: 1
Undoes
EndUndoes
Redoes
EndRedoes
EndUndoRedoHistory
Fore
SplineSet
117 0 m 1,0,-1
 0 0 l 1,1,-1
 120 660 l 1,2,-1
 335 660 l 1,3,-1
 490 205 l 1,4,-1
 566 660 l 1,5,-1
 684 660 l 1,6,-1
 572 55 l 2,7,8
 547 -81 547 -81 509 -139 c 128,-1,9
 471 -197 471 -197 403 -197 c 0,10,11
 346 -197 346 -197 331 -163 c 1,12,13
 357 -154 357 -154 372.5 -145 c 128,-1,14
 388 -136 388 -136 404 -119 c 128,-1,15
 420 -102 420 -102 431.5 -73 c 128,-1,16
 443 -44 443 -44 452 0 c 1,17,-1
 339 0 l 1,18,-1
 190 438 l 1,19,-1
 117 0 l 1,0,-1
EndSplineSet
Validated: 1
Position2: "'cpsp' Capital Spacing lookup 3 subtable" dx=5 dy=0 dh=10 dv=0
EndChar

StartChar: Nj
Encoding: 459 459 84
Width: 988
Flags: MW
HStem: -200 74 510 20G 590 160<880 938> 640 20G<120 335 335 335 566 684 684 684>
VStem: 0 1016<0 695> 800 216<644 694>
LayerCount: 2
UndoRedoHistory
Layer: 0
Undoes
EndUndoes
Redoes
EndRedoes
EndUndoRedoHistory
UndoRedoHistory
Layer: 1
Undoes
EndUndoes
Redoes
EndRedoes
EndUndoRedoHistory
Fore
SplineSet
903 91 m 2,0,1
 873 -60 873 -60 824 -130 c 128,-1,2
 775 -200 775 -200 688 -200 c 0,3,4
 643 -200 643 -200 611 -182 c 128,-1,5
 579 -164 579 -164 569 -126 c 1,6,7
 627 -124 627 -124 656 -72 c 128,-1,8
 685 -20 685 -20 711 112 c 2,9,-1
 788 510 l 1,10,-1
 988 530 l 1,11,-1
 903 91 l 2,0,1
120 660 m 1,12,-1
 335 660 l 1,13,-1
 490 205 l 1,14,-1
 566 660 l 1,15,-1
 684 660 l 1,16,-1
 562 0 l 1,17,-1
 334 0 l 1,18,-1
 190 438 l 1,19,-1
 117 0 l 1,20,-1
 0 0 l 1,21,-1
 120 660 l 1,12,-1
911 750 m 0,22,23
 958 750 958 750 987 729 c 128,-1,24
 1016 708 1016 708 1016 670 c 0,25,26
 1016 631 1016 631 986 610.5 c 128,-1,27
 956 590 956 590 907 590 c 0,28,29
 859 590 859 590 829.5 610.5 c 128,-1,30
 800 631 800 631 800 668 c 0,31,32
 800 707 800 707 831.5 728.5 c 128,-1,33
 863 750 863 750 911 750 c 0,22,23
EndSplineSet
Validated: 8388609
Position2: "'cpsp' Capital Spacing lookup 3 subtable" dx=5 dy=0 dh=10 dv=0
EndChar

StartChar: Ntilde
Encoding: 209 209 85
Width: 686
Flags: MW
HStem: 640 20G<120 335 335 335 566 684 684 684> 722 108<518 554 518 554> 740 107<306 340>
VStem: 0 684<0 660>
LayerCount: 2
UndoRedoHistory
Layer: 0
Undoes
EndUndoes
Redoes
EndRedoes
EndUndoRedoHistory
UndoRedoHistory
Layer: 1
Undoes
EndUndoes
Redoes
EndRedoes
EndUndoRedoHistory
Fore
SplineSet
120 660 m 1,0,-1
 335 660 l 1,1,-1
 490 205 l 1,2,-1
 566 660 l 1,3,-1
 684 660 l 1,4,-1
 562 0 l 1,5,-1
 334 0 l 1,6,-1
 190 438 l 1,7,-1
 117 0 l 1,8,-1
 0 0 l 1,9,-1
 120 660 l 1,0,-1
601 847 m 1,10,11
 620 824 620 824 620 796 c 0,12,13
 620 760 620 760 594.5 741 c 128,-1,14
 569 722 569 722 524 722 c 0,15,16
 499 722 499 722 419 731 c 128,-1,17
 339 740 339 740 320 740 c 0,18,19
 280 740 280 740 253 723 c 1,20,21
 233 751 233 751 233 780 c 0,22,23
 233 812 233 812 258.5 829.5 c 128,-1,24
 284 847 284 847 332 847 c 0,25,26
 361 847 361 847 440 838.5 c 128,-1,27
 519 830 519 830 541 830 c 0,28,29
 584 830 584 830 601 847 c 1,10,11
EndSplineSet
Validated: 8388609
Position2: "'cpsp' Capital Spacing lookup 3 subtable" dx=5 dy=0 dh=10 dv=0
EndChar

StartChar: O
Encoding: 79 79 86
Width: 688
Flags: MW
HStem: -20 71<270 329 270 407> 610 70<359 418>
VStem: 22 217<113 372> 450 217<289 547>
LayerCount: 2
UndoRedoHistory
Layer: 0
Undoes
EndUndoes
Redoes
EndRedoes
EndUndoRedoHistory
UndoRedoHistory
Layer: 1
Undoes
EndUndoes
Redoes
EndRedoes
EndUndoRedoHistory
Fore
SplineSet
395 610 m 0,0,1
 342 610 342 610 308.5 539.5 c 128,-1,2
 275 469 275 469 254 313 c 0,3,4
 239 198 239 198 239 138 c 0,5,6
 239 96 239 96 250 73.5 c 128,-1,7
 261 51 261 51 293 51 c 0,8,9
 347 51 347 51 380.5 121.5 c 128,-1,10
 414 192 414 192 435 348 c 0,11,12
 450 463 450 463 450 523 c 0,13,14
 450 565 450 565 438.5 587.5 c 128,-1,15
 427 610 427 610 395 610 c 0,0,1
408 680 m 0,16,17
 667 680 667 680 667 404 c 0,18,19
 667 335 667 335 651 271.5 c 128,-1,20
 635 208 635 208 603 155 c 128,-1,21
 571 102 571 102 525.5 63 c 128,-1,22
 480 24 480 24 417 2 c 128,-1,23
 354 -20 354 -20 281 -20 c 0,24,25
 22 -20 22 -20 22 257 c 0,26,27
 22 326 22 326 38 389 c 128,-1,28
 54 452 54 452 86 505 c 128,-1,29
 118 558 118 558 163.5 597 c 128,-1,30
 209 636 209 636 271.5 658 c 128,-1,31
 334 680 334 680 408 680 c 0,16,17
EndSplineSet
Validated: 1
Substitution2: "Single Substitution lookup 21 subtable" ordmasculine
Substitution2: "'aalt' Access All Alternates lookup 0 subtable" ordmasculine
Position2: "'cpsp' Capital Spacing lookup 3 subtable" dx=5 dy=0 dh=10 dv=0
EndChar

StartChar: Oacute
Encoding: 211 211 87
Width: 688
Flags: MW
HStem: -20 71<270 329 270 407> 610 70<359 418>
VStem: 22 217<113 372> 450 217<289 547>
LayerCount: 2
UndoRedoHistory
Layer: 0
Undoes
EndUndoes
Redoes
EndRedoes
EndUndoRedoHistory
UndoRedoHistory
Layer: 1
Undoes
EndUndoes
Redoes
EndRedoes
EndUndoRedoHistory
Fore
SplineSet
395 610 m 0,0,1
 342 610 342 610 308.5 539.5 c 128,-1,2
 275 469 275 469 254 313 c 0,3,4
 239 198 239 198 239 138 c 0,5,6
 239 96 239 96 250 73.5 c 128,-1,7
 261 51 261 51 293 51 c 0,8,9
 347 51 347 51 380.5 121.5 c 128,-1,10
 414 192 414 192 435 348 c 0,11,12
 450 463 450 463 450 523 c 0,13,14
 450 565 450 565 438.5 587.5 c 128,-1,15
 427 610 427 610 395 610 c 0,0,1
408 680 m 0,16,17
 667 680 667 680 667 404 c 0,18,19
 667 335 667 335 651 271.5 c 128,-1,20
 635 208 635 208 603 155 c 128,-1,21
 571 102 571 102 525.5 63 c 128,-1,22
 480 24 480 24 417 2 c 128,-1,23
 354 -20 354 -20 281 -20 c 0,24,25
 22 -20 22 -20 22 257 c 0,26,27
 22 326 22 326 38 389 c 128,-1,28
 54 452 54 452 86 505 c 128,-1,29
 118 558 118 558 163.5 597 c 128,-1,30
 209 636 209 636 271.5 658 c 128,-1,31
 334 680 334 680 408 680 c 0,16,17
328 759 m 1,32,-1
 573 861 l 1,33,34
 601 840 601 840 601 807 c 0,35,36
 601 782 601 782 589.5 764 c 128,-1,37
 578 746 578 746 557.5 735.5 c 128,-1,38
 537 725 537 725 512.5 720 c 128,-1,39
 488 715 488 715 459 714 c 2,40,-1
 340 710 l 1,41,-1
 328 759 l 1,32,-1
EndSplineSet
Validated: 1
Substitution2: "'locl' Localized Forms in Latin lookup 13 subtable" Oacute.loclPLK
Substitution2: "'aalt' Access All Alternates lookup 0 subtable" Oacute.loclPLK
Position2: "'cpsp' Capital Spacing lookup 3 subtable" dx=5 dy=0 dh=10 dv=0
EndChar

StartChar: Obreve
Encoding: 334 334 88
Width: 688
Flags: MW
HStem: -20 71<270 329 270 407> 610 70<359 418> 701 49<405 447 405 482>
VStem: 22 217<113 372> 239 148<789 802 789 812> 450 217<289 547>
LayerCount: 2
UndoRedoHistory
Layer: 0
Undoes
EndUndoes
Redoes
EndRedoes
EndUndoRedoHistory
UndoRedoHistory
Layer: 1
Undoes
EndUndoes
Redoes
EndRedoes
EndUndoRedoHistory
Fore
SplineSet
395 610 m 0,0,1
 342 610 342 610 308.5 539.5 c 128,-1,2
 275 469 275 469 254 313 c 0,3,4
 239 198 239 198 239 138 c 0,5,6
 239 96 239 96 250 73.5 c 128,-1,7
 261 51 261 51 293 51 c 0,8,9
 347 51 347 51 380.5 121.5 c 128,-1,10
 414 192 414 192 435 348 c 0,11,12
 450 463 450 463 450 523 c 0,13,14
 450 565 450 565 438.5 587.5 c 128,-1,15
 427 610 427 610 395 610 c 0,0,1
408 680 m 0,16,17
 667 680 667 680 667 404 c 0,18,19
 667 335 667 335 651 271.5 c 128,-1,20
 635 208 635 208 603 155 c 128,-1,21
 571 102 571 102 525.5 63 c 128,-1,22
 480 24 480 24 417 2 c 128,-1,23
 354 -20 354 -20 281 -20 c 0,24,25
 22 -20 22 -20 22 257 c 0,26,27
 22 326 22 326 38 389 c 128,-1,28
 54 452 54 452 86 505 c 128,-1,29
 118 558 118 558 163.5 597 c 128,-1,30
 209 636 209 636 271.5 658 c 128,-1,31
 334 680 334 680 408 680 c 0,16,17
391 834 m 1,32,33
 387 806 387 806 387 796 c 0,34,35
 387 788 387 788 388 782 c 128,-1,36
 389 776 389 776 392 767.5 c 128,-1,37
 395 759 395 759 403 754.5 c 128,-1,38
 411 750 411 750 423 750 c 0,39,40
 437 750 437 750 448 756 c 128,-1,41
 459 762 459 762 465 768.5 c 128,-1,42
 471 775 471 775 476.5 789 c 128,-1,43
 482 803 482 803 484 810 c 128,-1,44
 486 817 486 817 490 834 c 1,45,-1
 634 834 l 1,46,47
 621 774 621 774 566 737.5 c 128,-1,48
 511 701 511 701 413 701 c 0,49,50
 330 701 330 701 284.5 731.5 c 128,-1,51
 239 762 239 762 239 807 c 0,52,53
 239 817 239 817 242 834 c 1,54,-1
 391 834 l 1,32,33
EndSplineSet
Validated: 8388609
Position2: "'cpsp' Capital Spacing lookup 3 subtable" dx=5 dy=0 dh=10 dv=0
EndChar

StartChar: Ocircumflex
Encoding: 212 212 89
Width: 688
Flags: MW
HStem: -20 71<270 329 270 407> 610 70<359 418>
VStem: 22 217<113 372> 450 217<289 547>
LayerCount: 2
UndoRedoHistory
Layer: 0
Undoes
EndUndoes
Redoes
EndRedoes
EndUndoRedoHistory
UndoRedoHistory
Layer: 1
Undoes
EndUndoes
Redoes
EndRedoes
EndUndoRedoHistory
Fore
SplineSet
395 610 m 0,0,1
 342 610 342 610 308.5 539.5 c 128,-1,2
 275 469 275 469 254 313 c 0,3,4
 239 198 239 198 239 138 c 0,5,6
 239 96 239 96 250 73.5 c 128,-1,7
 261 51 261 51 293 51 c 0,8,9
 347 51 347 51 380.5 121.5 c 128,-1,10
 414 192 414 192 435 348 c 0,11,12
 450 463 450 463 450 523 c 0,13,14
 450 565 450 565 438.5 587.5 c 128,-1,15
 427 610 427 610 395 610 c 0,0,1
408 680 m 0,16,17
 667 680 667 680 667 404 c 0,18,19
 667 335 667 335 651 271.5 c 128,-1,20
 635 208 635 208 603 155 c 128,-1,21
 571 102 571 102 525.5 63 c 128,-1,22
 480 24 480 24 417 2 c 128,-1,23
 354 -20 354 -20 281 -20 c 0,24,25
 22 -20 22 -20 22 257 c 0,26,27
 22 326 22 326 38 389 c 128,-1,28
 54 452 54 452 86 505 c 128,-1,29
 118 558 118 558 163.5 597 c 128,-1,30
 209 636 209 636 271.5 658 c 128,-1,31
 334 680 334 680 408 680 c 0,16,17
532 687 m 1,32,-1
 416 739 l 1,33,-1
 268 687 l 1,34,-1
 237 733 l 1,35,-1
 404 849 l 1,36,-1
 449 849 l 1,37,-1
 582 733 l 1,38,-1
 532 687 l 1,32,-1
EndSplineSet
Validated: 1
Position2: "'cpsp' Capital Spacing lookup 3 subtable" dx=5 dy=0 dh=10 dv=0
EndChar

StartChar: Odieresis
Encoding: 214 214 90
Width: 688
Flags: MW
HStem: -20 71<270 329 270 407> 610 70<359 418> 690 152<278 333 513 567>
VStem: 22 217<113 372> 202 205<741 790> 436 205<741 790> 450 217<289 547>
LayerCount: 2
UndoRedoHistory
Layer: 0
Undoes
EndUndoes
Redoes
EndRedoes
EndUndoRedoHistory
UndoRedoHistory
Layer: 1
Undoes
EndUndoes
Redoes
EndRedoes
EndUndoRedoHistory
Fore
SplineSet
395 610 m 0,0,1
 342 610 342 610 308.5 539.5 c 128,-1,2
 275 469 275 469 254 313 c 0,3,4
 239 198 239 198 239 138 c 0,5,6
 239 96 239 96 250 73.5 c 128,-1,7
 261 51 261 51 293 51 c 0,8,9
 347 51 347 51 380.5 121.5 c 128,-1,10
 414 192 414 192 435 348 c 0,11,12
 450 463 450 463 450 523 c 0,13,14
 450 565 450 565 438.5 587.5 c 128,-1,15
 427 610 427 610 395 610 c 0,0,1
408 680 m 0,16,17
 667 680 667 680 667 404 c 0,18,19
 667 335 667 335 651 271.5 c 128,-1,20
 635 208 635 208 603 155 c 128,-1,21
 571 102 571 102 525.5 63 c 128,-1,22
 480 24 480 24 417 2 c 128,-1,23
 354 -20 354 -20 281 -20 c 0,24,25
 22 -20 22 -20 22 257 c 0,26,27
 22 326 22 326 38 389 c 128,-1,28
 54 452 54 452 86 505 c 128,-1,29
 118 558 118 558 163.5 597 c 128,-1,30
 209 636 209 636 271.5 658 c 128,-1,31
 334 680 334 680 408 680 c 0,16,17
542 842 m 0,32,33
 587 842 587 842 614 822 c 128,-1,34
 641 802 641 802 641 766 c 128,-1,35
 641 730 641 730 612.5 710 c 128,-1,36
 584 690 584 690 538 690 c 0,37,38
 493 690 493 690 464.5 709.5 c 128,-1,39
 436 729 436 729 436 764 c 0,40,41
 436 801 436 801 466 821.5 c 128,-1,42
 496 842 496 842 542 842 c 0,32,33
308 842 m 0,43,44
 353 842 353 842 380 822 c 128,-1,45
 407 802 407 802 407 766 c 128,-1,46
 407 730 407 730 378.5 710 c 128,-1,47
 350 690 350 690 304 690 c 0,48,49
 259 690 259 690 230.5 709.5 c 128,-1,50
 202 729 202 729 202 764 c 0,51,52
 202 801 202 801 232 821.5 c 128,-1,53
 262 842 262 842 308 842 c 0,43,44
EndSplineSet
Validated: 8388609
Position2: "'cpsp' Capital Spacing lookup 3 subtable" dx=5 dy=0 dh=10 dv=0
EndChar

StartChar: Odotbelow
Encoding: 7884 7884 91
Width: 688
Flags: MW
HStem: -194 152<253 309> -20 71<270 329 270 407> 610 70<359 418>
VStem: 22 217<113 372> 177 206<-143 -95> 450 217<289 547>
LayerCount: 2
UndoRedoHistory
Layer: 0
Undoes
EndUndoes
Redoes
EndRedoes
EndUndoRedoHistory
UndoRedoHistory
Layer: 1
Undoes
EndUndoes
Redoes
EndRedoes
EndUndoRedoHistory
Fore
SplineSet
283 -42 m 0,0,1
 328 -42 328 -42 355.5 -62 c 128,-1,2
 383 -82 383 -82 383 -118 c 128,-1,3
 383 -154 383 -154 354 -174 c 128,-1,4
 325 -194 325 -194 279 -194 c 0,5,6
 234 -194 234 -194 205.5 -174.5 c 128,-1,7
 177 -155 177 -155 177 -120 c 0,8,9
 177 -83 177 -83 207 -62.5 c 128,-1,10
 237 -42 237 -42 283 -42 c 0,0,1
395 610 m 0,11,12
 342 610 342 610 308.5 539.5 c 128,-1,13
 275 469 275 469 254 313 c 0,14,15
 239 198 239 198 239 138 c 0,16,17
 239 96 239 96 250 73.5 c 128,-1,18
 261 51 261 51 293 51 c 0,19,20
 347 51 347 51 380.5 121.5 c 128,-1,21
 414 192 414 192 435 348 c 0,22,23
 450 463 450 463 450 523 c 0,24,25
 450 565 450 565 438.5 587.5 c 128,-1,26
 427 610 427 610 395 610 c 0,11,12
408 680 m 0,27,28
 667 680 667 680 667 404 c 0,29,30
 667 335 667 335 651 271.5 c 128,-1,31
 635 208 635 208 603 155 c 128,-1,32
 571 102 571 102 525.5 63 c 128,-1,33
 480 24 480 24 417 2 c 128,-1,34
 354 -20 354 -20 281 -20 c 0,35,36
 22 -20 22 -20 22 257 c 0,37,38
 22 326 22 326 38 389 c 128,-1,39
 54 452 54 452 86 505 c 128,-1,40
 118 558 118 558 163.5 597 c 128,-1,41
 209 636 209 636 271.5 658 c 128,-1,42
 334 680 334 680 408 680 c 0,27,28
EndSplineSet
Validated: 8388609
Position2: "'cpsp' Capital Spacing lookup 3 subtable" dx=5 dy=0 dh=10 dv=0
EndChar

StartChar: Ograve
Encoding: 210 210 92
Width: 688
Flags: MW
HStem: -20 71<270 329 270 407> 610 70<359 418>
VStem: 22 217<113 372> 450 217<289 547>
LayerCount: 2
UndoRedoHistory
Layer: 0
Undoes
EndUndoes
Redoes
EndRedoes
EndUndoRedoHistory
UndoRedoHistory
Layer: 1
Undoes
EndUndoes
Redoes
EndRedoes
EndUndoRedoHistory
Fore
SplineSet
395 610 m 0,0,1
 342 610 342 610 308.5 539.5 c 128,-1,2
 275 469 275 469 254 313 c 0,3,4
 239 198 239 198 239 138 c 0,5,6
 239 96 239 96 250 73.5 c 128,-1,7
 261 51 261 51 293 51 c 0,8,9
 347 51 347 51 380.5 121.5 c 128,-1,10
 414 192 414 192 435 348 c 0,11,12
 450 463 450 463 450 523 c 0,13,14
 450 565 450 565 438.5 587.5 c 128,-1,15
 427 610 427 610 395 610 c 0,0,1
408 680 m 0,16,17
 667 680 667 680 667 404 c 0,18,19
 667 335 667 335 651 271.5 c 128,-1,20
 635 208 635 208 603 155 c 128,-1,21
 571 102 571 102 525.5 63 c 128,-1,22
 480 24 480 24 417 2 c 128,-1,23
 354 -20 354 -20 281 -20 c 0,24,25
 22 -20 22 -20 22 257 c 0,26,27
 22 326 22 326 38 389 c 128,-1,28
 54 452 54 452 86 505 c 128,-1,29
 118 558 118 558 163.5 597 c 128,-1,30
 209 636 209 636 271.5 658 c 128,-1,31
 334 680 334 680 408 680 c 0,16,17
513 711 m 1,32,-1
 394 715 l 2,33,34
 365 716 365 716 340.5 721 c 128,-1,35
 316 726 316 726 295.5 736.5 c 128,-1,36
 275 747 275 747 263.5 765 c 128,-1,37
 252 783 252 783 252 808 c 0,38,39
 252 841 252 841 280 862 c 1,40,-1
 525 760 l 1,41,-1
 513 711 l 1,32,-1
EndSplineSet
Validated: 1
Position2: "'cpsp' Capital Spacing lookup 3 subtable" dx=5 dy=0 dh=10 dv=0
EndChar

StartChar: Ohungarumlaut
Encoding: 336 336 93
Width: 688
Flags: MW
HStem: -20 71<270 329 270 407> 610 70<359 418>
VStem: 22 217<113 372> 450 217<289 547>
LayerCount: 2
UndoRedoHistory
Layer: 0
Undoes
EndUndoes
Redoes
EndRedoes
EndUndoRedoHistory
UndoRedoHistory
Layer: 1
Undoes
EndUndoes
Redoes
EndRedoes
EndUndoRedoHistory
Fore
SplineSet
395 610 m 0,0,1
 342 610 342 610 308.5 539.5 c 128,-1,2
 275 469 275 469 254 313 c 0,3,4
 239 198 239 198 239 138 c 0,5,6
 239 96 239 96 250 73.5 c 128,-1,7
 261 51 261 51 293 51 c 0,8,9
 347 51 347 51 380.5 121.5 c 128,-1,10
 414 192 414 192 435 348 c 0,11,12
 450 463 450 463 450 523 c 0,13,14
 450 565 450 565 438.5 587.5 c 128,-1,15
 427 610 427 610 395 610 c 0,0,1
408 680 m 0,16,17
 667 680 667 680 667 404 c 0,18,19
 667 335 667 335 651 271.5 c 128,-1,20
 635 208 635 208 603 155 c 128,-1,21
 571 102 571 102 525.5 63 c 128,-1,22
 480 24 480 24 417 2 c 128,-1,23
 354 -20 354 -20 281 -20 c 0,24,25
 22 -20 22 -20 22 257 c 0,26,27
 22 326 22 326 38 389 c 128,-1,28
 54 452 54 452 86 505 c 128,-1,29
 118 558 118 558 163.5 597 c 128,-1,30
 209 636 209 636 271.5 658 c 128,-1,31
 334 680 334 680 408 680 c 0,16,17
646 857 m 1,32,33
 666 847 666 847 677.5 833 c 128,-1,34
 689 819 689 819 689 803 c 0,35,36
 689 767 689 767 663.5 749 c 128,-1,37
 638 731 638 731 576 717 c 2,38,-1
 489 697 l 1,39,-1
 460 731 l 1,40,-1
 646 857 l 1,32,33
427 857 m 1,41,42
 447 848 447 848 459 833 c 128,-1,43
 471 818 471 818 471 802 c 0,44,45
 471 766 471 766 445.5 748 c 128,-1,46
 420 730 420 730 358 717 c 2,47,-1
 269 697 l 1,48,-1
 241 731 l 1,49,-1
 427 857 l 1,41,42
EndSplineSet
Validated: 1
Position2: "'cpsp' Capital Spacing lookup 3 subtable" dx=5 dy=0 dh=10 dv=0
EndChar

StartChar: Omacron
Encoding: 332 332 94
Width: 688
Flags: MW
HStem: -20 71<270 329 270 407> 610 70<359 418> 740 92<330 499 265 571>
VStem: 22 217<113 372> 450 217<289 547>
LayerCount: 2
UndoRedoHistory
Layer: 0
Undoes
EndUndoes
Redoes
EndRedoes
EndUndoRedoHistory
UndoRedoHistory
Layer: 1
Undoes
EndUndoes
Redoes
EndRedoes
EndUndoRedoHistory
Fore
SplineSet
395 610 m 0,0,1
 342 610 342 610 308.5 539.5 c 128,-1,2
 275 469 275 469 254 313 c 0,3,4
 239 198 239 198 239 138 c 0,5,6
 239 96 239 96 250 73.5 c 128,-1,7
 261 51 261 51 293 51 c 0,8,9
 347 51 347 51 380.5 121.5 c 128,-1,10
 414 192 414 192 435 348 c 0,11,12
 450 463 450 463 450 523 c 0,13,14
 450 565 450 565 438.5 587.5 c 128,-1,15
 427 610 427 610 395 610 c 0,0,1
408 680 m 0,16,17
 667 680 667 680 667 404 c 0,18,19
 667 335 667 335 651 271.5 c 128,-1,20
 635 208 635 208 603 155 c 128,-1,21
 571 102 571 102 525.5 63 c 128,-1,22
 480 24 480 24 417 2 c 128,-1,23
 354 -20 354 -20 281 -20 c 0,24,25
 22 -20 22 -20 22 257 c 0,26,27
 22 326 22 326 38 389 c 128,-1,28
 54 452 54 452 86 505 c 128,-1,29
 118 558 118 558 163.5 597 c 128,-1,30
 209 636 209 636 271.5 658 c 128,-1,31
 334 680 334 680 408 680 c 0,16,17
571 832 m 1,32,33
 575 814 575 814 575 804 c 0,34,35
 575 776 575 776 555.5 758 c 128,-1,36
 536 740 536 740 499 740 c 2,37,-1
 265 740 l 1,38,39
 262 749 262 749 262 767 c 0,40,41
 262 796 262 796 281.5 814 c 128,-1,42
 301 832 301 832 330 832 c 2,43,-1
 571 832 l 1,32,33
EndSplineSet
Validated: 1
Position2: "'cpsp' Capital Spacing lookup 3 subtable" dx=5 dy=0 dh=10 dv=0
EndChar

StartChar: Oogonek
Encoding: 490 490 95
Width: 688
Flags: MW
HStem: -258 84<376 399> -20 71<270 281 281 302> 610 70<359 418>
VStem: 22 217<113 372> 233 112<-141 -118> 450 217<315 547>
LayerCount: 2
UndoRedoHistory
Layer: 0
Undoes
EndUndoes
Redoes
EndRedoes
EndUndoRedoHistory
UndoRedoHistory
Layer: 1
Undoes
EndUndoes
Redoes
EndRedoes
EndUndoRedoHistory
Fore
SplineSet
239 138 m 0,0,1
 239 96 239 96 250 73.5 c 128,-1,2
 261 51 261 51 293 51 c 0,3,4
 347 51 347 51 380.5 121.5 c 128,-1,5
 414 192 414 192 435 348 c 0,6,7
 450 463 450 463 450 523 c 0,8,9
 450 565 450 565 438.5 587.5 c 128,-1,10
 427 610 427 610 395 610 c 0,11,12
 342 610 342 610 308.5 539.5 c 128,-1,13
 275 469 275 469 254 313 c 0,14,15
 239 198 239 198 239 138 c 0,0,1
433 8 m 1,16,17
 394 -19 394 -19 369.5 -53.5 c 128,-1,18
 345 -88 345 -88 345 -123 c 0,19,20
 345 -174 345 -174 392 -174 c 0,21,22
 432 -174 432 -174 454 -149 c 1,23,24
 464 -161 464 -161 468 -171 c 128,-1,25
 472 -181 472 -181 472 -196 c 0,26,27
 472 -222 472 -222 443.5 -240 c 128,-1,28
 415 -258 415 -258 364 -258 c 0,29,30
 302 -258 302 -258 267.5 -229.5 c 128,-1,31
 233 -201 233 -201 233 -146 c 0,32,33
 233 -68 233 -68 302 -20 c 1,34,-1
 281 -20 l 2,35,36
 22 -20 22 -20 22 257 c 0,37,38
 22 326 22 326 38 389 c 128,-1,39
 54 452 54 452 86 505 c 128,-1,40
 118 558 118 558 163.5 597 c 128,-1,41
 209 636 209 636 271.5 658 c 128,-1,42
 334 680 334 680 408 680 c 0,43,44
 667 680 667 680 667 404 c 0,45,46
 667 267 667 267 606 160 c 128,-1,47
 545 53 545 53 433 8 c 1,16,17
EndSplineSet
Validated: 8388609
Position2: "'cpsp' Capital Spacing lookup 3 subtable" dx=5 dy=0 dh=10 dv=0
EndChar

StartChar: Oslash
Encoding: 216 216 96
Width: 688
Flags: MW
HStem: -20 71<271 352 271 407> 610 70<360 417>
VStem: 438 229<375 375>
LayerCount: 2
UndoRedoHistory
Layer: 0
Undoes
EndUndoes
Redoes
EndRedoes
EndUndoRedoHistory
UndoRedoHistory
Layer: 1
Undoes
EndUndoes
Redoes
EndRedoes
EndUndoRedoHistory
Fore
SplineSet
239 137 m 2,0,1
 239 95 239 95 250.5 73 c 128,-1,2
 262 51 262 51 294 51 c 0,3,4
 316 51 316 51 335 63.5 c 128,-1,5
 354 76 354 76 367 96 c 128,-1,6
 380 116 380 116 391.5 144 c 128,-1,7
 403 172 403 172 410 199.5 c 128,-1,8
 417 227 417 227 422.5 259 c 128,-1,9
 428 291 428 291 431 312.5 c 128,-1,10
 434 334 434 334 436 358 c 0,11,12
 438 371 438 371 438 375 c 1,13,-1
 239 150 l 1,14,-1
 239 137 l 2,0,1
450 538 m 1,15,16
 449 572 449 572 437 591 c 128,-1,17
 425 610 425 610 396 610 c 0,18,19
 342 610 342 610 308.5 540.5 c 128,-1,20
 275 471 275 471 254 317 c 1,21,-1
 450 538 l 1,15,16
623 583 m 1,22,23
 667 516 667 516 667 404 c 0,24,25
 667 335 667 335 651 271.5 c 128,-1,26
 635 208 635 208 603 155 c 128,-1,27
 571 102 571 102 525.5 63 c 128,-1,28
 480 24 480 24 417 2 c 128,-1,29
 354 -20 354 -20 281 -20 c 0,30,31
 184 -20 184 -20 122 19 c 1,32,33
 86 -20 86 -20 65 -58 c 1,34,35
 40 -58 40 -58 25 -41.5 c 128,-1,36
 10 -25 10 -25 9 2 c 1,37,38
 9 38 9 38 33 65 c 2,39,-1
 57 92 l 1,40,41
 22 156 22 156 22 257 c 0,42,43
 22 326 22 326 38 389 c 128,-1,44
 54 452 54 452 86 505 c 128,-1,45
 118 558 118 558 163.5 597 c 128,-1,46
 209 636 209 636 271.5 658 c 128,-1,47
 334 680 334 680 408 680 c 0,48,49
 493 680 493 680 549 651 c 1,50,51
 585 692 585 692 603 721 c 1,52,53
 624 721 624 721 642 700 c 128,-1,54
 660 679 660 679 660 654 c 0,55,56
 660 622 660 622 634 594 c 1,57,-1
 623 583 l 1,22,23
EndSplineSet
Validated: 1
Position2: "'cpsp' Capital Spacing lookup 3 subtable" dx=5 dy=0 dh=10 dv=0
EndChar

StartChar: Oslashacute
Encoding: 510 510 97
Width: 688
Flags: MW
HStem: -20 71<271 352 271 407> 610 70<360 417>
VStem: 9 658<2 441> 438 229<375 375>
LayerCount: 2
UndoRedoHistory
Layer: 0
Undoes
EndUndoes
Redoes
EndRedoes
EndUndoRedoHistory
UndoRedoHistory
Layer: 1
Undoes
EndUndoes
Redoes
EndRedoes
EndUndoRedoHistory
Fore
SplineSet
239 137 m 2,0,1
 239 95 239 95 250.5 73 c 128,-1,2
 262 51 262 51 294 51 c 0,3,4
 316 51 316 51 335 63.5 c 128,-1,5
 354 76 354 76 367 96 c 128,-1,6
 380 116 380 116 391.5 144 c 128,-1,7
 403 172 403 172 410 199.5 c 128,-1,8
 417 227 417 227 422.5 259 c 128,-1,9
 428 291 428 291 431 312.5 c 128,-1,10
 434 334 434 334 436 358 c 0,11,12
 438 371 438 371 438 375 c 1,13,-1
 239 150 l 1,14,-1
 239 137 l 2,0,1
450 538 m 1,15,16
 449 572 449 572 437 591 c 128,-1,17
 425 610 425 610 396 610 c 0,18,19
 342 610 342 610 308.5 540.5 c 128,-1,20
 275 471 275 471 254 317 c 1,21,-1
 450 538 l 1,15,16
623 583 m 1,22,23
 667 516 667 516 667 404 c 0,24,25
 667 335 667 335 651 271.5 c 128,-1,26
 635 208 635 208 603 155 c 128,-1,27
 571 102 571 102 525.5 63 c 128,-1,28
 480 24 480 24 417 2 c 128,-1,29
 354 -20 354 -20 281 -20 c 0,30,31
 184 -20 184 -20 122 19 c 1,32,33
 86 -20 86 -20 65 -58 c 1,34,35
 40 -58 40 -58 25 -41.5 c 128,-1,36
 10 -25 10 -25 9 2 c 1,37,38
 9 38 9 38 33 65 c 2,39,-1
 57 92 l 1,40,41
 22 156 22 156 22 257 c 0,42,43
 22 326 22 326 38 389 c 128,-1,44
 54 452 54 452 86 505 c 128,-1,45
 118 558 118 558 163.5 597 c 128,-1,46
 209 636 209 636 271.5 658 c 128,-1,47
 334 680 334 680 408 680 c 0,48,49
 493 680 493 680 549 651 c 1,50,51
 585 692 585 692 603 721 c 1,52,53
 624 721 624 721 642 700 c 128,-1,54
 660 679 660 679 660 654 c 0,55,56
 660 622 660 622 634 594 c 1,57,-1
 623 583 l 1,22,23
314 759 m 1,58,-1
 559 861 l 1,59,60
 587 840 587 840 587 807 c 0,61,62
 587 782 587 782 575 764 c 128,-1,63
 563 746 563 746 542.5 735.5 c 128,-1,64
 522 725 522 725 498 720 c 128,-1,65
 474 715 474 715 445 714 c 2,66,-1
 326 710 l 1,67,-1
 314 759 l 1,58,-1
EndSplineSet
Validated: 8388609
Position2: "'cpsp' Capital Spacing lookup 3 subtable" dx=5 dy=0 dh=10 dv=0
EndChar

StartChar: Otilde
Encoding: 213 213 98
Width: 688
Flags: MW
HStem: -20 71<270 329 270 407> 610 70<359 418> 722 108<510 545 510 545> 740 107<298 332>
VStem: 22 217<113 372> 450 217<289 547>
LayerCount: 2
UndoRedoHistory
Layer: 0
Undoes
EndUndoes
Redoes
EndRedoes
EndUndoRedoHistory
UndoRedoHistory
Layer: 1
Undoes
EndUndoes
Redoes
EndRedoes
EndUndoRedoHistory
Fore
SplineSet
395 610 m 0,0,1
 342 610 342 610 308.5 539.5 c 128,-1,2
 275 469 275 469 254 313 c 0,3,4
 239 198 239 198 239 138 c 0,5,6
 239 96 239 96 250 73.5 c 128,-1,7
 261 51 261 51 293 51 c 0,8,9
 347 51 347 51 380.5 121.5 c 128,-1,10
 414 192 414 192 435 348 c 0,11,12
 450 463 450 463 450 523 c 0,13,14
 450 565 450 565 438.5 587.5 c 128,-1,15
 427 610 427 610 395 610 c 0,0,1
408 680 m 0,16,17
 667 680 667 680 667 404 c 0,18,19
 667 335 667 335 651 271.5 c 128,-1,20
 635 208 635 208 603 155 c 128,-1,21
 571 102 571 102 525.5 63 c 128,-1,22
 480 24 480 24 417 2 c 128,-1,23
 354 -20 354 -20 281 -20 c 0,24,25
 22 -20 22 -20 22 257 c 0,26,27
 22 326 22 326 38 389 c 128,-1,28
 54 452 54 452 86 505 c 128,-1,29
 118 558 118 558 163.5 597 c 128,-1,30
 209 636 209 636 271.5 658 c 128,-1,31
 334 680 334 680 408 680 c 0,16,17
593 847 m 1,32,33
 612 824 612 824 612 796 c 0,34,35
 612 760 612 760 586.5 741 c 128,-1,36
 561 722 561 722 516 722 c 0,37,38
 491 722 491 722 411 731 c 128,-1,39
 331 740 331 740 312 740 c 0,40,41
 272 740 272 740 245 723 c 1,42,43
 225 751 225 751 225 780 c 0,44,45
 225 812 225 812 250.5 829.5 c 128,-1,46
 276 847 276 847 324 847 c 0,47,48
 353 847 353 847 432 838.5 c 128,-1,49
 511 830 511 830 533 830 c 0,50,51
 576 830 576 830 593 847 c 1,32,33
EndSplineSet
Validated: 8388609
Position2: "'cpsp' Capital Spacing lookup 3 subtable" dx=5 dy=0 dh=10 dv=0
EndChar

StartChar: OE
Encoding: 338 338 99
Width: 869
Flags: MW
HStem: -20 71<270 318> -20 142<671 684> 275 112<708 754> 535 125<761 812> 562 98<660 660> 610 70<359 418>
VStem: 22 217<161 162 113 368>
LayerCount: 2
UndoRedoHistory
Layer: 0
Undoes
EndUndoes
Redoes
EndRedoes
EndUndoRedoHistory
UndoRedoHistory
Layer: 1
Undoes
EndUndoes
Redoes
EndRedoes
EndUndoRedoHistory
Fore
SplineSet
293 51 m 0,0,1
 347 51 347 51 380.5 121.5 c 128,-1,2
 414 192 414 192 435 348 c 0,3,4
 450 463 450 463 450 523 c 0,5,6
 450 565 450 565 438.5 587.5 c 128,-1,7
 427 610 427 610 395 610 c 0,8,9
 342 610 342 610 308.5 539.5 c 128,-1,10
 275 469 275 469 254 313 c 0,11,12
 239 198 239 198 239 138 c 0,13,14
 239 96 239 96 250 73.5 c 128,-1,15
 261 51 261 51 293 51 c 0,0,1
825 387 m 1,16,17
 825 332 825 332 798 303.5 c 128,-1,18
 771 275 771 275 722 275 c 0,19,20
 667 275 667 275 624 298 c 1,21,22
 612 232 612 232 612 202 c 0,23,24
 612 156 612 156 633 139 c 128,-1,25
 654 122 654 122 703 122 c 0,26,27
 764 122 764 122 806 138 c 1,28,29
 815 116 815 116 815 90 c 0,30,31
 815 64 815 64 804.5 44 c 128,-1,32
 794 24 794 24 778 12.5 c 128,-1,33
 762 1 762 1 738.5 -7 c 128,-1,34
 715 -15 715 -15 692.5 -17.5 c 128,-1,35
 670 -20 670 -20 644 -20 c 0,36,37
 583 -20 583 -20 544 -3 c 128,-1,38
 505 14 505 14 483 50 c 1,39,40
 415 -20 415 -20 281 -20 c 0,41,42
 22 -20 22 -20 22 254 c 0,43,44
 22 323 22 323 37.5 386 c 128,-1,45
 53 449 53 449 85 502.5 c 128,-1,46
 117 556 117 556 162 595.5 c 128,-1,47
 207 635 207 635 268.5 657.5 c 128,-1,48
 330 680 330 680 402 680 c 0,49,50
 472 680 472 680 525 660 c 1,51,-1
 899 660 l 1,52,53
 899 597 899 597 865.5 566 c 128,-1,54
 832 535 832 535 778 535 c 0,55,56
 717 535 717 535 660 562 c 1,57,-1
 636 387 l 1,58,-1
 825 387 l 1,16,17
EndSplineSet
Validated: 8388609
Position2: "'cpsp' Capital Spacing lookup 3 subtable" dx=5 dy=0 dh=10 dv=0
EndChar

StartChar: P
Encoding: 80 80 100
Width: 621
Flags: MW
HStem: 271 58 600 66<357 396>
VStem: 460 193<458 536>
LayerCount: 2
UndoRedoHistory
Layer: 0
Undoes
EndUndoes
Redoes
EndRedoes
EndUndoRedoHistory
UndoRedoHistory
Layer: 1
Undoes
EndUndoes
Redoes
EndRedoes
EndUndoRedoHistory
Fore
SplineSet
-6 0 m 1,0,-1
 120 660 l 1,1,2
 150 661 150 661 182.5 663 c 128,-1,3
 215 665 215 665 240 665.5 c 128,-1,4
 265 666 265 666 304 666 c 0,5,6
 356 666 356 666 394 664.5 c 128,-1,7
 432 663 432 663 470.5 658.5 c 128,-1,8
 509 654 509 654 535.5 646 c 128,-1,9
 562 638 562 638 585.5 625 c 128,-1,10
 609 612 609 612 623 594 c 128,-1,11
 637 576 637 576 645 550 c 128,-1,12
 653 524 653 524 653 491 c 0,13,14
 653 389 653 389 586.5 330 c 128,-1,15
 520 271 520 271 418 271 c 0,16,17
 317 271 317 271 296 329 c 1,18,19
 317 329 317 329 332 333 c 1,20,21
 392 343 392 343 426 389 c 128,-1,22
 460 435 460 435 460 500 c 0,23,24
 460 553 460 553 436.5 576.5 c 128,-1,25
 413 600 413 600 364 600 c 0,26,27
 338 600 338 600 324 597 c 1,28,-1
 210 0 l 1,29,-1
 -6 0 l 1,0,-1
EndSplineSet
Validated: 1
Position2: "'cpsp' Capital Spacing lookup 3 subtable" dx=5 dy=0 dh=10 dv=0
EndChar

StartChar: Thorn
Encoding: 222 222 101
Width: 588
Flags: MW
HStem: 143 58 472 66<345 372> 472 188<333 338 120 372>
VStem: 436 193<324 408>
LayerCount: 2
UndoRedoHistory
Layer: 0
Undoes
EndUndoes
Redoes
EndRedoes
EndUndoRedoHistory
UndoRedoHistory
Layer: 1
Undoes
EndUndoes
Redoes
EndRedoes
EndUndoRedoHistory
Fore
SplineSet
314 537 m 1,0,1
 324 538 324 538 351 538 c 0,2,3
 401 538 401 538 440 534 c 128,-1,4
 479 530 479 530 516 518.5 c 128,-1,5
 553 507 553 507 576.5 487.5 c 128,-1,6
 600 468 600 468 614.5 436 c 128,-1,7
 629 404 629 404 629 361 c 0,8,9
 629 262 629 262 563 202.5 c 128,-1,10
 497 143 497 143 394 143 c 0,11,12
 293 143 293 143 272 201 c 1,13,14
 281 201 281 201 297 203 c 0,15,16
 362 211 362 211 399 256 c 128,-1,17
 436 301 436 301 436 371 c 0,18,19
 436 425 436 425 412.5 448.5 c 128,-1,20
 389 472 389 472 339 472 c 0,21,22
 316 472 316 472 301 469 c 1,23,-1
 210 0 l 1,24,-1
 -7 0 l 1,25,-1
 120 660 l 1,26,-1
 338 660 l 1,27,-1
 314 537 l 1,0,1
EndSplineSet
Validated: 8388609
Position2: "'cpsp' Capital Spacing lookup 3 subtable" dx=5 dy=0 dh=10 dv=0
EndChar

StartChar: Q
Encoding: 81 81 102
Width: 690
Flags: MW
HStem: -184 147<442 502 442 519> -33 20G -26 20G 83 67 610 70<375 428>
VStem: 29 216<215 252 211 387> 457 217<496 499 300 542>
LayerCount: 2
UndoRedoHistory
Layer: 0
Undoes
EndUndoes
Redoes
EndRedoes
EndUndoRedoHistory
UndoRedoHistory
Layer: 1
Undoes
EndUndoes
Redoes
EndRedoes
EndUndoRedoHistory
Fore
SplineSet
417 680 m 0,0,1
 542 680 542 680 608 611.5 c 128,-1,2
 674 543 674 543 674 406 c 0,3,4
 674 328 674 328 646.5 254 c 128,-1,5
 619 180 619 180 572.5 124 c 128,-1,6
 526 68 526 68 462 31 c 128,-1,7
 398 -6 398 -6 329 -13 c 1,8,9
 398 -37 398 -37 475 -37 c 0,10,11
 560 -37 560 -37 617 -6 c 1,12,13
 629 -29 629 -29 629 -66 c 0,14,15
 629 -98 629 -98 616 -122 c 128,-1,16
 603 -146 603 -146 581.5 -159 c 128,-1,17
 560 -172 560 -172 536 -178 c 128,-1,18
 512 -184 512 -184 486 -184 c 0,19,20
 445 -184 445 -184 404 -173.5 c 128,-1,21
 363 -163 363 -163 334.5 -150 c 128,-1,22
 306 -137 306 -137 268.5 -126 c 128,-1,23
 231 -115 231 -115 197 -115 c 0,24,25
 142 -115 142 -115 105 -140 c 1,26,27
 75 -105 75 -105 75 -61 c 0,28,29
 75 -48 75 -48 77.5 -37.5 c 128,-1,30
 80 -27 80 -27 83.5 -18.5 c 128,-1,31
 87 -10 87 -10 95 -3.5 c 128,-1,32
 103 3 103 3 109.5 8 c 128,-1,33
 116 13 116 13 128.5 17 c 128,-1,34
 141 21 141 21 150 24 c 128,-1,35
 159 27 159 27 175.5 30 c 128,-1,36
 192 33 192 33 203 34.5 c 128,-1,37
 214 36 214 36 235 38 c 0,38,39
 264 41 264 41 287.5 50.5 c 128,-1,40
 311 60 311 60 335 81.5 c 128,-1,41
 359 103 359 103 378 136 c 128,-1,42
 397 169 397 169 414 223 c 128,-1,43
 431 277 431 277 442 348 c 0,44,45
 457 447 457 447 457 517 c 0,46,47
 457 561 457 561 446.5 585.5 c 128,-1,48
 436 610 436 610 407 610 c 0,49,50
 384 610 384 610 362.5 592.5 c 128,-1,51
 341 575 341 575 324 544.5 c 128,-1,52
 307 514 307 514 293.5 477 c 128,-1,53
 280 440 280 440 269 397 c 0,54,55
 245 300 245 300 245 228 c 0,56,57
 245 213 245 213 246.5 201.5 c 128,-1,58
 248 190 248 190 252.5 178 c 128,-1,59
 257 166 257 166 267 158.5 c 128,-1,60
 277 151 277 151 292 150 c 1,61,62
 292 120 292 120 263.5 101.5 c 128,-1,63
 235 83 235 83 186 83 c 0,64,65
 29 83 29 83 29 278 c 0,66,67
 29 343 29 343 46 403 c 128,-1,68
 63 463 63 463 96.5 513.5 c 128,-1,69
 130 564 130 564 177 601.5 c 128,-1,70
 224 639 224 639 285.5 659.5 c 128,-1,71
 347 680 347 680 417 680 c 0,0,1
EndSplineSet
Validated: 8388609
Position2: "'cpsp' Capital Spacing lookup 3 subtable" dx=5 dy=0 dh=10 dv=0
EndChar

StartChar: R
Encoding: 82 82 103
Width: 639
Flags: MW
HStem: 600 65<353 393>
VStem: 447 193<445 530>
LayerCount: 2
UndoRedoHistory
Layer: 0
Undoes
EndUndoes
Redoes
EndRedoes
EndUndoRedoHistory
UndoRedoHistory
Layer: 1
Undoes
EndUndoes
Redoes
EndRedoes
EndUndoRedoHistory
Fore
SplineSet
120 660 m 1,0,1
 349 665 349 665 350 665 c 0,2,3
 389 665 389 665 418 663.5 c 128,-1,4
 447 662 447 662 479 657.5 c 128,-1,5
 511 653 511 653 533.5 646 c 128,-1,6
 556 639 556 639 577.5 626 c 128,-1,7
 599 613 599 613 612 595.5 c 128,-1,8
 625 578 625 578 632.5 552.5 c 128,-1,9
 640 527 640 527 640 495 c 0,10,11
 640 415 640 415 596 361.5 c 128,-1,12
 552 308 552 308 478 292 c 1,13,14
 540 96 540 96 624 59 c 1,15,16
 597 -20 597 -20 506 -20 c 0,17,18
 476 -20 476 -20 451.5 -10 c 128,-1,19
 427 -0 427 -0 409 13.5 c 128,-1,20
 391 27 391 27 375 56 c 128,-1,21
 359 85 359 85 349 109 c 128,-1,22
 339 133 339 133 327 177.5 c 128,-1,23
 315 222 315 222 308.5 253 c 128,-1,24
 302 284 302 284 291 341 c 1,25,-1
 299 341 l 2,26,27
 370 341 370 341 408.5 380.5 c 128,-1,28
 447 420 447 420 447 497 c 0,29,30
 447 549 447 549 427 574.5 c 128,-1,31
 407 600 407 600 361 600 c 0,32,33
 332 600 332 600 325 599 c 1,34,-1
 210 0 l 1,35,-1
 -3 0 l 1,36,-1
 120 660 l 1,0,1
EndSplineSet
Validated: 1
Position2: "'cpsp' Capital Spacing lookup 3 subtable" dx=5 dy=0 dh=10 dv=0
EndChar

StartChar: Racute
Encoding: 340 340 104
Width: 639
Flags: MW
HStem: 600 65<353 393>
VStem: 447 193<445 530>
LayerCount: 2
UndoRedoHistory
Layer: 0
Undoes
EndUndoes
Redoes
EndRedoes
EndUndoRedoHistory
UndoRedoHistory
Layer: 1
Undoes
EndUndoes
Redoes
EndRedoes
EndUndoRedoHistory
Fore
SplineSet
120 660 m 1,0,1
 349 665 349 665 350 665 c 0,2,3
 389 665 389 665 418 663.5 c 128,-1,4
 447 662 447 662 479 657.5 c 128,-1,5
 511 653 511 653 533.5 646 c 128,-1,6
 556 639 556 639 577.5 626 c 128,-1,7
 599 613 599 613 612 595.5 c 128,-1,8
 625 578 625 578 632.5 552.5 c 128,-1,9
 640 527 640 527 640 495 c 0,10,11
 640 415 640 415 596 361.5 c 128,-1,12
 552 308 552 308 478 292 c 1,13,14
 540 96 540 96 624 59 c 1,15,16
 597 -20 597 -20 506 -20 c 0,17,18
 476 -20 476 -20 451.5 -10 c 128,-1,19
 427 -0 427 -0 409 13.5 c 128,-1,20
 391 27 391 27 375 56 c 128,-1,21
 359 85 359 85 349 109 c 128,-1,22
 339 133 339 133 327 177.5 c 128,-1,23
 315 222 315 222 308.5 253 c 128,-1,24
 302 284 302 284 291 341 c 1,25,-1
 299 341 l 2,26,27
 370 341 370 341 408.5 380.5 c 128,-1,28
 447 420 447 420 447 497 c 0,29,30
 447 549 447 549 427 574.5 c 128,-1,31
 407 600 407 600 361 600 c 0,32,33
 332 600 332 600 325 599 c 1,34,-1
 210 0 l 1,35,-1
 -3 0 l 1,36,-1
 120 660 l 1,0,1
293 759 m 1,37,-1
 538 861 l 1,38,39
 566 840 566 840 566 807 c 0,40,41
 566 782 566 782 554 764 c 128,-1,42
 542 746 542 746 521.5 735.5 c 128,-1,43
 501 725 501 725 477 720 c 128,-1,44
 453 715 453 715 424 714 c 2,45,-1
 305 710 l 1,46,-1
 293 759 l 1,37,-1
EndSplineSet
Validated: 1
Position2: "'cpsp' Capital Spacing lookup 3 subtable" dx=5 dy=0 dh=10 dv=0
EndChar

StartChar: Rcaron
Encoding: 344 344 105
Width: 639
Flags: MW
HStem: 600 65<353 393>
VStem: 447 193<445 530>
LayerCount: 2
UndoRedoHistory
Layer: 0
Undoes
EndUndoes
Redoes
EndRedoes
EndUndoRedoHistory
UndoRedoHistory
Layer: 1
Undoes
EndUndoes
Redoes
EndRedoes
EndUndoRedoHistory
Fore
SplineSet
120 660 m 1,0,1
 349 665 349 665 350 665 c 0,2,3
 389 665 389 665 418 663.5 c 128,-1,4
 447 662 447 662 479 657.5 c 128,-1,5
 511 653 511 653 533.5 646 c 128,-1,6
 556 639 556 639 577.5 626 c 128,-1,7
 599 613 599 613 612 595.5 c 128,-1,8
 625 578 625 578 632.5 552.5 c 128,-1,9
 640 527 640 527 640 495 c 0,10,11
 640 415 640 415 596 361.5 c 128,-1,12
 552 308 552 308 478 292 c 1,13,14
 540 96 540 96 624 59 c 1,15,16
 597 -20 597 -20 506 -20 c 0,17,18
 476 -20 476 -20 451.5 -10 c 128,-1,19
 427 -0 427 -0 409 13.5 c 128,-1,20
 391 27 391 27 375 56 c 128,-1,21
 359 85 359 85 349 109 c 128,-1,22
 339 133 339 133 327 177.5 c 128,-1,23
 315 222 315 222 308.5 253 c 128,-1,24
 302 284 302 284 291 341 c 1,25,-1
 299 341 l 2,26,27
 370 341 370 341 408.5 380.5 c 128,-1,28
 447 420 447 420 447 497 c 0,29,30
 447 549 447 549 427 574.5 c 128,-1,31
 407 600 407 600 361 600 c 0,32,33
 332 600 332 600 325 599 c 1,34,-1
 210 0 l 1,35,-1
 -3 0 l 1,36,-1
 120 660 l 1,0,1
279 854 m 1,37,-1
 396 802 l 1,38,-1
 544 854 l 1,39,-1
 575 808 l 1,40,-1
 418 692 l 1,41,-1
 352 692 l 1,42,-1
 229 808 l 1,43,-1
 279 854 l 1,37,-1
EndSplineSet
Validated: 1
Position2: "'cpsp' Capital Spacing lookup 3 subtable" dx=5 dy=0 dh=10 dv=0
EndChar

StartChar: Rcommaaccent
Encoding: 342 342 106
Width: 639
Flags: MW
HStem: 600 65<353 393>
VStem: 227 134<-146 -108> 447 193<445 530>
LayerCount: 2
UndoRedoHistory
Layer: 0
Undoes
EndUndoes
Redoes
EndRedoes
EndUndoRedoHistory
UndoRedoHistory
Layer: 1
Undoes
EndUndoes
Redoes
EndRedoes
EndUndoRedoHistory
Fore
SplineSet
361 -119 m 0,0,1
 361 -151 361 -151 345.5 -178.5 c 128,-1,2
 330 -206 330 -206 305.5 -222.5 c 128,-1,3
 281 -239 281 -239 254 -248.5 c 128,-1,4
 227 -258 227 -258 202 -258 c 0,5,6
 177 -258 177 -258 163 -254 c 1,7,8
 197 -216 197 -216 212 -187.5 c 128,-1,9
 227 -159 227 -159 227 -117 c 0,10,11
 227 -89 227 -89 217 -66 c 1,12,13
 224 -61 224 -61 244.5 -56 c 128,-1,14
 265 -51 265 -51 279 -51 c 0,15,16
 317 -51 317 -51 339 -70 c 128,-1,17
 361 -89 361 -89 361 -119 c 0,0,1
120 660 m 1,18,19
 349 665 349 665 350 665 c 0,20,21
 389 665 389 665 418 663.5 c 128,-1,22
 447 662 447 662 479 657.5 c 128,-1,23
 511 653 511 653 533.5 646 c 128,-1,24
 556 639 556 639 577.5 626 c 128,-1,25
 599 613 599 613 612 595.5 c 128,-1,26
 625 578 625 578 632.5 552.5 c 128,-1,27
 640 527 640 527 640 495 c 0,28,29
 640 415 640 415 596 361.5 c 128,-1,30
 552 308 552 308 478 292 c 1,31,32
 540 96 540 96 624 59 c 1,33,34
 597 -20 597 -20 506 -20 c 0,35,36
 476 -20 476 -20 451.5 -10 c 128,-1,37
 427 -0 427 -0 409 13.5 c 128,-1,38
 391 27 391 27 375 56 c 128,-1,39
 359 85 359 85 349 109 c 128,-1,40
 339 133 339 133 327 177.5 c 128,-1,41
 315 222 315 222 308.5 253 c 128,-1,42
 302 284 302 284 291 341 c 1,43,-1
 299 341 l 2,44,45
 370 341 370 341 408.5 380.5 c 128,-1,46
 447 420 447 420 447 497 c 0,47,48
 447 549 447 549 427 574.5 c 128,-1,49
 407 600 407 600 361 600 c 0,50,51
 332 600 332 600 325 599 c 1,52,-1
 210 0 l 1,53,-1
 -3 0 l 1,54,-1
 120 660 l 1,18,19
EndSplineSet
Validated: 1
Position2: "'cpsp' Capital Spacing lookup 3 subtable" dx=5 dy=0 dh=10 dv=0
EndChar

StartChar: Rdotbelow
Encoding: 7770 7770 107
Width: 639
Flags: MW
HStem: -194 152<252 308> 600 65<353 393>
VStem: 176 206<-143 -95> 447 193<445 530>
LayerCount: 2
UndoRedoHistory
Layer: 0
Undoes
EndUndoes
Redoes
EndRedoes
EndUndoRedoHistory
UndoRedoHistory
Layer: 1
Undoes
EndUndoes
Redoes
EndRedoes
EndUndoRedoHistory
Fore
SplineSet
282 -42 m 0,0,1
 327 -42 327 -42 354.5 -62 c 128,-1,2
 382 -82 382 -82 382 -118 c 128,-1,3
 382 -154 382 -154 353 -174 c 128,-1,4
 324 -194 324 -194 278 -194 c 0,5,6
 233 -194 233 -194 204.5 -174.5 c 128,-1,7
 176 -155 176 -155 176 -120 c 0,8,9
 176 -83 176 -83 206 -62.5 c 128,-1,10
 236 -42 236 -42 282 -42 c 0,0,1
120 660 m 1,11,12
 349 665 349 665 350 665 c 0,13,14
 389 665 389 665 418 663.5 c 128,-1,15
 447 662 447 662 479 657.5 c 128,-1,16
 511 653 511 653 533.5 646 c 128,-1,17
 556 639 556 639 577.5 626 c 128,-1,18
 599 613 599 613 612 595.5 c 128,-1,19
 625 578 625 578 632.5 552.5 c 128,-1,20
 640 527 640 527 640 495 c 0,21,22
 640 415 640 415 596 361.5 c 128,-1,23
 552 308 552 308 478 292 c 1,24,25
 540 96 540 96 624 59 c 1,26,27
 597 -20 597 -20 506 -20 c 0,28,29
 476 -20 476 -20 451.5 -10 c 128,-1,30
 427 -0 427 -0 409 13.5 c 128,-1,31
 391 27 391 27 375 56 c 128,-1,32
 359 85 359 85 349 109 c 128,-1,33
 339 133 339 133 327 177.5 c 128,-1,34
 315 222 315 222 308.5 253 c 128,-1,35
 302 284 302 284 291 341 c 1,36,-1
 299 341 l 2,37,38
 370 341 370 341 408.5 380.5 c 128,-1,39
 447 420 447 420 447 497 c 0,40,41
 447 549 447 549 427 574.5 c 128,-1,42
 407 600 407 600 361 600 c 0,43,44
 332 600 332 600 325 599 c 1,45,-1
 210 0 l 1,46,-1
 -3 0 l 1,47,-1
 120 660 l 1,11,12
EndSplineSet
Validated: 1
Position2: "'cpsp' Capital Spacing lookup 3 subtable" dx=5 dy=0 dh=10 dv=0
EndChar

StartChar: S
Encoding: 83 83 108
Width: 578
Flags: MW
HStem: -20 68<204 251 204 278> 617 63<334 381>
VStem: -2 171<97 133 97 138> 63 197<485 517> 324 202<141 164> 417 164<528 562>
LayerCount: 2
UndoRedoHistory
Layer: 0
Undoes
EndUndoes
Redoes
EndRedoes
EndUndoRedoHistory
UndoRedoHistory
Layer: 1
Undoes
EndUndoes
Redoes
EndRedoes
EndUndoRedoHistory
Fore
SplineSet
385 680 m 0,0,1
 414 680 414 680 439.5 677 c 128,-1,2
 465 674 465 674 492 666 c 128,-1,3
 519 658 519 658 538 645 c 128,-1,4
 557 632 557 632 569 610 c 128,-1,5
 581 588 581 588 581 560 c 0,6,7
 581 508 581 508 545 480 c 128,-1,8
 509 452 509 452 460 452 c 0,9,10
 430 452 430 452 402 462 c 1,11,12
 417 494 417 494 417 540 c 0,13,14
 417 617 417 617 360 617 c 0,15,16
 321 617 321 617 290.5 586.5 c 128,-1,17
 260 556 260 556 260 518 c 0,18,19
 260 502 260 502 266.5 488 c 128,-1,20
 273 474 273 474 282 463.5 c 128,-1,21
 291 453 291 453 308 441 c 128,-1,22
 325 429 325 429 337 422 c 128,-1,23
 349 415 349 415 372 402 c 128,-1,24
 395 389 395 389 407 382 c 0,25,26
 428 370 428 370 443 359 c 128,-1,27
 458 348 458 348 475 332 c 128,-1,28
 492 316 492 316 502 300 c 128,-1,29
 512 284 512 284 519 261.5 c 128,-1,30
 526 239 526 239 526 214 c 0,31,32
 526 161 526 161 498 116 c 128,-1,33
 470 71 470 71 423.5 41.5 c 128,-1,34
 377 12 377 12 316.5 -4 c 128,-1,35
 256 -20 256 -20 191 -20 c 0,36,37
 164 -20 164 -20 139.5 -17.5 c 128,-1,38
 115 -15 115 -15 88 -6.5 c 128,-1,39
 61 2 61 2 42 15 c 128,-1,40
 23 28 23 28 10.5 51.5 c 128,-1,41
 -2 75 -2 75 -2 105 c 0,42,43
 -2 155 -2 155 29 187 c 128,-1,44
 60 219 60 219 114 219 c 0,45,46
 150 219 150 219 185 206 c 1,47,48
 169 166 169 166 169 119 c 0,49,50
 169 83 169 83 181.5 65.5 c 128,-1,51
 194 48 194 48 226 48 c 0,52,53
 265 48 265 48 294.5 71 c 128,-1,54
 324 94 324 94 324 131 c 0,55,56
 324 147 324 147 317.5 161.5 c 128,-1,57
 311 176 311 176 302 186.5 c 128,-1,58
 293 197 293 197 276 210 c 128,-1,59
 259 223 259 223 247.5 230.5 c 128,-1,60
 236 238 236 238 213 251.5 c 128,-1,61
 190 265 190 265 180 271 c 0,62,63
 154 287 154 287 135.5 302 c 128,-1,64
 117 317 117 317 99.5 338 c 128,-1,65
 82 359 82 359 72.5 386.5 c 128,-1,66
 63 414 63 414 63 446 c 0,67,68
 63 515 63 515 105 569 c 128,-1,69
 147 623 147 623 220.5 651.5 c 128,-1,70
 294 680 294 680 385 680 c 0,0,1
EndSplineSet
Validated: 8388609
Position2: "'cpsp' Capital Spacing lookup 3 subtable" dx=5 dy=0 dh=10 dv=0
EndChar

StartChar: Sacute
Encoding: 346 346 109
Width: 578
Flags: MW
HStem: -20 68<204 251 204 278> 617 63<334 381>
VStem: -2 171<97 133 97 138> 63 197<485 517> 324 202<141 164> 417 164<528 562>
LayerCount: 2
UndoRedoHistory
Layer: 0
Undoes
EndUndoes
Redoes
EndRedoes
EndUndoRedoHistory
UndoRedoHistory
Layer: 1
Undoes
EndUndoes
Redoes
EndRedoes
EndUndoRedoHistory
Fore
SplineSet
385 680 m 0,0,1
 414 680 414 680 439.5 677 c 128,-1,2
 465 674 465 674 492 666 c 128,-1,3
 519 658 519 658 538 645 c 128,-1,4
 557 632 557 632 569 610 c 128,-1,5
 581 588 581 588 581 560 c 0,6,7
 581 508 581 508 545 480 c 128,-1,8
 509 452 509 452 460 452 c 0,9,10
 430 452 430 452 402 462 c 1,11,12
 417 494 417 494 417 540 c 0,13,14
 417 617 417 617 360 617 c 0,15,16
 321 617 321 617 290.5 586.5 c 128,-1,17
 260 556 260 556 260 518 c 0,18,19
 260 502 260 502 266.5 488 c 128,-1,20
 273 474 273 474 282 463.5 c 128,-1,21
 291 453 291 453 308 441 c 128,-1,22
 325 429 325 429 337 422 c 128,-1,23
 349 415 349 415 372 402 c 128,-1,24
 395 389 395 389 407 382 c 0,25,26
 428 370 428 370 443 359 c 128,-1,27
 458 348 458 348 475 332 c 128,-1,28
 492 316 492 316 502 300 c 128,-1,29
 512 284 512 284 519 261.5 c 128,-1,30
 526 239 526 239 526 214 c 0,31,32
 526 161 526 161 498 116 c 128,-1,33
 470 71 470 71 423.5 41.5 c 128,-1,34
 377 12 377 12 316.5 -4 c 128,-1,35
 256 -20 256 -20 191 -20 c 0,36,37
 164 -20 164 -20 139.5 -17.5 c 128,-1,38
 115 -15 115 -15 88 -6.5 c 128,-1,39
 61 2 61 2 42 15 c 128,-1,40
 23 28 23 28 10.5 51.5 c 128,-1,41
 -2 75 -2 75 -2 105 c 0,42,43
 -2 155 -2 155 29 187 c 128,-1,44
 60 219 60 219 114 219 c 0,45,46
 150 219 150 219 185 206 c 1,47,48
 169 166 169 166 169 119 c 0,49,50
 169 83 169 83 181.5 65.5 c 128,-1,51
 194 48 194 48 226 48 c 0,52,53
 265 48 265 48 294.5 71 c 128,-1,54
 324 94 324 94 324 131 c 0,55,56
 324 147 324 147 317.5 161.5 c 128,-1,57
 311 176 311 176 302 186.5 c 128,-1,58
 293 197 293 197 276 210 c 128,-1,59
 259 223 259 223 247.5 230.5 c 128,-1,60
 236 238 236 238 213 251.5 c 128,-1,61
 190 265 190 265 180 271 c 0,62,63
 154 287 154 287 135.5 302 c 128,-1,64
 117 317 117 317 99.5 338 c 128,-1,65
 82 359 82 359 72.5 386.5 c 128,-1,66
 63 414 63 414 63 446 c 0,67,68
 63 515 63 515 105 569 c 128,-1,69
 147 623 147 623 220.5 651.5 c 128,-1,70
 294 680 294 680 385 680 c 0,0,1
310 759 m 1,71,-1
 555 861 l 1,72,73
 583 840 583 840 583 807 c 0,74,75
 583 782 583 782 571.5 764 c 128,-1,76
 560 746 560 746 539.5 735.5 c 128,-1,77
 519 725 519 725 494.5 720 c 128,-1,78
 470 715 470 715 441 714 c 2,79,-1
 322 710 l 1,80,-1
 310 759 l 1,71,-1
EndSplineSet
Validated: 8388609
Substitution2: "'locl' Localized Forms in Latin lookup 13 subtable" Sacute.loclPLK
Substitution2: "'aalt' Access All Alternates lookup 0 subtable" Sacute.loclPLK
Position2: "'cpsp' Capital Spacing lookup 3 subtable" dx=5 dy=0 dh=10 dv=0
EndChar

StartChar: Scaron
Encoding: 352 352 110
Width: 578
Flags: MW
HStem: -20 68<204 251 204 278> 617 63<334 381>
VStem: -2 171<97 133 97 138> 63 197<485 517> 324 202<141 164> 417 164<528 562>
LayerCount: 2
UndoRedoHistory
Layer: 0
Undoes
EndUndoes
Redoes
EndRedoes
EndUndoRedoHistory
UndoRedoHistory
Layer: 1
Undoes
EndUndoes
Redoes
EndRedoes
EndUndoRedoHistory
Fore
SplineSet
385 680 m 0,0,1
 414 680 414 680 439.5 677 c 128,-1,2
 465 674 465 674 492 666 c 128,-1,3
 519 658 519 658 538 645 c 128,-1,4
 557 632 557 632 569 610 c 128,-1,5
 581 588 581 588 581 560 c 0,6,7
 581 508 581 508 545 480 c 128,-1,8
 509 452 509 452 460 452 c 0,9,10
 430 452 430 452 402 462 c 1,11,12
 417 494 417 494 417 540 c 0,13,14
 417 617 417 617 360 617 c 0,15,16
 321 617 321 617 290.5 586.5 c 128,-1,17
 260 556 260 556 260 518 c 0,18,19
 260 502 260 502 266.5 488 c 128,-1,20
 273 474 273 474 282 463.5 c 128,-1,21
 291 453 291 453 308 441 c 128,-1,22
 325 429 325 429 337 422 c 128,-1,23
 349 415 349 415 372 402 c 128,-1,24
 395 389 395 389 407 382 c 0,25,26
 428 370 428 370 443 359 c 128,-1,27
 458 348 458 348 475 332 c 128,-1,28
 492 316 492 316 502 300 c 128,-1,29
 512 284 512 284 519 261.5 c 128,-1,30
 526 239 526 239 526 214 c 0,31,32
 526 161 526 161 498 116 c 128,-1,33
 470 71 470 71 423.5 41.5 c 128,-1,34
 377 12 377 12 316.5 -4 c 128,-1,35
 256 -20 256 -20 191 -20 c 0,36,37
 164 -20 164 -20 139.5 -17.5 c 128,-1,38
 115 -15 115 -15 88 -6.5 c 128,-1,39
 61 2 61 2 42 15 c 128,-1,40
 23 28 23 28 10.5 51.5 c 128,-1,41
 -2 75 -2 75 -2 105 c 0,42,43
 -2 155 -2 155 29 187 c 128,-1,44
 60 219 60 219 114 219 c 0,45,46
 150 219 150 219 185 206 c 1,47,48
 169 166 169 166 169 119 c 0,49,50
 169 83 169 83 181.5 65.5 c 128,-1,51
 194 48 194 48 226 48 c 0,52,53
 265 48 265 48 294.5 71 c 128,-1,54
 324 94 324 94 324 131 c 0,55,56
 324 147 324 147 317.5 161.5 c 128,-1,57
 311 176 311 176 302 186.5 c 128,-1,58
 293 197 293 197 276 210 c 128,-1,59
 259 223 259 223 247.5 230.5 c 128,-1,60
 236 238 236 238 213 251.5 c 128,-1,61
 190 265 190 265 180 271 c 0,62,63
 154 287 154 287 135.5 302 c 128,-1,64
 117 317 117 317 99.5 338 c 128,-1,65
 82 359 82 359 72.5 386.5 c 128,-1,66
 63 414 63 414 63 446 c 0,67,68
 63 515 63 515 105 569 c 128,-1,69
 147 623 147 623 220.5 651.5 c 128,-1,70
 294 680 294 680 385 680 c 0,0,1
296 854 m 1,71,-1
 413 802 l 1,72,-1
 561 854 l 1,73,-1
 592 808 l 1,74,-1
 435 692 l 1,75,-1
 369 692 l 1,76,-1
 246 808 l 1,77,-1
 296 854 l 1,71,-1
EndSplineSet
Validated: 8388609
Position2: "'cpsp' Capital Spacing lookup 3 subtable" dx=5 dy=0 dh=10 dv=0
EndChar

StartChar: Scedilla
Encoding: 350 350 111
Width: 578
Flags: MW
HStem: -258 68<191 227 191 262> -110 53<196 303> -20 68<149 251> 617 63<334 381>
VStem: -2 171<97 133 97 138> 63 197<485 517> 262 121<-163 -131> 324 202<149 164> 417 164<528 562>
LayerCount: 2
UndoRedoHistory
Layer: 0
Undoes
EndUndoes
Redoes
EndRedoes
EndUndoRedoHistory
UndoRedoHistory
Layer: 1
Undoes
EndUndoes
Redoes
EndRedoes
EndUndoRedoHistory
Fore
SplineSet
190 -20 m 1,0,1
 163 -20 163 -20 138.5 -17.5 c 128,-1,2
 114 -15 114 -15 87.5 -6.5 c 128,-1,3
 61 2 61 2 42 15.5 c 128,-1,4
 23 29 23 29 10.5 52 c 128,-1,5
 -2 75 -2 75 -2 105 c 0,6,7
 -2 155 -2 155 29 187 c 128,-1,8
 60 219 60 219 114 219 c 0,9,10
 150 219 150 219 185 206 c 1,11,12
 169 166 169 166 169 119 c 0,13,14
 169 83 169 83 181.5 65.5 c 128,-1,15
 194 48 194 48 226 48 c 0,16,17
 265 48 265 48 294.5 71 c 128,-1,18
 324 94 324 94 324 131 c 0,19,20
 324 147 324 147 317.5 161.5 c 128,-1,21
 311 176 311 176 302 186.5 c 128,-1,22
 293 197 293 197 276 210 c 128,-1,23
 259 223 259 223 247.5 230.5 c 128,-1,24
 236 238 236 238 213 251.5 c 128,-1,25
 190 265 190 265 180 271 c 0,26,27
 154 287 154 287 135.5 302 c 128,-1,28
 117 317 117 317 99.5 338 c 128,-1,29
 82 359 82 359 72.5 386.5 c 128,-1,30
 63 414 63 414 63 446 c 0,31,32
 63 515 63 515 105 569 c 128,-1,33
 147 623 147 623 220 651.5 c 128,-1,34
 293 680 293 680 385 680 c 0,35,36
 414 680 414 680 439.5 677 c 128,-1,37
 465 674 465 674 492 666 c 128,-1,38
 519 658 519 658 538 645 c 128,-1,39
 557 632 557 632 569 610 c 128,-1,40
 581 588 581 588 581 560 c 0,41,42
 581 508 581 508 545 480 c 128,-1,43
 509 452 509 452 460 452 c 0,44,45
 430 452 430 452 402 462 c 1,46,47
 417 494 417 494 417 540 c 0,48,49
 417 617 417 617 360 617 c 0,50,51
 321 617 321 617 290.5 586.5 c 128,-1,52
 260 556 260 556 260 518 c 0,53,54
 260 502 260 502 266.5 488 c 128,-1,55
 273 474 273 474 282 463.5 c 128,-1,56
 291 453 291 453 308 441 c 128,-1,57
 325 429 325 429 337 422 c 128,-1,58
 349 415 349 415 372 402 c 128,-1,59
 395 389 395 389 407 382 c 0,60,61
 428 370 428 370 443 359 c 128,-1,62
 458 348 458 348 475 332 c 128,-1,63
 492 316 492 316 502 300 c 128,-1,64
 512 284 512 284 519 261.5 c 128,-1,65
 526 239 526 239 526 214 c 0,66,67
 526 167 526 167 504 126.5 c 128,-1,68
 482 86 482 86 444.5 57 c 128,-1,69
 407 28 407 28 358 9.5 c 128,-1,70
 309 -9 309 -9 253 -16 c 1,71,-1
 240 -58 l 1,72,73
 251 -57 251 -57 273 -57 c 0,74,75
 322 -57 322 -57 352.5 -77 c 128,-1,76
 383 -97 383 -97 383 -138 c 0,77,78
 383 -190 383 -190 334.5 -224 c 128,-1,79
 286 -258 286 -258 216 -258 c 0,80,81
 172 -258 172 -258 146.5 -244 c 128,-1,82
 121 -230 121 -230 121 -205 c 0,83,84
 121 -175 121 -175 139 -158 c 1,85,86
 160 -190 160 -190 211 -190 c 0,87,88
 262 -190 262 -190 262 -147 c 0,89,90
 262 -110 262 -110 204 -110 c 0,91,92
 190 -110 190 -110 162 -112 c 1,93,-1
 190 -20 l 1,0,1
EndSplineSet
Validated: 8388609
Substitution2: "'locl' Localized Forms in Latin lookup 12 subtable" Scommaaccent
Substitution2: "'locl' Localized Forms in Latin lookup 11 subtable" Scommaaccent
Substitution2: "'aalt' Access All Alternates lookup 0 subtable" Scommaaccent
Position2: "'cpsp' Capital Spacing lookup 3 subtable" dx=5 dy=0 dh=10 dv=0
EndChar

StartChar: Scircumflex
Encoding: 348 348 112
Width: 578
Flags: MW
HStem: -20 68<204 251 204 278> 617 63<334 381>
VStem: -2 171<97 133 97 138> 63 197<485 517> 324 202<141 164> 417 164<528 562>
LayerCount: 2
UndoRedoHistory
Layer: 0
Undoes
EndUndoes
Redoes
EndRedoes
EndUndoRedoHistory
UndoRedoHistory
Layer: 1
Undoes
EndUndoes
Redoes
EndRedoes
EndUndoRedoHistory
Fore
SplineSet
385 680 m 0,0,1
 414 680 414 680 439.5 677 c 128,-1,2
 465 674 465 674 492 666 c 128,-1,3
 519 658 519 658 538 645 c 128,-1,4
 557 632 557 632 569 610 c 128,-1,5
 581 588 581 588 581 560 c 0,6,7
 581 508 581 508 545 480 c 128,-1,8
 509 452 509 452 460 452 c 0,9,10
 430 452 430 452 402 462 c 1,11,12
 417 494 417 494 417 540 c 0,13,14
 417 617 417 617 360 617 c 0,15,16
 321 617 321 617 290.5 586.5 c 128,-1,17
 260 556 260 556 260 518 c 0,18,19
 260 502 260 502 266.5 488 c 128,-1,20
 273 474 273 474 282 463.5 c 128,-1,21
 291 453 291 453 308 441 c 128,-1,22
 325 429 325 429 337 422 c 128,-1,23
 349 415 349 415 372 402 c 128,-1,24
 395 389 395 389 407 382 c 0,25,26
 428 370 428 370 443 359 c 128,-1,27
 458 348 458 348 475 332 c 128,-1,28
 492 316 492 316 502 300 c 128,-1,29
 512 284 512 284 519 261.5 c 128,-1,30
 526 239 526 239 526 214 c 0,31,32
 526 161 526 161 498 116 c 128,-1,33
 470 71 470 71 423.5 41.5 c 128,-1,34
 377 12 377 12 316.5 -4 c 128,-1,35
 256 -20 256 -20 191 -20 c 0,36,37
 164 -20 164 -20 139.5 -17.5 c 128,-1,38
 115 -15 115 -15 88 -6.5 c 128,-1,39
 61 2 61 2 42 15 c 128,-1,40
 23 28 23 28 10.5 51.5 c 128,-1,41
 -2 75 -2 75 -2 105 c 0,42,43
 -2 155 -2 155 29 187 c 128,-1,44
 60 219 60 219 114 219 c 0,45,46
 150 219 150 219 185 206 c 1,47,48
 169 166 169 166 169 119 c 0,49,50
 169 83 169 83 181.5 65.5 c 128,-1,51
 194 48 194 48 226 48 c 0,52,53
 265 48 265 48 294.5 71 c 128,-1,54
 324 94 324 94 324 131 c 0,55,56
 324 147 324 147 317.5 161.5 c 128,-1,57
 311 176 311 176 302 186.5 c 128,-1,58
 293 197 293 197 276 210 c 128,-1,59
 259 223 259 223 247.5 230.5 c 128,-1,60
 236 238 236 238 213 251.5 c 128,-1,61
 190 265 190 265 180 271 c 0,62,63
 154 287 154 287 135.5 302 c 128,-1,64
 117 317 117 317 99.5 338 c 128,-1,65
 82 359 82 359 72.5 386.5 c 128,-1,66
 63 414 63 414 63 446 c 0,67,68
 63 515 63 515 105 569 c 128,-1,69
 147 623 147 623 220.5 651.5 c 128,-1,70
 294 680 294 680 385 680 c 0,0,1
514 687 m 1,71,-1
 398 739 l 1,72,-1
 250 687 l 1,73,-1
 219 733 l 1,74,-1
 386 849 l 1,75,-1
 431 849 l 1,76,-1
 564 733 l 1,77,-1
 514 687 l 1,71,-1
EndSplineSet
Validated: 8388609
Position2: "'cpsp' Capital Spacing lookup 3 subtable" dx=5 dy=0 dh=10 dv=0
EndChar

StartChar: Scommaaccent
Encoding: 536 536 113
Width: 578
Flags: MW
HStem: -20 68<204 251 204 278> 617 63<334 381>
VStem: -2 171<97 133 97 138> 63 197<485 517> 160 134<-146 -108> 324 202<141 164> 417 164<528 562>
LayerCount: 2
UndoRedoHistory
Layer: 0
Undoes
EndUndoes
Redoes
EndRedoes
EndUndoRedoHistory
UndoRedoHistory
Layer: 1
Undoes
EndUndoes
Redoes
EndRedoes
EndUndoRedoHistory
Fore
SplineSet
294 -119 m 0,0,1
 294 -151 294 -151 278.5 -178.5 c 128,-1,2
 263 -206 263 -206 238.5 -222.5 c 128,-1,3
 214 -239 214 -239 187 -248.5 c 128,-1,4
 160 -258 160 -258 135 -258 c 128,-1,5
 110 -258 110 -258 96 -254 c 1,6,7
 130 -216 130 -216 145 -187.5 c 128,-1,8
 160 -159 160 -159 160 -117 c 0,9,10
 160 -89 160 -89 150 -66 c 1,11,12
 157 -61 157 -61 177.5 -56 c 128,-1,13
 198 -51 198 -51 212 -51 c 0,14,15
 250 -51 250 -51 272 -70 c 128,-1,16
 294 -89 294 -89 294 -119 c 0,0,1
385 680 m 0,17,18
 414 680 414 680 439.5 677 c 128,-1,19
 465 674 465 674 492 666 c 128,-1,20
 519 658 519 658 538 645 c 128,-1,21
 557 632 557 632 569 610 c 128,-1,22
 581 588 581 588 581 560 c 0,23,24
 581 508 581 508 545 480 c 128,-1,25
 509 452 509 452 460 452 c 0,26,27
 430 452 430 452 402 462 c 1,28,29
 417 494 417 494 417 540 c 0,30,31
 417 617 417 617 360 617 c 0,32,33
 321 617 321 617 290.5 586.5 c 128,-1,34
 260 556 260 556 260 518 c 0,35,36
 260 502 260 502 266.5 488 c 128,-1,37
 273 474 273 474 282 463.5 c 128,-1,38
 291 453 291 453 308 441 c 128,-1,39
 325 429 325 429 337 422 c 128,-1,40
 349 415 349 415 372 402 c 128,-1,41
 395 389 395 389 407 382 c 0,42,43
 428 370 428 370 443 359 c 128,-1,44
 458 348 458 348 475 332 c 128,-1,45
 492 316 492 316 502 300 c 128,-1,46
 512 284 512 284 519 261.5 c 128,-1,47
 526 239 526 239 526 214 c 0,48,49
 526 161 526 161 498 116 c 128,-1,50
 470 71 470 71 423.5 41.5 c 128,-1,51
 377 12 377 12 316.5 -4 c 128,-1,52
 256 -20 256 -20 191 -20 c 0,53,54
 164 -20 164 -20 139.5 -17.5 c 128,-1,55
 115 -15 115 -15 88 -6.5 c 128,-1,56
 61 2 61 2 42 15 c 128,-1,57
 23 28 23 28 10.5 51.5 c 128,-1,58
 -2 75 -2 75 -2 105 c 0,59,60
 -2 155 -2 155 29 187 c 128,-1,61
 60 219 60 219 114 219 c 0,62,63
 150 219 150 219 185 206 c 1,64,65
 169 166 169 166 169 119 c 0,66,67
 169 83 169 83 181.5 65.5 c 128,-1,68
 194 48 194 48 226 48 c 0,69,70
 265 48 265 48 294.5 71 c 128,-1,71
 324 94 324 94 324 131 c 0,72,73
 324 147 324 147 317.5 161.5 c 128,-1,74
 311 176 311 176 302 186.5 c 128,-1,75
 293 197 293 197 276 210 c 128,-1,76
 259 223 259 223 247.5 230.5 c 128,-1,77
 236 238 236 238 213 251.5 c 128,-1,78
 190 265 190 265 180 271 c 0,79,80
 154 287 154 287 135.5 302 c 128,-1,81
 117 317 117 317 99.5 338 c 128,-1,82
 82 359 82 359 72.5 386.5 c 128,-1,83
 63 414 63 414 63 446 c 0,84,85
 63 515 63 515 105 569 c 128,-1,86
 147 623 147 623 220.5 651.5 c 128,-1,87
 294 680 294 680 385 680 c 0,17,18
EndSplineSet
Validated: 8388609
Position2: "'cpsp' Capital Spacing lookup 3 subtable" dx=5 dy=0 dh=10 dv=0
EndChar

StartChar: Sdotbelow
Encoding: 7778 7778 114
Width: 578
Flags: MW
HStem: -194 152<186 241> -20 68<204 251 204 278> 617 63<334 381>
VStem: -2 171<97 133 97 138> 63 197<485 517> 109 206<-143 -95> 324 202<141 164> 417 164<528 562>
LayerCount: 2
UndoRedoHistory
Layer: 0
Undoes
EndUndoes
Redoes
EndRedoes
EndUndoRedoHistory
UndoRedoHistory
Layer: 1
Undoes
EndUndoes
Redoes
EndRedoes
EndUndoRedoHistory
Fore
SplineSet
215 -42 m 0,0,1
 260 -42 260 -42 287.5 -62 c 128,-1,2
 315 -82 315 -82 315 -118 c 128,-1,3
 315 -154 315 -154 286 -174 c 128,-1,4
 257 -194 257 -194 211 -194 c 0,5,6
 166 -194 166 -194 137.5 -174.5 c 128,-1,7
 109 -155 109 -155 109 -120 c 0,8,9
 109 -83 109 -83 139 -62.5 c 128,-1,10
 169 -42 169 -42 215 -42 c 0,0,1
385 680 m 0,11,12
 414 680 414 680 439.5 677 c 128,-1,13
 465 674 465 674 492 666 c 128,-1,14
 519 658 519 658 538 645 c 128,-1,15
 557 632 557 632 569 610 c 128,-1,16
 581 588 581 588 581 560 c 0,17,18
 581 508 581 508 545 480 c 128,-1,19
 509 452 509 452 460 452 c 0,20,21
 430 452 430 452 402 462 c 1,22,23
 417 494 417 494 417 540 c 0,24,25
 417 617 417 617 360 617 c 0,26,27
 321 617 321 617 290.5 586.5 c 128,-1,28
 260 556 260 556 260 518 c 0,29,30
 260 502 260 502 266.5 488 c 128,-1,31
 273 474 273 474 282 463.5 c 128,-1,32
 291 453 291 453 308 441 c 128,-1,33
 325 429 325 429 337 422 c 128,-1,34
 349 415 349 415 372 402 c 128,-1,35
 395 389 395 389 407 382 c 0,36,37
 428 370 428 370 443 359 c 128,-1,38
 458 348 458 348 475 332 c 128,-1,39
 492 316 492 316 502 300 c 128,-1,40
 512 284 512 284 519 261.5 c 128,-1,41
 526 239 526 239 526 214 c 0,42,43
 526 161 526 161 498 116 c 128,-1,44
 470 71 470 71 423.5 41.5 c 128,-1,45
 377 12 377 12 316.5 -4 c 128,-1,46
 256 -20 256 -20 191 -20 c 0,47,48
 164 -20 164 -20 139.5 -17.5 c 128,-1,49
 115 -15 115 -15 88 -6.5 c 128,-1,50
 61 2 61 2 42 15 c 128,-1,51
 23 28 23 28 10.5 51.5 c 128,-1,52
 -2 75 -2 75 -2 105 c 0,53,54
 -2 155 -2 155 29 187 c 128,-1,55
 60 219 60 219 114 219 c 0,56,57
 150 219 150 219 185 206 c 1,58,59
 169 166 169 166 169 119 c 0,60,61
 169 83 169 83 181.5 65.5 c 128,-1,62
 194 48 194 48 226 48 c 0,63,64
 265 48 265 48 294.5 71 c 128,-1,65
 324 94 324 94 324 131 c 0,66,67
 324 147 324 147 317.5 161.5 c 128,-1,68
 311 176 311 176 302 186.5 c 128,-1,69
 293 197 293 197 276 210 c 128,-1,70
 259 223 259 223 247.5 230.5 c 128,-1,71
 236 238 236 238 213 251.5 c 128,-1,72
 190 265 190 265 180 271 c 0,73,74
 154 287 154 287 135.5 302 c 128,-1,75
 117 317 117 317 99.5 338 c 128,-1,76
 82 359 82 359 72.5 386.5 c 128,-1,77
 63 414 63 414 63 446 c 0,78,79
 63 515 63 515 105 569 c 128,-1,80
 147 623 147 623 220.5 651.5 c 128,-1,81
 294 680 294 680 385 680 c 0,11,12
EndSplineSet
Validated: 8388609
Position2: "'cpsp' Capital Spacing lookup 3 subtable" dx=5 dy=0 dh=10 dv=0
EndChar

StartChar: uni1E9E
Encoding: 7838 7838 115
Width: 756
Flags: MW
HStem: -20 68<425 468 425 501> 0 179<-15 362> 634 46<409 487>
VStem: 266 131<87 113> 366 200<393 400> 512 197<133 163>
LayerCount: 2
UndoRedoHistory
Layer: 0
Undoes
EndUndoes
Redoes
EndRedoes
EndUndoRedoHistory
UndoRedoHistory
Layer: 1
Undoes
EndUndoes
Redoes
EndRedoes
EndUndoRedoHistory
Fore
SplineSet
50 331 m 2,0,1
 67 415 67 415 97.5 478 c 128,-1,2
 128 541 128 541 165.5 579 c 128,-1,3
 203 617 203 617 252.5 640.5 c 128,-1,4
 302 664 302 664 350.5 672 c 128,-1,5
 399 680 399 680 458 680 c 0,6,7
 559 680 559 680 624 655 c 128,-1,8
 689 630 689 630 728 581 c 1,9,10
 715 575 715 575 702.5 569.5 c 128,-1,11
 690 564 690 564 663 547.5 c 128,-1,12
 636 531 636 531 616.5 515.5 c 128,-1,13
 597 500 597 500 581.5 477 c 128,-1,14
 566 454 566 454 566 432 c 0,15,16
 566 416 566 416 574 402.5 c 128,-1,17
 582 389 582 389 594.5 377.5 c 128,-1,18
 607 366 607 366 622 355 c 128,-1,19
 637 344 637 344 652.5 329.5 c 128,-1,20
 668 315 668 315 680.5 299 c 128,-1,21
 693 283 693 283 701 258 c 128,-1,22
 709 233 709 233 709 204 c 0,23,24
 709 136 709 136 669 84 c 128,-1,25
 629 32 629 32 566 6 c 128,-1,26
 503 -20 503 -20 428 -20 c 0,27,28
 399 -20 399 -20 374 -15.5 c 128,-1,29
 349 -11 349 -11 323 -0.5 c 128,-1,30
 297 10 297 10 281.5 32.5 c 128,-1,31
 266 55 266 55 266 87 c 0,32,33
 266 127 266 127 289.5 153 c 128,-1,34
 313 179 313 179 353 179 c 0,35,36
 382 179 382 179 409 166 c 1,37,38
 397 128 397 128 397 103 c 0,39,40
 397 48 397 48 443 48 c 0,41,42
 466 48 466 48 483 62 c 128,-1,43
 500 76 500 76 506 92.5 c 128,-1,44
 512 109 512 109 512 124 c 0,45,46
 512 142 512 142 501.5 158.5 c 128,-1,47
 491 175 491 175 474.5 187 c 128,-1,48
 458 199 458 199 439 214.5 c 128,-1,49
 420 230 420 230 404 246.5 c 128,-1,50
 388 263 388 263 377 289 c 128,-1,51
 366 315 366 315 366 346 c 128,-1,52
 366 377 366 377 377 407 c 128,-1,53
 388 437 388 437 406.5 460.5 c 128,-1,54
 425 484 425 484 451.5 506.5 c 128,-1,55
 478 529 478 529 506 546.5 c 128,-1,56
 534 564 534 564 568 582 c 1,57,58
 552 604 552 604 525 619 c 128,-1,59
 498 634 498 634 462 634 c 0,60,61
 430 634 430 634 404 620.5 c 128,-1,62
 378 607 378 607 358 583 c 128,-1,63
 338 559 338 559 321.5 521.5 c 128,-1,64
 305 484 305 484 292.5 441 c 128,-1,65
 280 398 280 398 269 342 c 2,66,-1
 202 0 l 1,67,-1
 -15 0 l 1,68,-1
 50 331 l 2,0,1
EndSplineSet
Validated: 8388609
Position2: "'cpsp' Capital Spacing lookup 3 subtable" dx=5 dy=0 dh=10 dv=0
EndChar

StartChar: Schwa
Encoding: 399 399 116
Width: 589
Flags: MW
HStem: -26 55<186 229 186 307> 302 45<337 340> 528 152<269 294>
VStem: -14 174<83 105 83 190> 353 215<399 446>
LayerCount: 2
UndoRedoHistory
Layer: 0
Undoes
EndUndoes
Redoes
EndRedoes
EndUndoRedoHistory
UndoRedoHistory
Layer: 1
Undoes
EndUndoes
Redoes
EndRedoes
EndUndoRedoHistory
Fore
SplineSet
203 29 m 0,0,1
 245 29 245 29 281 96 c 128,-1,2
 317 163 317 163 340 302 c 1,3,4
 259 302 259 302 210 246.5 c 128,-1,5
 161 191 161 191 160 105 c 0,6,7
 160 68 160 68 169.5 48.5 c 128,-1,8
 179 29 179 29 203 29 c 0,0,1
175 -26 m 0,9,10
 134 -26 134 -26 102.5 -19.5 c 128,-1,11
 71 -13 71 -13 43.5 3.5 c 128,-1,12
 16 20 16 20 1 51 c 128,-1,13
 -14 82 -14 82 -14 127 c 0,14,15
 -14 224 -14 224 62 280.5 c 128,-1,16
 138 337 138 337 287 346 c 0,17,18
 307 347 307 347 348 347 c 1,19,20
 353 382 353 382 353 408 c 0,21,22
 353 468 353 468 331.5 498 c 128,-1,23
 310 528 310 528 258 528 c 0,24,25
 212 528 212 528 167 505.5 c 128,-1,26
 122 483 122 483 98 444 c 1,27,28
 73 463 73 463 73 501 c 0,29,30
 73 555 73 555 111.5 596.5 c 128,-1,31
 150 638 150 638 208.5 659 c 128,-1,32
 267 680 267 680 334 680 c 0,33,34
 447 680 447 680 507.5 611 c 128,-1,35
 568 542 568 542 568 400 c 0,36,37
 568 332 568 332 552.5 270 c 128,-1,38
 537 208 537 208 505 154 c 128,-1,39
 473 100 473 100 427 60 c 128,-1,40
 381 20 381 20 316.5 -3 c 128,-1,41
 252 -26 252 -26 175 -26 c 0,9,10
EndSplineSet
Validated: 1
Position2: "'cpsp' Capital Spacing lookup 3 subtable" dx=5 dy=0 dh=10 dv=0
EndChar

StartChar: T
Encoding: 84 84 117
Width: 454
Flags: MW
HStem: 540 120<82 416 122 160 367 416 416 418 367 367> 650 20G
VStem: 22 507<583 609> 78 205<64 88 64 99>
LayerCount: 2
UndoRedoHistory
Layer: 0
Undoes
EndUndoes
Redoes
EndRedoes
EndUndoRedoHistory
UndoRedoHistory
Layer: 1
Undoes
EndUndoes
Redoes
EndRedoes
EndUndoRedoHistory
Fore
SplineSet
416 660 m 2,0,1
 482 660 482 660 514 670 c 1,2,3
 529 650 529 650 529 613 c 0,4,5
 529 591 529 591 520.5 576 c 128,-1,6
 512 561 512 561 496 553.5 c 128,-1,7
 480 546 480 546 461.5 543 c 128,-1,8
 443 540 443 540 418 540 c 2,9,-1
 367 540 l 1,10,-1
 292 159 l 2,11,12
 283 109 283 109 283 77 c 0,13,14
 283 36 283 36 296 14 c 1,15,16
 247 -20 247 -20 183 -20 c 0,17,18
 130 -20 130 -20 104 6.5 c 128,-1,19
 78 33 78 33 78 82 c 0,20,21
 78 145 78 145 107 283 c 2,22,-1
 160 540 l 1,23,-1
 95 540 l 2,24,25
 53 540 53 540 26 536 c 1,26,27
 22 552 22 552 22 578 c 0,28,29
 22 622 22 622 47.5 641 c 128,-1,30
 73 660 73 660 122 660 c 2,31,-1
 416 660 l 2,0,1
EndSplineSet
Validated: 8388609
Position2: "'cpsp' Capital Spacing lookup 3 subtable" dx=5 dy=0 dh=10 dv=0
EndChar

StartChar: Tbar
Encoding: 358 358 118
Width: 454
Flags: MW
HStem: 287 92<65 107 0 127 335 394> 540 120<82 416 122 160 367 416 416 418 367 367> 650 20G
VStem: -3 532<311 623> 78 205<64 88 64 94>
LayerCount: 2
UndoRedoHistory
Layer: 0
Undoes
EndUndoes
Redoes
EndRedoes
EndUndoRedoHistory
UndoRedoHistory
Layer: 1
Undoes
EndUndoes
Redoes
EndRedoes
EndUndoRedoHistory
Fore
SplineSet
416 660 m 2,0,1
 482 660 482 660 514 670 c 1,2,3
 529 650 529 650 529 613 c 0,4,5
 529 591 529 591 520.5 576 c 128,-1,6
 512 561 512 561 496 553.5 c 128,-1,7
 480 546 480 546 461.5 543 c 128,-1,8
 443 540 443 540 418 540 c 2,9,-1
 367 540 l 1,10,-1
 335 379 l 1,11,-1
 466 379 l 1,12,13
 470 361 470 361 470 351 c 0,14,15
 470 323 470 323 450.5 305 c 128,-1,16
 431 287 431 287 394 287 c 2,17,-1
 317 287 l 1,18,-1
 292 159 l 2,19,20
 283 109 283 109 283 77 c 0,21,22
 283 36 283 36 296 14 c 1,23,24
 247 -20 247 -20 183 -20 c 0,25,26
 130 -20 130 -20 104 6.5 c 128,-1,27
 78 33 78 33 78 82 c 0,28,29
 78 119 78 119 92 200 c 2,30,-1
 107 287 l 1,31,-1
 0 287 l 1,32,33
 -3 296 -3 296 -3 314 c 0,34,35
 -3 343 -3 343 16.5 361 c 128,-1,36
 36 379 36 379 65 379 c 2,37,-1
 127 379 l 1,38,-1
 160 540 l 1,39,-1
 95 540 l 2,40,41
 53 540 53 540 26 536 c 1,42,43
 22 552 22 552 22 578 c 0,44,45
 22 622 22 622 47.5 641 c 128,-1,46
 73 660 73 660 122 660 c 2,47,-1
 416 660 l 2,0,1
EndSplineSet
Validated: 8388609
Position2: "'cpsp' Capital Spacing lookup 3 subtable" dx=5 dy=0 dh=10 dv=0
EndChar

StartChar: Tcaron
Encoding: 356 356 119
Width: 454
Flags: MW
HStem: 540 120<82 416 122 160 367 416 416 418 367 367> 650 20G
VStem: 22 507<583 609> 78 205<64 88 64 99>
LayerCount: 2
UndoRedoHistory
Layer: 0
Undoes
EndUndoes
Redoes
EndRedoes
EndUndoRedoHistory
UndoRedoHistory
Layer: 1
Undoes
EndUndoes
Redoes
EndRedoes
EndUndoRedoHistory
Fore
SplineSet
416 660 m 2,0,1
 482 660 482 660 514 670 c 1,2,3
 529 650 529 650 529 613 c 0,4,5
 529 591 529 591 520.5 576 c 128,-1,6
 512 561 512 561 496 553.5 c 128,-1,7
 480 546 480 546 461.5 543 c 128,-1,8
 443 540 443 540 418 540 c 2,9,-1
 367 540 l 1,10,-1
 292 159 l 2,11,12
 283 109 283 109 283 77 c 0,13,14
 283 36 283 36 296 14 c 1,15,16
 247 -20 247 -20 183 -20 c 0,17,18
 130 -20 130 -20 104 6.5 c 128,-1,19
 78 33 78 33 78 82 c 0,20,21
 78 145 78 145 107 283 c 2,22,-1
 160 540 l 1,23,-1
 95 540 l 2,24,25
 53 540 53 540 26 536 c 1,26,27
 22 552 22 552 22 578 c 0,28,29
 22 622 22 622 47.5 641 c 128,-1,30
 73 660 73 660 122 660 c 2,31,-1
 416 660 l 2,0,1
192 854 m 1,32,-1
 309 802 l 1,33,-1
 457 854 l 1,34,-1
 488 808 l 1,35,-1
 331 692 l 1,36,-1
 265 692 l 1,37,-1
 142 808 l 1,38,-1
 192 854 l 1,32,-1
EndSplineSet
Validated: 8388609
Position2: "'cpsp' Capital Spacing lookup 3 subtable" dx=5 dy=0 dh=10 dv=0
EndChar

StartChar: Tcedilla
Encoding: 354 354 120
Width: 454
Flags: MW
HStem: -258 68<130 166 130 201> -110 53<135 242> 540 120<82 416 122 160 367 416 416 418 367 367> 650 20G
VStem: 78 205<64 88 64 99> 201 121<-163 -131>
LayerCount: 2
UndoRedoHistory
Layer: 0
Undoes
EndUndoes
Redoes
EndRedoes
EndUndoRedoHistory
UndoRedoHistory
Layer: 1
Undoes
EndUndoes
Redoes
EndRedoes
EndUndoRedoHistory
Fore
SplineSet
416 660 m 2,0,1
 482 660 482 660 514 670 c 1,2,3
 529 650 529 650 529 613 c 0,4,5
 529 591 529 591 520.5 576 c 128,-1,6
 512 561 512 561 496 553.5 c 128,-1,7
 480 546 480 546 461.5 543 c 128,-1,8
 443 540 443 540 418 540 c 2,9,-1
 367 540 l 1,10,-1
 292 159 l 2,11,12
 283 109 283 109 283 77 c 0,13,14
 283 36 283 36 296 14 c 1,15,16
 251 -17 251 -17 191 -20 c 1,17,-1
 179 -58 l 1,18,19
 190 -57 190 -57 212 -57 c 0,20,21
 261 -57 261 -57 291.5 -77 c 128,-1,22
 322 -97 322 -97 322 -138 c 0,23,24
 322 -190 322 -190 273.5 -224 c 128,-1,25
 225 -258 225 -258 155 -258 c 0,26,27
 111 -258 111 -258 85.5 -244 c 128,-1,28
 60 -230 60 -230 60 -205 c 0,29,30
 60 -175 60 -175 78 -158 c 1,31,32
 99 -190 99 -190 150 -190 c 0,33,34
 201 -190 201 -190 201 -147 c 0,35,36
 201 -110 201 -110 143 -110 c 0,37,38
 129 -110 129 -110 101 -112 c 1,39,-1
 131 -11 l 1,40,41
 78 11 78 11 78 82 c 0,42,43
 78 145 78 145 107 283 c 2,44,-1
 160 540 l 1,45,-1
 95 540 l 2,46,47
 53 540 53 540 26 536 c 1,48,49
 22 552 22 552 22 578 c 0,50,51
 22 622 22 622 47.5 641 c 128,-1,52
 73 660 73 660 122 660 c 2,53,-1
 416 660 l 2,0,1
EndSplineSet
Validated: 8388609
Substitution2: "'locl' Localized Forms in Latin lookup 12 subtable" uni021A
Substitution2: "'locl' Localized Forms in Latin lookup 11 subtable" uni021A
Substitution2: "'aalt' Access All Alternates lookup 0 subtable" uni021A
Position2: "'cpsp' Capital Spacing lookup 3 subtable" dx=5 dy=0 dh=10 dv=0
EndChar

StartChar: uni021A
Encoding: 538 538 121
Width: 454
Flags: MW
HStem: 540 120<82 416 122 160 367 416 416 418 367 367> 650 20G
VStem: 78 205<64 88 64 99> 99 134<-146 -108>
LayerCount: 2
UndoRedoHistory
Layer: 0
Undoes
EndUndoes
Redoes
EndRedoes
EndUndoRedoHistory
UndoRedoHistory
Layer: 1
Undoes
EndUndoes
Redoes
EndRedoes
EndUndoRedoHistory
Fore
SplineSet
233 -119 m 0,0,1
 233 -151 233 -151 217.5 -178.5 c 128,-1,2
 202 -206 202 -206 177.5 -222.5 c 128,-1,3
 153 -239 153 -239 126 -248.5 c 128,-1,4
 99 -258 99 -258 74 -258 c 0,5,6
 49 -258 49 -258 35 -254 c 1,7,8
 69 -216 69 -216 84 -187.5 c 128,-1,9
 99 -159 99 -159 99 -117 c 0,10,11
 99 -89 99 -89 89 -66 c 1,12,13
 96 -61 96 -61 116.5 -56 c 128,-1,14
 137 -51 137 -51 151 -51 c 0,15,16
 189 -51 189 -51 211 -70 c 128,-1,17
 233 -89 233 -89 233 -119 c 0,0,1
416 660 m 2,18,19
 482 660 482 660 514 670 c 1,20,21
 529 650 529 650 529 613 c 0,22,23
 529 591 529 591 520.5 576 c 128,-1,24
 512 561 512 561 496 553.5 c 128,-1,25
 480 546 480 546 461.5 543 c 128,-1,26
 443 540 443 540 418 540 c 2,27,-1
 367 540 l 1,28,-1
 292 159 l 2,29,30
 283 109 283 109 283 77 c 0,31,32
 283 36 283 36 296 14 c 1,33,34
 247 -20 247 -20 183 -20 c 0,35,36
 130 -20 130 -20 104 6.5 c 128,-1,37
 78 33 78 33 78 82 c 0,38,39
 78 145 78 145 107 283 c 2,40,-1
 160 540 l 1,41,-1
 95 540 l 2,42,43
 53 540 53 540 26 536 c 1,44,45
 22 552 22 552 22 578 c 0,46,47
 22 622 22 622 47.5 641 c 128,-1,48
 73 660 73 660 122 660 c 2,49,-1
 416 660 l 2,18,19
EndSplineSet
Validated: 8388609
Position2: "'cpsp' Capital Spacing lookup 3 subtable" dx=5 dy=0 dh=10 dv=0
EndChar

StartChar: Tdotbelow
Encoding: 7788 7788 122
Width: 454
Flags: MW
HStem: -194 152<125 180> 540 120<82 416 122 160 367 416 416 418 367 367> 650 20G
VStem: 22 507<583 609> 48 206<-143 -95> 78 205<64 88 64 99>
LayerCount: 2
UndoRedoHistory
Layer: 0
Undoes
EndUndoes
Redoes
EndRedoes
EndUndoRedoHistory
UndoRedoHistory
Layer: 1
Undoes
EndUndoes
Redoes
EndRedoes
EndUndoRedoHistory
Fore
SplineSet
154 -42 m 0,0,1
 199 -42 199 -42 226.5 -62 c 128,-1,2
 254 -82 254 -82 254 -118 c 128,-1,3
 254 -154 254 -154 225 -174 c 128,-1,4
 196 -194 196 -194 150 -194 c 0,5,6
 105 -194 105 -194 76.5 -174.5 c 128,-1,7
 48 -155 48 -155 48 -120 c 0,8,9
 48 -83 48 -83 78 -62.5 c 128,-1,10
 108 -42 108 -42 154 -42 c 0,0,1
416 660 m 2,11,12
 482 660 482 660 514 670 c 1,13,14
 529 650 529 650 529 613 c 0,15,16
 529 591 529 591 520.5 576 c 128,-1,17
 512 561 512 561 496 553.5 c 128,-1,18
 480 546 480 546 461.5 543 c 128,-1,19
 443 540 443 540 418 540 c 2,20,-1
 367 540 l 1,21,-1
 292 159 l 2,22,23
 283 109 283 109 283 77 c 0,24,25
 283 36 283 36 296 14 c 1,26,27
 247 -20 247 -20 183 -20 c 0,28,29
 130 -20 130 -20 104 6.5 c 128,-1,30
 78 33 78 33 78 82 c 0,31,32
 78 145 78 145 107 283 c 2,33,-1
 160 540 l 1,34,-1
 95 540 l 2,35,36
 53 540 53 540 26 536 c 1,37,38
 22 552 22 552 22 578 c 0,39,40
 22 622 22 622 47.5 641 c 128,-1,41
 73 660 73 660 122 660 c 2,42,-1
 416 660 l 2,11,12
EndSplineSet
Validated: 8388609
Position2: "'cpsp' Capital Spacing lookup 3 subtable" dx=5 dy=0 dh=10 dv=0
EndChar

StartChar: U
Encoding: 85 85 123
Width: 644
Flags: MW
HStem: -20 92<288 348 288 356> 640 20G<117 337 337 337 505 655 655 655>
VStem: 26 221<119 156 119 157> 26 629<82 660>
LayerCount: 2
UndoRedoHistory
Layer: 0
Undoes
EndUndoes
Redoes
EndRedoes
EndUndoRedoHistory
UndoRedoHistory
Layer: 1
Undoes
EndUndoes
Redoes
EndRedoes
EndUndoRedoHistory
Fore
SplineSet
578 255 m 2,0,1
 551 113 551 113 476 46.5 c 128,-1,2
 401 -20 401 -20 262 -20 c 0,3,4
 211 -20 211 -20 170 -11 c 128,-1,5
 129 -2 129 -2 95.5 16 c 128,-1,6
 62 34 62 34 44 66.5 c 128,-1,7
 26 99 26 99 26 142 c 0,8,9
 26 189 26 189 39 257 c 2,10,-1
 117 660 l 1,11,-1
 337 660 l 1,12,-1
 259 244 l 2,13,14
 247 182 247 182 247 143 c 0,15,16
 247 72 247 72 309 72 c 0,17,18
 331 72 331 72 349 81 c 128,-1,19
 367 90 367 90 378 103.5 c 128,-1,20
 389 117 389 117 398.5 141.5 c 128,-1,21
 408 166 408 166 413.5 188 c 128,-1,22
 419 210 419 210 426 244 c 2,23,-1
 505 660 l 1,24,-1
 655 660 l 1,25,-1
 578 255 l 2,0,1
EndSplineSet
Validated: 8388609
Position2: "'cpsp' Capital Spacing lookup 3 subtable" dx=5 dy=0 dh=10 dv=0
EndChar

StartChar: Uacute
Encoding: 218 218 124
Width: 644
Flags: MW
HStem: -20 92<288 348 288 356> 640 20G<117 337 337 337 505 655 655 655>
VStem: 26 221<119 156 119 157> 26 629<82 660>
LayerCount: 2
UndoRedoHistory
Layer: 0
Undoes
EndUndoes
Redoes
EndRedoes
EndUndoRedoHistory
UndoRedoHistory
Layer: 1
Undoes
EndUndoes
Redoes
EndRedoes
EndUndoRedoHistory
Fore
SplineSet
578 255 m 2,0,1
 551 113 551 113 476 46.5 c 128,-1,2
 401 -20 401 -20 262 -20 c 0,3,4
 211 -20 211 -20 170 -11 c 128,-1,5
 129 -2 129 -2 95.5 16 c 128,-1,6
 62 34 62 34 44 66.5 c 128,-1,7
 26 99 26 99 26 142 c 0,8,9
 26 189 26 189 39 257 c 2,10,-1
 117 660 l 1,11,-1
 337 660 l 1,12,-1
 259 244 l 2,13,14
 247 182 247 182 247 143 c 0,15,16
 247 72 247 72 309 72 c 0,17,18
 331 72 331 72 349 81 c 128,-1,19
 367 90 367 90 378 103.5 c 128,-1,20
 389 117 389 117 398.5 141.5 c 128,-1,21
 408 166 408 166 413.5 188 c 128,-1,22
 419 210 419 210 426 244 c 2,23,-1
 505 660 l 1,24,-1
 655 660 l 1,25,-1
 578 255 l 2,0,1
333 759 m 1,26,-1
 578 861 l 1,27,28
 606 840 606 840 606 807 c 0,29,30
 606 782 606 782 594.5 764 c 128,-1,31
 583 746 583 746 562.5 735.5 c 128,-1,32
 542 725 542 725 517.5 720 c 128,-1,33
 493 715 493 715 464 714 c 2,34,-1
 345 710 l 1,35,-1
 333 759 l 1,26,-1
EndSplineSet
Validated: 8388609
Position2: "'cpsp' Capital Spacing lookup 3 subtable" dx=5 dy=0 dh=10 dv=0
EndChar

StartChar: Ubreve
Encoding: 364 364 125
Width: 644
Flags: MW
HStem: -20 92<288 348 288 356> 640 20G<117 337 337 337 505 655 655 655> 701 49<411 453 411 487>
VStem: 26 221<119 156 119 157> 244 148<789 802 789 812>
LayerCount: 2
UndoRedoHistory
Layer: 0
Undoes
EndUndoes
Redoes
EndRedoes
EndUndoRedoHistory
UndoRedoHistory
Layer: 1
Undoes
EndUndoes
Redoes
EndRedoes
EndUndoRedoHistory
Fore
SplineSet
578 255 m 2,0,1
 551 113 551 113 476 46.5 c 128,-1,2
 401 -20 401 -20 262 -20 c 0,3,4
 211 -20 211 -20 170 -11 c 128,-1,5
 129 -2 129 -2 95.5 16 c 128,-1,6
 62 34 62 34 44 66.5 c 128,-1,7
 26 99 26 99 26 142 c 0,8,9
 26 189 26 189 39 257 c 2,10,-1
 117 660 l 1,11,-1
 337 660 l 1,12,-1
 259 244 l 2,13,14
 247 182 247 182 247 143 c 0,15,16
 247 72 247 72 309 72 c 0,17,18
 331 72 331 72 349 81 c 128,-1,19
 367 90 367 90 378 103.5 c 128,-1,20
 389 117 389 117 398.5 141.5 c 128,-1,21
 408 166 408 166 413.5 188 c 128,-1,22
 419 210 419 210 426 244 c 2,23,-1
 505 660 l 1,24,-1
 655 660 l 1,25,-1
 578 255 l 2,0,1
396 834 m 1,26,27
 392 806 392 806 392 796 c 0,28,29
 392 750 392 750 428 750 c 0,30,31
 442 750 442 750 453 756 c 128,-1,32
 464 762 464 762 470 768 c 128,-1,33
 476 774 476 774 482 789 c 128,-1,34
 488 804 488 804 489.5 810.5 c 128,-1,35
 491 817 491 817 495 834 c 1,36,-1
 639 834 l 1,37,38
 626 775 626 775 571 738 c 128,-1,39
 516 701 516 701 418 701 c 0,40,41
 335 701 335 701 289.5 731.5 c 128,-1,42
 244 762 244 762 244 807 c 0,43,44
 244 819 244 819 247 834 c 1,45,-1
 396 834 l 1,26,27
EndSplineSet
Validated: 8388609
Position2: "'cpsp' Capital Spacing lookup 3 subtable" dx=5 dy=0 dh=10 dv=0
EndChar

StartChar: Ucircumflex
Encoding: 219 219 126
Width: 644
Flags: MW
HStem: -20 92<288 348 288 356> 640 20G<117 337 337 337 505 655 655 655>
VStem: 26 221<119 156 119 157> 26 629<82 660>
LayerCount: 2
UndoRedoHistory
Layer: 0
Undoes
EndUndoes
Redoes
EndRedoes
EndUndoRedoHistory
UndoRedoHistory
Layer: 1
Undoes
EndUndoes
Redoes
EndRedoes
EndUndoRedoHistory
Fore
SplineSet
578 255 m 2,0,1
 551 113 551 113 476 46.5 c 128,-1,2
 401 -20 401 -20 262 -20 c 0,3,4
 211 -20 211 -20 170 -11 c 128,-1,5
 129 -2 129 -2 95.5 16 c 128,-1,6
 62 34 62 34 44 66.5 c 128,-1,7
 26 99 26 99 26 142 c 0,8,9
 26 189 26 189 39 257 c 2,10,-1
 117 660 l 1,11,-1
 337 660 l 1,12,-1
 259 244 l 2,13,14
 247 182 247 182 247 143 c 0,15,16
 247 72 247 72 309 72 c 0,17,18
 331 72 331 72 349 81 c 128,-1,19
 367 90 367 90 378 103.5 c 128,-1,20
 389 117 389 117 398.5 141.5 c 128,-1,21
 408 166 408 166 413.5 188 c 128,-1,22
 419 210 419 210 426 244 c 2,23,-1
 505 660 l 1,24,-1
 655 660 l 1,25,-1
 578 255 l 2,0,1
537 687 m 1,26,-1
 421 739 l 1,27,-1
 273 687 l 1,28,-1
 242 733 l 1,29,-1
 409 849 l 1,30,-1
 454 849 l 1,31,-1
 587 733 l 1,32,-1
 537 687 l 1,26,-1
EndSplineSet
Validated: 8388609
Position2: "'cpsp' Capital Spacing lookup 3 subtable" dx=5 dy=0 dh=10 dv=0
EndChar

StartChar: Udieresis
Encoding: 220 220 127
Width: 644
Flags: MW
HStem: -20 92<288 348 288 356> 640 20G<117 337 337 337 505 655 655 655> 690 152<284 338 518 572>
VStem: 26 221<119 156 119 157> 207 205<741 790> 441 205<741 790>
LayerCount: 2
UndoRedoHistory
Layer: 0
Undoes
EndUndoes
Redoes
EndRedoes
EndUndoRedoHistory
UndoRedoHistory
Layer: 1
Undoes
EndUndoes
Redoes
EndRedoes
EndUndoRedoHistory
Fore
SplineSet
578 255 m 2,0,1
 551 113 551 113 476 46.5 c 128,-1,2
 401 -20 401 -20 262 -20 c 0,3,4
 211 -20 211 -20 170 -11 c 128,-1,5
 129 -2 129 -2 95.5 16 c 128,-1,6
 62 34 62 34 44 66.5 c 128,-1,7
 26 99 26 99 26 142 c 0,8,9
 26 189 26 189 39 257 c 2,10,-1
 117 660 l 1,11,-1
 337 660 l 1,12,-1
 259 244 l 2,13,14
 247 182 247 182 247 143 c 0,15,16
 247 72 247 72 309 72 c 0,17,18
 331 72 331 72 349 81 c 128,-1,19
 367 90 367 90 378 103.5 c 128,-1,20
 389 117 389 117 398.5 141.5 c 128,-1,21
 408 166 408 166 413.5 188 c 128,-1,22
 419 210 419 210 426 244 c 2,23,-1
 505 660 l 1,24,-1
 655 660 l 1,25,-1
 578 255 l 2,0,1
547 842 m 0,26,27
 592 842 592 842 619 822 c 128,-1,28
 646 802 646 802 646 766 c 128,-1,29
 646 730 646 730 617.5 710 c 128,-1,30
 589 690 589 690 543 690 c 0,31,32
 498 690 498 690 469.5 709.5 c 128,-1,33
 441 729 441 729 441 764 c 0,34,35
 441 801 441 801 471 821.5 c 128,-1,36
 501 842 501 842 547 842 c 0,26,27
313 842 m 0,37,38
 358 842 358 842 385 822 c 128,-1,39
 412 802 412 802 412 766 c 128,-1,40
 412 730 412 730 383.5 710 c 128,-1,41
 355 690 355 690 309 690 c 0,42,43
 264 690 264 690 235.5 709.5 c 128,-1,44
 207 729 207 729 207 764 c 0,45,46
 207 801 207 801 237 821.5 c 128,-1,47
 267 842 267 842 313 842 c 0,37,38
EndSplineSet
Validated: 8388609
Position2: "'cpsp' Capital Spacing lookup 3 subtable" dx=5 dy=0 dh=10 dv=0
EndChar

StartChar: Udotbelow
Encoding: 7908 7908 128
Width: 644
Flags: MW
HStem: -194 152<233 289> -20 92<288 348 288 356> 640 20G<117 337 337 337 505 655 655 655>
VStem: 26 221<119 156 119 157> 26 629<82 660> 157 206<-143 -95>
LayerCount: 2
UndoRedoHistory
Layer: 0
Undoes
EndUndoes
Redoes
EndRedoes
EndUndoRedoHistory
UndoRedoHistory
Layer: 1
Undoes
EndUndoes
Redoes
EndRedoes
EndUndoRedoHistory
Fore
SplineSet
263 -42 m 0,0,1
 308 -42 308 -42 335.5 -62 c 128,-1,2
 363 -82 363 -82 363 -118 c 128,-1,3
 363 -154 363 -154 334 -174 c 128,-1,4
 305 -194 305 -194 259 -194 c 0,5,6
 214 -194 214 -194 185.5 -174.5 c 128,-1,7
 157 -155 157 -155 157 -120 c 0,8,9
 157 -83 157 -83 187 -62.5 c 128,-1,10
 217 -42 217 -42 263 -42 c 0,0,1
578 255 m 2,11,12
 551 113 551 113 476 46.5 c 128,-1,13
 401 -20 401 -20 262 -20 c 0,14,15
 211 -20 211 -20 170 -11 c 128,-1,16
 129 -2 129 -2 95.5 16 c 128,-1,17
 62 34 62 34 44 66.5 c 128,-1,18
 26 99 26 99 26 142 c 0,19,20
 26 189 26 189 39 257 c 2,21,-1
 117 660 l 1,22,-1
 337 660 l 1,23,-1
 259 244 l 2,24,25
 247 182 247 182 247 143 c 0,26,27
 247 72 247 72 309 72 c 0,28,29
 331 72 331 72 349 81 c 128,-1,30
 367 90 367 90 378 103.5 c 128,-1,31
 389 117 389 117 398.5 141.5 c 128,-1,32
 408 166 408 166 413.5 188 c 128,-1,33
 419 210 419 210 426 244 c 2,34,-1
 505 660 l 1,35,-1
 655 660 l 1,36,-1
 578 255 l 2,11,12
EndSplineSet
Validated: 8388609
Position2: "'cpsp' Capital Spacing lookup 3 subtable" dx=5 dy=0 dh=10 dv=0
EndChar

StartChar: Ugrave
Encoding: 217 217 129
Width: 644
Flags: MW
HStem: -20 92<288 348 288 356> 640 20G<117 337 337 337 505 655 655 655>
VStem: 26 221<119 156 119 157> 26 629<82 660>
LayerCount: 2
UndoRedoHistory
Layer: 0
Undoes
EndUndoes
Redoes
EndRedoes
EndUndoRedoHistory
UndoRedoHistory
Layer: 1
Undoes
EndUndoes
Redoes
EndRedoes
EndUndoRedoHistory
Fore
SplineSet
578 255 m 2,0,1
 551 113 551 113 476 46.5 c 128,-1,2
 401 -20 401 -20 262 -20 c 0,3,4
 211 -20 211 -20 170 -11 c 128,-1,5
 129 -2 129 -2 95.5 16 c 128,-1,6
 62 34 62 34 44 66.5 c 128,-1,7
 26 99 26 99 26 142 c 0,8,9
 26 189 26 189 39 257 c 2,10,-1
 117 660 l 1,11,-1
 337 660 l 1,12,-1
 259 244 l 2,13,14
 247 182 247 182 247 143 c 0,15,16
 247 72 247 72 309 72 c 0,17,18
 331 72 331 72 349 81 c 128,-1,19
 367 90 367 90 378 103.5 c 128,-1,20
 389 117 389 117 398.5 141.5 c 128,-1,21
 408 166 408 166 413.5 188 c 128,-1,22
 419 210 419 210 426 244 c 2,23,-1
 505 660 l 1,24,-1
 655 660 l 1,25,-1
 578 255 l 2,0,1
518 711 m 1,26,-1
 399 715 l 2,27,28
 370 716 370 716 345.5 721 c 128,-1,29
 321 726 321 726 300.5 736.5 c 128,-1,30
 280 747 280 747 268.5 765 c 128,-1,31
 257 783 257 783 257 808 c 0,32,33
 257 841 257 841 285 862 c 1,34,-1
 530 760 l 1,35,-1
 518 711 l 1,26,-1
EndSplineSet
Validated: 8388609
Position2: "'cpsp' Capital Spacing lookup 3 subtable" dx=5 dy=0 dh=10 dv=0
EndChar

StartChar: Uhungarumlaut
Encoding: 368 368 130
Width: 644
Flags: MW
HStem: -20 92<288 348 288 356> 640 20G<117 337 337 337 505 655 655 655>
VStem: 26 221<119 156 119 157> 26 668<82 814>
LayerCount: 2
UndoRedoHistory
Layer: 0
Undoes
EndUndoes
Redoes
EndRedoes
EndUndoRedoHistory
UndoRedoHistory
Layer: 1
Undoes
EndUndoes
Redoes
EndRedoes
EndUndoRedoHistory
Fore
SplineSet
578 255 m 2,0,1
 551 113 551 113 476 46.5 c 128,-1,2
 401 -20 401 -20 262 -20 c 0,3,4
 211 -20 211 -20 170 -11 c 128,-1,5
 129 -2 129 -2 95.5 16 c 128,-1,6
 62 34 62 34 44 66.5 c 128,-1,7
 26 99 26 99 26 142 c 0,8,9
 26 189 26 189 39 257 c 2,10,-1
 117 660 l 1,11,-1
 337 660 l 1,12,-1
 259 244 l 2,13,14
 247 182 247 182 247 143 c 0,15,16
 247 72 247 72 309 72 c 0,17,18
 331 72 331 72 349 81 c 128,-1,19
 367 90 367 90 378 103.5 c 128,-1,20
 389 117 389 117 398.5 141.5 c 128,-1,21
 408 166 408 166 413.5 188 c 128,-1,22
 419 210 419 210 426 244 c 2,23,-1
 505 660 l 1,24,-1
 655 660 l 1,25,-1
 578 255 l 2,0,1
651 857 m 1,26,27
 671 847 671 847 682.5 833 c 128,-1,28
 694 819 694 819 694 803 c 0,29,30
 694 767 694 767 668.5 749 c 128,-1,31
 643 731 643 731 581 717 c 2,32,-1
 494 697 l 1,33,-1
 465 731 l 1,34,-1
 651 857 l 1,26,27
432 857 m 1,35,36
 452 848 452 848 464 833 c 128,-1,37
 476 818 476 818 476 802 c 0,38,39
 476 766 476 766 450.5 748 c 128,-1,40
 425 730 425 730 363 717 c 2,41,-1
 274 697 l 1,42,-1
 246 731 l 1,43,-1
 432 857 l 1,35,36
EndSplineSet
Validated: 8388609
Position2: "'cpsp' Capital Spacing lookup 3 subtable" dx=5 dy=0 dh=10 dv=0
EndChar

StartChar: Umacron
Encoding: 362 362 131
Width: 644
Flags: MW
HStem: -20 92<288 348 288 356> 640 20G<117 337 337 337 505 655 655 655> 740 92<335 504 270 576>
VStem: 26 221<119 156 119 157> 26 629<82 660>
LayerCount: 2
UndoRedoHistory
Layer: 0
Undoes
EndUndoes
Redoes
EndRedoes
EndUndoRedoHistory
UndoRedoHistory
Layer: 1
Undoes
EndUndoes
Redoes
EndRedoes
EndUndoRedoHistory
Fore
SplineSet
578 255 m 2,0,1
 551 113 551 113 476 46.5 c 128,-1,2
 401 -20 401 -20 262 -20 c 0,3,4
 211 -20 211 -20 170 -11 c 128,-1,5
 129 -2 129 -2 95.5 16 c 128,-1,6
 62 34 62 34 44 66.5 c 128,-1,7
 26 99 26 99 26 142 c 0,8,9
 26 189 26 189 39 257 c 2,10,-1
 117 660 l 1,11,-1
 337 660 l 1,12,-1
 259 244 l 2,13,14
 247 182 247 182 247 143 c 0,15,16
 247 72 247 72 309 72 c 0,17,18
 331 72 331 72 349 81 c 128,-1,19
 367 90 367 90 378 103.5 c 128,-1,20
 389 117 389 117 398.5 141.5 c 128,-1,21
 408 166 408 166 413.5 188 c 128,-1,22
 419 210 419 210 426 244 c 2,23,-1
 505 660 l 1,24,-1
 655 660 l 1,25,-1
 578 255 l 2,0,1
576 832 m 1,26,27
 580 816 580 816 580 804 c 0,28,29
 580 776 580 776 560.5 758 c 128,-1,30
 541 740 541 740 504 740 c 2,31,-1
 270 740 l 1,32,33
 267 749 267 749 267 767 c 0,34,35
 267 796 267 796 286.5 814 c 128,-1,36
 306 832 306 832 335 832 c 2,37,-1
 576 832 l 1,26,27
EndSplineSet
Validated: 8388609
Position2: "'cpsp' Capital Spacing lookup 3 subtable" dx=5 dy=0 dh=10 dv=0
EndChar

StartChar: Uogonek
Encoding: 370 370 132
Width: 644
Flags: MW
HStem: -258 84<359 382> -20 92<197 348 262 348> 640 20G<117 337 337 337 505 655 655 655>
VStem: 26 221<119 156 119 157> 216 112<-141 -118>
LayerCount: 2
UndoRedoHistory
Layer: 0
Undoes
EndUndoes
Redoes
EndRedoes
EndUndoRedoHistory
UndoRedoHistory
Layer: 1
Undoes
EndUndoes
Redoes
EndRedoes
EndUndoRedoHistory
Fore
SplineSet
655 660 m 1,0,-1
 578 255 l 2,1,2
 560 160 560 160 521 99.5 c 128,-1,3
 482 39 482 39 417 9 c 1,4,5
 378 -18 378 -18 353 -53 c 128,-1,6
 328 -88 328 -88 328 -123 c 0,7,8
 328 -174 328 -174 375 -174 c 0,9,10
 415 -174 415 -174 437 -149 c 1,11,12
 447 -161 447 -161 451 -171 c 128,-1,13
 455 -181 455 -181 455 -196 c 0,14,15
 455 -222 455 -222 426.5 -240 c 128,-1,16
 398 -258 398 -258 347 -258 c 0,17,18
 285 -258 285 -258 250.5 -229.5 c 128,-1,19
 216 -201 216 -201 216 -146 c 0,20,21
 216 -69 216 -69 285 -20 c 1,22,-1
 262 -20 l 2,23,24
 211 -20 211 -20 170 -11 c 128,-1,25
 129 -2 129 -2 95.5 16 c 128,-1,26
 62 34 62 34 44 66.5 c 128,-1,27
 26 99 26 99 26 142 c 0,28,29
 26 189 26 189 39 257 c 2,30,-1
 117 660 l 1,31,-1
 337 660 l 1,32,-1
 259 244 l 2,33,34
 247 182 247 182 247 143 c 0,35,36
 247 72 247 72 309 72 c 0,37,38
 331 72 331 72 349 81 c 128,-1,39
 367 90 367 90 378 103.5 c 128,-1,40
 389 117 389 117 398.5 141.5 c 128,-1,41
 408 166 408 166 413.5 188 c 128,-1,42
 419 210 419 210 426 244 c 2,43,-1
 505 660 l 1,44,-1
 655 660 l 1,0,-1
EndSplineSet
Validated: 8388609
Position2: "'cpsp' Capital Spacing lookup 3 subtable" dx=5 dy=0 dh=10 dv=0
EndChar

StartChar: Uring
Encoding: 366 366 133
Width: 644
Flags: MW
HStem: -20 92<288 348 288 356> 640 20G<117 337 337 337 505 655 655 655> 690 36<413 441 413 449> 815 39<428 457>
VStem: 26 221<119 156 119 157> 324 68<748 775 748 789> 477 68<766 793>
LayerCount: 2
UndoRedoHistory
Layer: 0
Undoes
EndUndoes
Redoes
EndRedoes
EndUndoRedoHistory
UndoRedoHistory
Layer: 1
Undoes
EndUndoes
Redoes
EndRedoes
EndUndoRedoHistory
Fore
SplineSet
578 255 m 2,0,1
 551 113 551 113 476 46.5 c 128,-1,2
 401 -20 401 -20 262 -20 c 0,3,4
 211 -20 211 -20 170 -11 c 128,-1,5
 129 -2 129 -2 95.5 16 c 128,-1,6
 62 34 62 34 44 66.5 c 128,-1,7
 26 99 26 99 26 142 c 0,8,9
 26 189 26 189 39 257 c 2,10,-1
 117 660 l 1,11,-1
 337 660 l 1,12,-1
 259 244 l 2,13,14
 247 182 247 182 247 143 c 0,15,16
 247 72 247 72 309 72 c 0,17,18
 331 72 331 72 349 81 c 128,-1,19
 367 90 367 90 378 103.5 c 128,-1,20
 389 117 389 117 398.5 141.5 c 128,-1,21
 408 166 408 166 413.5 188 c 128,-1,22
 419 210 419 210 426 244 c 2,23,-1
 505 660 l 1,24,-1
 655 660 l 1,25,-1
 578 255 l 2,0,1
477 782 m 0,26,27
 477 815 477 815 445 815 c 0,28,29
 420 815 420 815 406 799.5 c 128,-1,30
 392 784 392 784 392 759 c 0,31,32
 392 742 392 742 399.5 734 c 128,-1,33
 407 726 407 726 424 726 c 0,34,35
 449 726 449 726 463 741.5 c 128,-1,36
 477 757 477 757 477 782 c 0,26,27
545 785 m 0,37,38
 545 742 545 742 506.5 716 c 128,-1,39
 468 690 468 690 416 690 c 0,40,41
 374 690 374 690 349 708 c 128,-1,42
 324 726 324 726 324 759 c 0,43,44
 324 801 324 801 363 827.5 c 128,-1,45
 402 854 402 854 455 854 c 0,46,47
 497 854 497 854 521 836 c 128,-1,48
 545 818 545 818 545 785 c 0,37,38
EndSplineSet
Validated: 1
Position2: "'cpsp' Capital Spacing lookup 3 subtable" dx=5 dy=0 dh=10 dv=0
EndChar

StartChar: Utilde
Encoding: 360 360 134
Width: 644
Flags: MW
HStem: -20 92<288 348 288 356> 640 20G<117 337 337 337 505 655 655 655> 722 108<515 550 515 550> 740 107<303 337>
VStem: 26 221<119 156 119 157> 26 629<82 660>
LayerCount: 2
UndoRedoHistory
Layer: 0
Undoes
EndUndoes
Redoes
EndRedoes
EndUndoRedoHistory
UndoRedoHistory
Layer: 1
Undoes
EndUndoes
Redoes
EndRedoes
EndUndoRedoHistory
Fore
SplineSet
578 255 m 2,0,1
 551 113 551 113 476 46.5 c 128,-1,2
 401 -20 401 -20 262 -20 c 0,3,4
 211 -20 211 -20 170 -11 c 128,-1,5
 129 -2 129 -2 95.5 16 c 128,-1,6
 62 34 62 34 44 66.5 c 128,-1,7
 26 99 26 99 26 142 c 0,8,9
 26 189 26 189 39 257 c 2,10,-1
 117 660 l 1,11,-1
 337 660 l 1,12,-1
 259 244 l 2,13,14
 247 182 247 182 247 143 c 0,15,16
 247 72 247 72 309 72 c 0,17,18
 331 72 331 72 349 81 c 128,-1,19
 367 90 367 90 378 103.5 c 128,-1,20
 389 117 389 117 398.5 141.5 c 128,-1,21
 408 166 408 166 413.5 188 c 128,-1,22
 419 210 419 210 426 244 c 2,23,-1
 505 660 l 1,24,-1
 655 660 l 1,25,-1
 578 255 l 2,0,1
598 847 m 1,26,27
 617 824 617 824 617 796 c 0,28,29
 617 760 617 760 591.5 741 c 128,-1,30
 566 722 566 722 521 722 c 0,31,32
 496 722 496 722 416 731 c 128,-1,33
 336 740 336 740 317 740 c 0,34,35
 277 740 277 740 250 723 c 1,36,37
 230 751 230 751 230 780 c 0,38,39
 230 812 230 812 255.5 829.5 c 128,-1,40
 281 847 281 847 329 847 c 0,41,42
 358 847 358 847 437 838.5 c 128,-1,43
 516 830 516 830 538 830 c 0,44,45
 581 830 581 830 598 847 c 1,26,27
EndSplineSet
Validated: 8388609
Position2: "'cpsp' Capital Spacing lookup 3 subtable" dx=5 dy=0 dh=10 dv=0
EndChar

StartChar: V
Encoding: 86 86 135
Width: 539
Flags: MW
HStem: 640 20G<511 634 634 634> 660 20G
VStem: 8 626
LayerCount: 2
UndoRedoHistory
Layer: 0
Undoes
EndUndoes
Redoes
EndRedoes
EndUndoRedoHistory
UndoRedoHistory
Layer: 1
Undoes
EndUndoes
Redoes
EndRedoes
EndUndoRedoHistory
Fore
SplineSet
60 481 m 2,0,1
 53 584 53 584 8 620 c 1,2,3
 40 680 40 680 128 680 c 0,4,5
 164 680 164 680 190 670 c 128,-1,6
 216 660 216 660 231.5 642.5 c 128,-1,7
 247 625 247 625 256.5 597.5 c 128,-1,8
 266 570 266 570 269 540.5 c 128,-1,9
 272 511 272 511 272 471 c 2,10,-1
 272 123 l 1,11,-1
 511 660 l 1,12,-1
 634 660 l 1,13,-1
 323 0 l 1,14,-1
 90 0 l 1,15,-1
 60 481 l 2,0,1
EndSplineSet
Validated: 8388609
Position2: "'cpsp' Capital Spacing lookup 3 subtable" dx=5 dy=0 dh=10 dv=0
EndChar

StartChar: W
Encoding: 87 87 136
Width: 905
Flags: MW
HStem: 640 20G<495 614 614 614 877 1000 1000 1000> 660 20G
VStem: 8 992
LayerCount: 2
UndoRedoHistory
Layer: 0
Undoes
EndUndoes
Redoes
EndRedoes
EndUndoRedoHistory
UndoRedoHistory
Layer: 1
Undoes
EndUndoes
Redoes
EndRedoes
EndUndoRedoHistory
Fore
SplineSet
60 481 m 2,0,1
 53 584 53 584 8 620 c 1,2,3
 40 680 40 680 128 680 c 0,4,5
 164 680 164 680 190 670 c 128,-1,6
 216 660 216 660 231.5 642.5 c 128,-1,7
 247 625 247 625 256.5 597.5 c 128,-1,8
 266 570 266 570 269 540.5 c 128,-1,9
 272 511 272 511 272 471 c 2,10,-1
 272 123 l 1,11,-1
 495 660 l 1,12,-1
 614 660 l 1,13,-1
 645 123 l 1,14,-1
 877 660 l 1,15,-1
 1000 660 l 1,16,-1
 696 0 l 1,17,-1
 482 0 l 1,18,-1
 463 316 l 1,19,-1
 323 0 l 1,20,-1
 90 0 l 1,21,-1
 60 481 l 2,0,1
EndSplineSet
Validated: 8388609
Position2: "'cpsp' Capital Spacing lookup 3 subtable" dx=5 dy=0 dh=10 dv=0
EndChar

